<svg width="119" height="144" viewBox="0 0 119 144" fill="none" xmlns="http://www.w3.org/2000/svg">
<path d="M56.9763 63.9488L54.5538 71.8338C54.0313 73.4488 55.2663 75.1113 56.9763 75.1113H60.5863C62.2963 75.1113 63.4838 73.4488 63.0088 71.8338L60.5863 63.9488C60.0163 62.2388 57.5463 62.2388 56.9763 63.9488ZM51.8463 78.1513C53.8413 79.1963 56.2163 79.8138 58.7813 79.8138C61.2988 79.8138 63.6738 79.1963 65.7163 78.1513C66.3813 77.8188 67.1413 78.5788 66.7138 79.2438C65.8578 80.5693 64.6833 81.6591 63.2976 82.4138C61.9119 83.1684 60.3592 83.5638 58.7813 83.5638C57.2035 83.5638 55.6508 83.1684 54.2651 82.4138C52.8794 81.6591 51.7048 80.5693 50.8488 79.2438C50.4213 78.5788 51.1813 77.7713 51.8463 78.1513ZM47.4763 58.8188C44.3888 58.8188 41.7763 60.9563 41.0638 63.8063C40.8738 64.6138 41.4913 65.4213 42.3463 65.4213H44.3271C44.1612 64.7939 44.1416 64.1368 44.27 63.5006C44.3983 62.8645 44.671 62.2663 45.0671 61.7523C45.4632 61.2382 45.9721 60.822 46.5545 60.5357C47.137 60.2495 47.7773 60.1009 48.4263 60.1013C50.8013 60.1013 52.6538 62.0013 52.6063 64.3288C52.6098 64.697 52.5667 65.064 52.4781 65.4213H52.8438C53.5088 65.4213 54.0313 64.8038 53.9363 64.1388C53.3663 61.1463 50.6588 58.8188 47.4763 58.8188ZM70.0388 58.8188C73.1263 58.8188 75.7388 60.9563 76.4513 63.8063C76.6413 64.6138 76.0238 65.4213 75.1688 65.4213H73.1833C73.3491 64.7943 73.3687 64.1376 73.2407 63.5018C73.1126 62.866 72.8403 62.2681 72.4447 61.7541C72.0492 61.2402 71.5409 60.8239 70.9591 60.5373C70.3772 60.2508 69.7374 60.1016 69.0888 60.1013C66.7613 60.1013 64.8613 62.0013 64.9088 64.3288C64.9088 64.7373 64.9563 65.0603 65.0371 65.4213H64.6713C64.0063 65.4213 63.4838 64.8038 63.5788 64.1388C64.1963 61.1463 66.8563 58.8188 70.0388 58.8188Z" fill="#383A3C"/>
<path d="M48.4264 61.9063C48.8437 61.909 49.2533 62.019 49.6158 62.2258C49.9782 62.4325 50.2814 62.7291 50.4961 63.087C50.7108 63.4448 50.8298 63.8518 50.8417 64.269C50.8536 64.6861 50.7579 65.0993 50.5639 65.4688H46.2889C46.0891 65.0979 45.9905 64.6809 46.003 64.2598C46.0155 63.8387 46.1387 63.4284 46.3602 63.07C46.4181 63.163 46.4954 63.2424 46.5869 63.3028C46.6783 63.3631 46.7817 63.4029 46.89 63.4196C46.9983 63.4362 47.109 63.4292 47.2143 63.3991C47.3196 63.369 47.4172 63.3164 47.5004 63.2451C47.5835 63.1737 47.6502 63.0852 47.696 62.9857C47.7417 62.8861 47.7654 62.7778 47.7654 62.6682C47.7654 62.5587 47.7416 62.4504 47.6959 62.3509C47.6501 62.2513 47.5833 62.1628 47.5002 62.0915C47.7935 61.9686 48.1084 61.9056 48.4264 61.9063ZM69.0889 61.9063C68.7933 61.9062 68.5001 61.961 68.2244 62.0678C68.3488 62.1651 68.4398 62.2987 68.4847 62.4502C68.5296 62.6016 68.5262 62.7632 68.475 62.9126C68.4238 63.062 68.3273 63.1918 68.199 63.2838C68.0707 63.3759 67.9168 63.4257 67.7589 63.4263C67.615 63.4268 67.4738 63.3865 67.3519 63.31C67.2299 63.2335 67.1323 63.1239 67.0702 62.994C66.8275 63.3568 66.6883 63.7789 66.6673 64.2149C66.6464 64.6509 66.7446 65.0844 66.9514 65.4688H71.2264C71.4204 65.0993 71.5161 64.6861 71.5042 64.269C71.4923 63.8518 71.3733 63.4448 71.1586 63.087C70.9439 62.7291 70.6407 62.4325 70.2783 62.2258C69.9158 62.019 69.5062 61.909 69.0889 61.9063Z" fill="#383A3C"/>
<path d="M118.299 143.25H0L0.389499 138.139C1.21527 128.318 4.40649 118.842 9.69048 110.523C14.9745 102.203 22.1941 95.2863 30.7325 90.3635C29.6586 88.1121 28.9821 85.6919 28.7327 83.21L28.3148 77.51C25.9439 76.5531 23.9107 74.9135 22.4731 72.7993C21.0354 70.6852 20.2581 68.1916 20.2397 65.635C20.2511 62.92 21.128 60.2793 22.743 58.0967C20.3545 55.3304 19.0782 51.7757 19.1615 48.1217C19.1462 45.6522 19.7056 43.2129 20.7955 40.9967C21.1873 37.619 22.7624 34.4891 25.2415 32.1617V29.155C25.2353 23.9129 27.0193 18.8258 30.2983 14.7357C33.5772 10.6457 38.1545 7.79788 43.2725 6.66375C44.5928 4.83325 46.3291 3.34255 48.3383 2.31441C50.3475 1.28626 52.5723 0.750075 54.8293 0.75H63.5217C65.7706 0.754499 67.9863 1.29297 69.9863 2.32109C71.9864 3.34921 73.7138 4.83759 75.0263 6.66375C80.1473 7.79492 84.7285 10.6413 88.011 14.7315C91.2936 18.8218 93.0806 23.9105 93.0762 29.155V32.3137C95.3942 34.5558 96.9 37.5103 97.3513 40.707C98.5578 43.006 99.1705 45.571 99.123 48.1645C99.2038 51.8122 97.9179 55.3583 95.5177 58.1063C97.1185 60.2817 97.9878 62.9038 97.9973 65.6065C97.988 68.1706 97.2149 70.6737 95.7766 72.7964C94.3383 74.9191 92.3002 76.5651 89.9222 77.5243L89.5042 83.077C89.2657 85.6523 88.5709 88.1646 87.4522 90.4965C96.0265 95.3727 103.286 102.262 108.603 110.569C113.921 118.877 117.138 128.354 117.976 138.182L118.299 143.25ZM95.19 133.75V108.594C92.2628 105.446 88.9421 102.689 85.31 100.391V133.75H95.19ZM72.067 133.75H80.5648V97.7355C79.9283 97.422 79.2823 97.1227 78.6315 96.8378L75.202 95.4508C74.207 96.0289 73.1568 96.5063 72.067 96.8757V133.75ZM59.1708 104.347C64.7663 104.347 69.5115 101.312 71.2737 97.1275C69.7062 97.5788 68.0485 97.8162 66.3337 97.8162H51.1338C49.78 97.8162 48.4595 97.6643 47.1913 97.3792C49.0105 101.455 53.6798 104.347 59.1708 104.347ZM42.4982 95.56L39.5153 96.7617C38.9453 97.0182 38.3753 97.2842 37.8148 97.5645V133.75H46.1652V97.1133C44.8732 96.7333 43.6478 96.2108 42.4935 95.5648L42.4982 95.56ZM32.2382 62.1817L31.2265 62.9085C30.7814 63.207 30.4151 63.6086 30.1587 64.0792C29.9023 64.5498 29.7635 65.0754 29.754 65.6113C29.7973 66.4237 30.112 67.1981 30.6477 67.8104C31.1834 68.4227 31.909 68.8376 32.7085 68.9885L32.243 62.1817H32.2382ZM40.0758 56.5625H36.6177L38.2992 81.0868C39.007 88.1547 44.5218 93.0662 51.1338 93.0662H66.3337C73.0028 93.0662 78.508 88.15 79.1683 81.0963L80.8925 56.5625H77.463C77.3821 56.9205 77.2231 57.2562 76.9975 57.5457C76.7424 57.8537 76.4233 58.1025 76.0624 58.2748C75.7015 58.447 75.3074 58.5386 74.9075 58.5433C74.385 58.5432 73.815 58.3533 73.34 58.0208L73.321 58.0113C71.5573 56.8629 69.4425 56.3797 67.355 56.648C67.003 56.6947 66.6451 56.6656 66.3053 56.5625H50.9152C50.6666 56.6112 50.412 56.6224 50.16 56.5957C50.0494 56.5827 49.9385 56.5716 49.8275 56.5625H48.2457C45.809 56.7715 44.2558 57.8973 44.175 57.9733C43.6525 58.3532 43.13 58.4957 42.56 58.4957C41.7525 58.4957 40.9925 58.1632 40.5175 57.4508C40.3106 57.1876 40.1587 56.8856 40.071 56.5625H40.0758ZM84.7733 69.055L84.987 69.036C85.8934 68.9946 86.7526 68.6204 87.4003 67.985C88.048 67.3496 88.4386 66.4977 88.4973 65.5922C88.4875 65.0519 88.3461 64.522 88.0854 64.0486C87.8246 63.5752 87.4524 63.1724 87.001 62.8753L85.8467 62.291L85.2577 62.196L84.7733 69.055ZM29.9583 51.8125H88.3453C88.7979 51.313 89.1439 50.7263 89.3619 50.0884C89.58 49.4505 89.6656 48.7749 89.6135 48.1027C89.661 46.9627 89.3712 45.8418 88.7822 44.868L88.4973 44.4405H29.7967L29.4737 44.9535C28.9204 45.9159 28.6427 47.012 28.671 48.1217C28.6105 48.7927 28.6936 49.4689 28.9148 50.1053C29.1359 50.7416 29.49 51.3236 29.9535 51.8125H29.9583ZM33.0648 100.239C29.1099 102.758 25.5269 105.818 22.42 109.33V133.75H33.06V100.239H33.0648ZM40.1517 34.9453V18.3202C38.4745 19.5812 37.114 21.2156 36.1782 23.0938C35.2424 24.972 34.757 27.0423 34.7605 29.1408V34.9453H40.1517ZM67.7825 34.9453V13.024L67.7493 12.948C67.3742 12.138 66.7749 11.4525 66.0223 10.9727C65.2697 10.4928 64.3953 10.2387 63.5027 10.2405H54.8293C53.9306 10.2417 53.051 10.4994 52.2938 10.9832C51.5365 11.467 50.933 12.1569 50.5542 12.9718L49.6517 14.9193V34.95L67.7825 34.9453ZM83.6095 34.9453V29.155C83.6119 26.8644 83.0327 24.6107 81.926 22.6051C80.8194 20.5995 79.2216 18.9078 77.2825 17.6885V34.9453H83.6095Z" fill="#383A3C"/>
</svg>
