<svg width="152" height="152" viewBox="0 0 152 152" fill="none" xmlns="http://www.w3.org/2000/svg">
<path d="M76 118.306V122.759C76.0013 123.349 76.2364 123.915 76.6539 124.333C77.0714 124.75 77.6373 124.985 78.2277 124.987H142.799V116.08H78.2277C77.6377 116.082 77.0722 116.317 76.6547 116.734C76.2373 117.151 76.0019 117.716 76 118.306ZM142.797 102.719H78.2277C77.6373 102.72 77.0714 102.955 76.6539 103.373C76.2364 103.79 76.0013 104.356 76 104.946V109.4C76.0019 109.99 76.2373 110.555 76.6547 110.972C77.0722 111.389 77.6377 111.624 78.2277 111.625H142.799L142.797 102.719Z" fill="#383A3C"/>
<path d="M145.025 138.344H142.797V129.438H78.2277C77.6375 129.439 77.0719 129.675 76.6546 130.092C76.2372 130.509 76.0019 131.075 76 131.665V138.346H71.5469V100.493C71.5481 99.9029 71.7832 99.337 72.2008 98.9195C72.6183 98.502 73.1842 98.2669 73.7746 98.2656H142.799V89.3594C142.796 88.1793 142.326 87.0484 141.491 86.214C140.657 85.3796 139.526 84.9094 138.346 84.9062H107.172V53.7344C107.169 50.1922 105.76 46.796 103.256 44.2913C100.751 41.7867 97.3547 40.3781 93.8125 40.375H82.6785V22.5625C82.6785 17.8383 80.8018 13.3077 77.4613 9.96716C74.1208 6.62667 69.5902 4.75 64.866 4.75C60.1418 4.75 55.6112 6.62667 52.2707 9.96716C48.9302 13.3077 47.0535 17.8383 47.0535 22.5625V40.375H35.9195C32.3777 40.3788 28.9822 41.7876 26.478 44.2922C23.9738 46.7968 22.5656 50.1926 22.5625 53.7344V84.9062H20.3371C19.1116 84.9062 17.5536 85.7399 16.8767 86.7587L10.4381 96.4108C9.76125 97.432 9.20312 99.2655 9.20312 100.491V138.344H6.97775C6.38749 138.346 5.82195 138.581 5.40457 138.998C4.98719 139.416 4.75188 139.981 4.75 140.571V145.025C4.75188 145.615 4.98727 146.18 5.40471 146.597C5.82216 147.014 6.38771 147.249 6.97775 147.25H145.025C145.614 147.248 146.179 147.013 146.596 146.596C147.013 146.179 147.248 145.614 147.25 145.025V140.571C147.248 139.982 147.013 139.416 146.596 138.999C146.179 138.582 145.614 138.346 145.025 138.344ZM53.7344 124.984V138.344H51.5066V124.984H43.7143V129.438C44.327 129.438 44.8281 129.941 44.8281 130.551V132.779C44.8275 133.074 44.7099 133.357 44.5012 133.566C44.2924 133.775 44.0095 133.892 43.7143 133.893V138.346H41.4865V133.893C41.1913 133.892 40.9083 133.775 40.6996 133.566C40.4908 133.357 40.3733 133.074 40.3726 132.779V130.551C40.3726 129.941 40.8738 129.438 41.4865 129.438V124.984H33.6941V138.344H31.4688V122.757H53.7367L53.7344 124.984ZM64.8684 8.08925C68.7056 8.09365 72.3843 9.61992 75.0976 12.3332C77.811 15.0465 79.3372 18.7253 79.3416 22.5625C79.3416 30.5425 72.8507 37.0357 64.8684 37.0357C56.886 37.0357 50.3951 30.5425 50.3951 22.5625C50.3989 18.7251 51.925 15.046 54.6384 12.3325C57.3519 9.61909 61.031 8.09302 64.8684 8.08925ZM27.0156 53.7344C27.0225 51.3744 27.9631 49.1131 29.6318 47.4443C31.3006 45.7756 33.5619 44.835 35.9219 44.8281H93.8125C96.1725 44.835 98.4338 45.7756 100.103 47.4443C101.771 49.1131 102.712 51.3744 102.719 53.7344V84.9062H62.6406C61.4605 84.9094 60.3297 85.3796 59.4953 86.214C58.6608 87.0484 58.1906 88.1793 58.1875 89.3594V138.344H55.9598V121.199H29.241V138.344H27.0132V53.7344H27.0156ZM15.884 97.1517C15.884 96.5414 16.3851 96.0379 16.9979 96.0379H19.2256C19.8384 96.0379 20.3395 96.5414 20.3395 97.1517V108.286C20.3383 108.581 20.2205 108.863 20.0119 109.072C19.8032 109.281 19.5207 109.398 19.2256 109.4H16.9955C16.7005 109.398 16.4179 109.281 16.2093 109.072C16.0006 108.863 15.8829 108.581 15.8816 108.286V97.1517H15.884ZM15.884 117.192C15.884 116.582 16.3851 116.078 16.9979 116.078H19.2256C19.8384 116.078 20.3395 116.582 20.3395 117.192V128.326C20.3389 128.621 20.2213 128.904 20.0126 129.113C19.8038 129.322 19.5209 129.439 19.2256 129.44H16.9955C16.7003 129.439 16.4173 129.322 16.2086 129.113C15.9998 128.904 15.8823 128.621 15.8816 128.326V117.192H15.884Z" fill="#383A3C"/>
<path d="M32.5826 82.6809H34.8104C35.1054 82.6797 35.388 82.5619 35.5966 82.3533C35.8052 82.1447 35.923 81.8621 35.9243 81.567V70.433C35.923 70.138 35.8052 69.8554 35.5966 69.6468C35.388 69.4382 35.1054 69.3204 34.8104 69.3192H32.5826C32.2876 69.3204 32.005 69.4382 31.7964 69.6468C31.5878 69.8554 31.47 70.138 31.4688 70.433V81.567C31.4688 82.1774 31.9699 82.6809 32.5826 82.6809ZM41.4889 82.6809H43.7166C44.0117 82.6797 44.2943 82.5619 44.5029 82.3533C44.7115 82.1447 44.8292 81.8621 44.8305 81.567V70.433C44.8292 70.138 44.7115 69.8554 44.5029 69.6468C44.2943 69.4382 44.0117 69.3204 43.7166 69.3192H41.4889C41.1938 69.3204 40.9113 69.4382 40.7026 69.6468C40.494 69.8554 40.3763 70.138 40.375 70.433V81.567C40.375 82.1774 40.8761 82.6809 41.4889 82.6809ZM50.3951 82.6809H52.6229C52.9179 82.6797 53.2005 82.5619 53.4091 82.3533C53.6177 82.1447 53.7355 81.8621 53.7367 81.567V70.433C53.7355 70.138 53.6177 69.8554 53.4091 69.6468C53.2005 69.4382 52.9179 69.3204 52.6229 69.3192H50.3951C50.1001 69.3204 49.8175 69.4382 49.6089 69.6468C49.4003 69.8554 49.2825 70.138 49.2812 70.433V81.567C49.2812 82.1774 49.7824 82.6809 50.3951 82.6809ZM59.3014 82.6809H61.5291C61.8242 82.6797 62.1068 82.5619 62.3154 82.3533C62.524 82.1447 62.6417 81.8621 62.643 81.567V70.433C62.6417 70.138 62.524 69.8554 62.3154 69.6468C62.1068 69.4382 61.8242 69.3204 61.5291 69.3192H59.3014C59.0063 69.3204 58.7238 69.4382 58.5151 69.6468C58.3065 69.8554 58.1888 70.138 58.1875 70.433V81.567C58.1875 82.1774 58.6886 82.6809 59.3014 82.6809ZM68.2076 82.6809H70.4354C70.7304 82.6797 71.013 82.5619 71.2216 82.3533C71.4302 82.1447 71.548 81.8621 71.5492 81.567V70.433C71.548 70.138 71.4302 69.8554 71.2216 69.6468C71.013 69.4382 70.7304 69.3204 70.4354 69.3192H68.2076C67.9126 69.3204 67.63 69.4382 67.4214 69.6468C67.2128 69.8554 67.095 70.138 67.0938 70.433V81.567C67.0938 82.1774 67.5949 82.6809 68.2076 82.6809ZM32.5826 100.493H34.8104C35.1054 100.492 35.388 100.374 35.5966 100.166C35.8052 99.9572 35.923 99.6746 35.9243 99.3795V88.2455C35.923 87.9505 35.8052 87.6679 35.5966 87.4593C35.388 87.2507 35.1054 87.1329 34.8104 87.1317H32.5826C32.2876 87.1329 32.005 87.2507 31.7964 87.4593C31.5878 87.6679 31.47 87.9505 31.4688 88.2455V99.3795C31.4688 99.9899 31.9699 100.493 32.5826 100.493ZM41.4889 100.493H43.7166C44.0117 100.492 44.2943 100.374 44.5029 100.166C44.7115 99.9572 44.8292 99.6746 44.8305 99.3795V88.2455C44.8292 87.9505 44.7115 87.6679 44.5029 87.4593C44.2943 87.2507 44.0117 87.1329 43.7166 87.1317H41.4889C41.1938 87.1329 40.9113 87.2507 40.7026 87.4593C40.494 87.6679 40.3763 87.9505 40.375 88.2455V99.3795C40.375 99.9899 40.8761 100.493 41.4889 100.493ZM50.3951 100.493H52.6229C52.9179 100.492 53.2005 100.374 53.4091 100.166C53.6177 99.9572 53.7355 99.6746 53.7367 99.3795V88.2455C53.7355 87.9505 53.6177 87.6679 53.4091 87.4593C53.2005 87.2507 52.9179 87.1329 52.6229 87.1317H50.3951C50.1001 87.1329 49.8175 87.2507 49.6089 87.4593C49.4003 87.6679 49.2825 87.9505 49.2812 88.2455V99.3795C49.2812 99.9899 49.7824 100.493 50.3951 100.493ZM32.5826 118.306H34.8104C35.1054 118.305 35.388 118.187 35.5966 117.978C35.8052 117.77 35.923 117.487 35.9243 117.192V106.058C35.923 105.763 35.8052 105.48 35.5966 105.272C35.388 105.063 35.1054 104.945 34.8104 104.944H32.5826C32.2876 104.945 32.005 105.063 31.7964 105.272C31.5878 105.48 31.47 105.763 31.4688 106.058V117.192C31.4688 117.802 31.9699 118.306 32.5826 118.306ZM41.4889 118.306H43.7166C44.0117 118.305 44.2943 118.187 44.5029 117.978C44.7115 117.77 44.8292 117.487 44.8305 117.192V106.058C44.8292 105.763 44.7115 105.48 44.5029 105.272C44.2943 105.063 44.0117 104.945 43.7166 104.944H41.4889C41.1938 104.945 40.9113 105.063 40.7026 105.272C40.494 105.48 40.3763 105.763 40.375 106.058V117.192C40.375 117.802 40.8761 118.306 41.4889 118.306ZM50.3951 118.306H52.6229C52.9179 118.305 53.2005 118.187 53.4091 117.978C53.6177 117.77 53.7355 117.487 53.7367 117.192V106.058C53.7355 105.763 53.6177 105.48 53.4091 105.272C53.2005 105.063 52.9179 104.945 52.6229 104.944H50.3951C50.1001 104.945 49.8175 105.063 49.6089 105.272C49.4003 105.48 49.2825 105.763 49.2812 106.058V117.192C49.2812 117.802 49.7824 118.306 50.3951 118.306ZM32.5826 64.8684H34.8104C35.1054 64.8672 35.388 64.7494 35.5966 64.5408C35.8052 64.3322 35.923 64.0496 35.9243 63.7545V52.6205C35.923 52.3255 35.8052 52.0429 35.5966 51.8343C35.388 51.6257 35.1054 51.5079 34.8104 51.5067H32.5826C32.2876 51.5079 32.005 51.6257 31.7964 51.8343C31.5878 52.0429 31.47 52.3255 31.4688 52.6205V63.7545C31.4688 64.3649 31.9699 64.8684 32.5826 64.8684ZM41.4889 64.8684H43.7166C44.0117 64.8672 44.2943 64.7494 44.5029 64.5408C44.7115 64.3322 44.8292 64.0496 44.8305 63.7545V52.6205C44.8292 52.3255 44.7115 52.0429 44.5029 51.8343C44.2943 51.6257 44.0117 51.5079 43.7166 51.5067H41.4889C41.1938 51.5079 40.9113 51.6257 40.7026 51.8343C40.494 52.0429 40.3763 52.3255 40.375 52.6205V63.7545C40.375 64.3649 40.8761 64.8684 41.4889 64.8684ZM50.3951 64.8684H52.6229C52.9179 64.8672 53.2005 64.7494 53.4091 64.5408C53.6177 64.3322 53.7355 64.0496 53.7367 63.7545V52.6205C53.7355 52.3255 53.6177 52.0429 53.4091 51.8343C53.2005 51.6257 52.9179 51.5079 52.6229 51.5067H50.3951C50.1001 51.5079 49.8175 51.6257 49.6089 51.8343C49.4003 52.0429 49.2825 52.3255 49.2812 52.6205V63.7545C49.2812 64.3649 49.7824 64.8684 50.3951 64.8684ZM59.3014 64.8684H61.5291C61.8242 64.8672 62.1068 64.7494 62.3154 64.5408C62.524 64.3322 62.6417 64.0496 62.643 63.7545V52.6205C62.6417 52.3255 62.524 52.0429 62.3154 51.8343C62.1068 51.6257 61.8242 51.5079 61.5291 51.5067H59.3014C59.0063 51.5079 58.7238 51.6257 58.5151 51.8343C58.3065 52.0429 58.1888 52.3255 58.1875 52.6205V63.7545C58.1875 64.3649 58.6886 64.8684 59.3014 64.8684ZM68.2076 64.8684H70.4354C70.7304 64.8672 71.013 64.7494 71.2216 64.5408C71.4302 64.3322 71.548 64.0496 71.5492 63.7545V52.6205C71.548 52.3255 71.4302 52.0429 71.2216 51.8343C71.013 51.6257 70.7304 51.5079 70.4354 51.5067H68.2076C67.9126 51.5079 67.63 51.6257 67.4214 51.8343C67.2128 52.0429 67.095 52.3255 67.0938 52.6205V63.7545C67.0938 64.3649 67.5949 64.8684 68.2076 64.8684ZM77.1139 82.6809H79.3416C79.6367 82.6797 79.9193 82.5619 80.1279 82.3533C80.3365 82.1447 80.4542 81.8621 80.4555 81.567V70.433C80.4542 70.138 80.3365 69.8554 80.1279 69.6468C79.9193 69.4382 79.6367 69.3204 79.3416 69.3192H77.1139C76.8188 69.3204 76.5362 69.4382 76.3276 69.6468C76.119 69.8554 76.0013 70.138 76 70.433V81.567C76 82.1774 76.5011 82.6809 77.1139 82.6809ZM77.1139 64.8684H79.3416C79.6367 64.8672 79.9193 64.7494 80.1279 64.5408C80.3365 64.3322 80.4542 64.0496 80.4555 63.7545V52.6205C80.4542 52.3255 80.3365 52.0429 80.1279 51.8343C79.9193 51.6257 79.6367 51.5079 79.3416 51.5067H77.1139C76.8188 51.5079 76.5362 51.6257 76.3276 51.8343C76.119 52.0429 76.0013 52.3255 76 52.6205V63.7545C76 64.3649 76.5011 64.8684 77.1139 64.8684ZM86.0201 82.6809H88.2479C88.5429 82.6797 88.8255 82.5619 89.0341 82.3533C89.2427 82.1447 89.3605 81.8621 89.3617 81.567V70.433C89.3605 70.138 89.2427 69.8554 89.0341 69.6468C88.8255 69.4382 88.5429 69.3204 88.2479 69.3192H86.0201C85.7251 69.3204 85.4425 69.4382 85.2339 69.6468C85.0253 69.8554 84.9075 70.138 84.9062 70.433V81.567C84.9062 82.1774 85.4074 82.6809 86.0201 82.6809ZM86.0201 64.8684H88.2479C88.5429 64.8672 88.8255 64.7494 89.0341 64.5408C89.2427 64.3322 89.3605 64.0496 89.3617 63.7545V52.6205C89.3605 52.3255 89.2427 52.0429 89.0341 51.8343C88.8255 51.6257 88.5429 51.5079 88.2479 51.5067H86.0201C85.7251 51.5079 85.4425 51.6257 85.2339 51.8343C85.0253 52.0429 84.9075 52.3255 84.9062 52.6205V63.7545C84.9062 64.3649 85.4074 64.8684 86.0201 64.8684ZM94.9264 82.6809H97.1541C97.4492 82.6797 97.7318 82.5619 97.9404 82.3533C98.149 82.1447 98.2667 81.8621 98.268 81.567V70.433C98.2667 70.138 98.149 69.8554 97.9404 69.6468C97.7318 69.4382 97.4492 69.3204 97.1541 69.3192H94.9264C94.6313 69.3204 94.3487 69.4382 94.1401 69.6468C93.9315 69.8554 93.8138 70.138 93.8125 70.433V81.567C93.8125 82.1774 94.3136 82.6809 94.9264 82.6809ZM94.9264 64.8684H97.1541C97.4492 64.8672 97.7318 64.7494 97.9404 64.5408C98.149 64.3322 98.2667 64.0496 98.268 63.7545V52.6205C98.2667 52.3255 98.149 52.0429 97.9404 51.8343C97.7318 51.6257 97.4492 51.5079 97.1541 51.5067H94.9264C94.6313 51.5079 94.3487 51.6257 94.1401 51.8343C93.9315 52.0429 93.8138 52.3255 93.8125 52.6205V63.7545C93.8125 64.3649 94.3136 64.8684 94.9264 64.8684ZM61.1562 26.2747V31.8417C61.1562 32.8629 61.9946 33.6965 63.0111 33.6965H66.7232C67.2146 33.6947 67.6853 33.4986 68.0328 33.1512C68.3802 32.8037 68.5762 32.333 68.5781 31.8417V26.2747H74.1451C75.1664 26.2747 76 25.4387 76 24.4198V20.7077C75.9987 20.2161 75.8029 19.745 75.4553 19.3974C75.1078 19.0499 74.6367 18.854 74.1451 18.8528H68.5781V13.2858C68.5762 12.7944 68.3802 12.3237 68.0328 11.9763C67.6853 11.6288 67.2146 11.4328 66.7232 11.4309H63.0111C62.5198 11.4328 62.0491 11.6288 61.7016 11.9763C61.3542 12.3237 61.1581 12.7944 61.1562 13.2858V18.8528H55.5893C55.0977 18.854 54.6266 19.0499 54.279 19.3974C53.9315 19.745 53.7356 20.2161 53.7344 20.7077V24.4198C53.7344 25.441 54.5704 26.2747 55.5893 26.2747H61.1562Z" fill="#383A3C"/>
</svg>
