<svg width="111" height="127" viewBox="0 0 111 127" fill="none" xmlns="http://www.w3.org/2000/svg">
<path fill-rule="evenodd" clip-rule="evenodd" d="M24.2502 13.1143C24.2502 11.5928 39.9341 0.956055 55.5068 0.956055C71.0796 0.956055 86.7634 11.5962 86.7634 13.1143C86.7634 18.5334 86.1869 21.7432 85.7007 23.4905C85.3777 24.6368 84.3046 25.2725 83.1134 25.2725H27.9003C26.7091 25.2725 25.6359 24.6368 25.3129 23.4905C24.8267 21.7432 24.2502 18.5334 24.2502 13.1143ZM50.2974 11.3774C49.3763 11.3774 48.4929 11.7434 47.8416 12.3948C47.1903 13.0463 46.8244 13.9299 46.8244 14.8512C46.8244 15.7725 47.1903 16.6561 47.8416 17.3075C48.4929 17.959 49.3763 18.325 50.2974 18.325H60.7163C61.6374 18.325 62.5207 17.959 63.172 17.3075C63.8233 16.6561 64.1892 15.7725 64.1892 14.8512C64.1892 13.9299 63.8233 13.0463 63.172 12.3948C62.5207 11.7434 61.6374 11.3774 60.7163 11.3774H50.2974ZM27.8552 46.8725C16.2902 43.2945 19.2075 36.9027 23.6181 32.2201H88.361C91.8895 36.7291 93.7823 42.8116 83.1168 46.4522C83.5528 50.322 83.1707 54.2403 81.9953 57.953C80.82 61.6657 78.8776 65.0898 76.2942 68.0034C73.7108 70.9169 70.544 73.2549 66.9992 74.8656C63.4544 76.4763 59.6107 77.3238 55.7174 77.3531C51.8241 77.3825 47.9681 76.5931 44.3994 75.036C40.8307 73.479 37.629 71.1891 35.002 68.3148C32.3749 65.4406 30.3812 62.0461 29.15 58.3516C27.9188 54.6571 27.4776 50.745 27.8552 46.869V46.8725ZM54.5622 49.589C63.7377 49.589 70.8504 49.1027 76.3029 48.2551C76.4821 51.0873 76.0812 53.9263 75.1248 56.5981C74.1683 59.2699 72.6764 61.7181 70.7406 63.7928C68.8047 65.8675 66.4657 67.5249 63.8668 68.6635C61.2679 69.802 58.464 70.3977 55.6268 70.4141C52.7896 70.4304 49.979 69.8671 47.3672 68.7585C44.7554 67.65 42.3974 66.0196 40.4378 63.9674C38.4781 61.9151 36.9582 59.4842 35.971 56.8236C34.9838 54.1631 34.5503 51.3289 34.6969 48.4947C39.7778 49.1964 46.2896 49.589 54.5622 49.589ZM84.7387 100.306C81.5973 95.404 77.2734 91.371 72.1651 88.5786C67.0568 85.7862 61.3282 84.324 55.5068 84.3268C49.683 84.323 43.9519 85.7854 38.8416 88.5791C33.7313 91.3729 29.4061 95.4082 26.2645 100.313C25.0986 98.517 23.308 97.2173 21.2392 96.6657L14.5294 94.8697C12.3055 94.2734 9.93575 94.585 7.9415 95.7361C5.94725 96.8872 4.49178 98.7835 3.89522 101.008L1.20021 111.075C0.905049 112.177 0.829739 113.326 0.978581 114.456C1.12742 115.587 1.4975 116.678 2.06768 117.665C2.63786 118.653 3.39697 119.519 4.30167 120.213C5.20637 120.907 6.23893 121.417 7.34039 121.712L14.0467 123.511C15.1747 123.815 16.3526 123.887 17.5093 123.724C18.666 123.56 19.7777 123.164 20.7773 122.559C20.78 123.481 21.1486 124.363 21.8018 125.013C22.4551 125.662 23.3396 126.025 24.2606 126.023C25.1817 126.02 26.064 125.651 26.7133 124.998C27.3627 124.344 27.7259 123.46 27.7232 122.538V119.065C27.7232 117.741 27.8169 116.438 27.9941 115.164L46.0673 120.009C46.9063 121.806 48.24 123.325 49.912 124.39C51.584 125.454 53.5248 126.02 55.5068 126.02C57.4888 126.02 59.4297 125.454 61.1017 124.39C62.7737 123.325 64.1074 121.806 64.9463 120.009L83.0196 115.164C83.1967 116.438 83.2905 117.741 83.2905 119.065V122.538C83.2859 123.46 83.6474 124.345 84.2954 125C84.9435 125.655 85.825 126.025 86.7461 126.03C87.6672 126.034 88.5524 125.673 89.2069 125.024C89.8615 124.376 90.2318 123.494 90.2364 122.573C92.1813 123.74 94.5845 124.147 96.9496 123.511L103.659 121.715C104.761 121.42 105.793 120.911 106.698 120.217C107.603 119.522 108.362 118.657 108.932 117.669C109.502 116.681 109.872 115.591 110.021 114.46C110.17 113.329 110.095 112.18 109.8 111.078L107.101 101.011C106.505 98.787 105.049 96.8907 103.055 95.7396C101.061 94.5885 98.6908 94.2768 96.4669 94.8732L89.7571 96.6691C87.6931 97.2189 85.9055 98.5166 84.7387 100.306ZM29.8174 108.459C31.6934 103.921 34.7372 99.9602 38.6393 96.9797C42.5414 93.9992 47.1628 92.105 52.0339 91.4897V105.764C50.4775 106.316 49.0742 107.229 47.9392 108.429C46.8042 109.629 45.9699 111.081 45.5047 112.666L29.8174 108.463V108.459ZM81.1963 108.459C79.3199 103.921 76.2761 99.9606 72.3741 96.9801C68.472 93.9997 63.8507 92.1054 58.9798 91.4897V105.764C62.1193 106.875 64.5712 109.446 65.5089 112.666L81.1963 108.463V108.459ZM55.5068 119.065C56.4279 119.065 57.3113 118.699 57.9626 118.047C58.6139 117.396 58.9798 116.512 58.9798 115.591C58.9798 114.67 58.6139 113.786 57.9626 113.134C57.3113 112.483 56.4279 112.117 55.5068 112.117C54.5857 112.117 53.7024 112.483 53.0511 113.134C52.3998 113.786 52.0339 114.67 52.0339 115.591C52.0339 116.512 52.3998 117.396 53.0511 118.047C53.7024 118.699 54.5857 119.065 55.5068 119.065Z" fill="#383A3C"/>
</svg>
