<svg width="231" height="152" viewBox="0 0 231 152" fill="none" xmlns="http://www.w3.org/2000/svg">
<rect width="231" height="152" fill="#383A3C"/>
<path fill-rule="evenodd" clip-rule="evenodd" d="M179.135 23C178.03 23 177.135 23.8954 177.135 25V41.683C177.135 41.7176 177.136 41.752 177.138 41.7862V96.9769C177.138 97.5292 176.69 97.9769 176.138 97.9769H123.844C123.292 97.9769 122.844 98.4246 122.844 98.9769V102.148C122.844 102.7 123.292 103.148 123.844 103.148H182.308L182.308 103.148H215.918C215.918 103.148 215.918 103.147 215.918 103.147C215.918 103.147 215.918 103.147 215.919 103.147H222.673C223.225 103.147 223.673 102.699 223.673 102.147V87.049C223.673 85.9445 222.778 85.049 221.673 85.049C221.35 85.049 221.088 84.787 221.088 84.4638V71.5367C221.088 70.4322 220.192 69.5367 219.088 69.5367H216.918C216.366 69.5367 215.918 69.089 215.918 68.5367V37.7571C215.918 33.8911 212.784 30.7571 208.918 30.7571H183.306C182.754 30.7571 182.306 30.3094 182.306 29.7571V25C182.306 23.8954 181.41 23 180.306 23H179.135ZM195.235 42.098C195.235 41.5458 195.682 41.098 196.235 41.098H207.162C207.714 41.098 208.162 41.5458 208.162 42.098V58.1956C208.162 58.7479 207.714 59.1956 207.162 59.1956H196.235C195.682 59.1956 195.235 58.7479 195.235 58.1956V42.098ZM45.2811 117.364C45.2811 123.79 40.0723 128.998 33.6469 128.998C27.2216 128.998 22.0128 123.79 22.0128 117.364C22.0128 110.939 27.2216 105.73 33.6469 105.73C40.0723 105.73 45.2811 110.939 45.2811 117.364ZM40.1102 117.364C40.1102 120.934 37.2164 123.827 33.6467 123.827C30.0771 123.827 27.1833 120.934 27.1833 117.364C27.1833 113.794 30.0771 110.901 33.6467 110.901C37.2164 110.901 40.1102 113.794 40.1102 117.364ZM33.6461 121.243C35.7879 121.243 37.5241 119.507 37.5241 117.365C37.5241 115.223 35.7879 113.487 33.6461 113.487C31.5043 113.487 29.768 115.223 29.768 117.365C29.768 119.507 31.5043 121.243 33.6461 121.243ZM71.1351 117.365C71.1351 123.791 65.9263 128.999 59.5009 128.999C53.0756 128.999 47.8668 123.791 47.8668 117.365C47.8668 110.94 53.0756 105.731 59.5009 105.731C65.9263 105.731 71.1351 110.94 71.1351 117.365ZM65.9642 117.365C65.9642 120.935 63.0704 123.829 59.5007 123.829C55.9311 123.829 53.0373 120.935 53.0373 117.365C53.0373 113.795 55.9311 110.902 59.5007 110.902C63.0704 110.902 65.9642 113.795 65.9642 117.365ZM59.4997 121.243C61.6415 121.243 63.3777 119.507 63.3777 117.365C63.3777 115.223 61.6415 113.487 59.4997 113.487C57.3579 113.487 55.6216 115.223 55.6216 117.365C55.6216 119.507 57.3579 121.243 59.4997 121.243ZM87.9399 128.999C94.3653 128.999 99.5741 123.791 99.5741 117.365C99.5741 110.94 94.3653 105.731 87.9399 105.731C81.5145 105.731 76.3057 110.94 76.3057 117.365C76.3057 123.791 81.5145 128.999 87.9399 128.999ZM87.9397 123.829C91.5094 123.829 94.4031 120.935 94.4031 117.365C94.4031 113.795 91.5094 110.902 87.9397 110.902C84.3701 110.902 81.4763 113.795 81.4763 117.365C81.4763 120.935 84.3701 123.829 87.9397 123.829ZM91.817 117.365C91.817 119.507 90.0807 121.243 87.9389 121.243C85.7971 121.243 84.0609 119.507 84.0609 117.365C84.0609 115.223 85.7971 113.487 87.9389 113.487C90.0807 113.487 91.817 115.223 91.817 117.365ZM148.696 117.364C148.696 123.79 143.487 128.998 137.062 128.998C130.636 128.998 125.427 123.79 125.427 117.364C125.427 110.939 130.636 105.73 137.062 105.73C143.487 105.73 148.696 110.939 148.696 117.364ZM143.525 117.364C143.525 120.934 140.631 123.827 137.061 123.827C133.492 123.827 130.598 120.934 130.598 117.364C130.598 113.794 133.492 110.901 137.061 110.901C140.631 110.901 143.525 113.794 143.525 117.364ZM137.061 121.243C139.203 121.243 140.939 119.507 140.939 117.365C140.939 115.223 139.203 113.487 137.061 113.487C134.919 113.487 133.183 115.223 133.183 117.365C133.183 119.507 134.919 121.243 137.061 121.243ZM193.938 128.999C200.363 128.999 205.572 123.791 205.572 117.365C205.572 110.94 200.363 105.731 193.938 105.731C187.512 105.731 182.304 110.94 182.304 117.365C182.304 123.791 187.512 128.999 193.938 128.999ZM193.938 123.829C197.507 123.829 200.401 120.935 200.401 117.365C200.401 113.795 197.507 110.902 193.938 110.902C190.368 110.902 187.474 113.795 187.474 117.365C187.474 120.935 190.368 123.829 193.938 123.829ZM197.816 117.365C197.816 119.507 196.08 121.243 193.938 121.243C191.797 121.243 190.06 119.507 190.06 117.365C190.06 115.223 191.797 113.487 193.938 113.487C196.08 113.487 197.816 115.223 197.816 117.365ZM17.1084 30.7558H11.6702V31.4116L11.4946 30.7561L6.5 32.0944L11.6702 51.3898V97.9758H11.6699V103.147H109.557V103.146L109.558 103.147L128.35 85.039L163.939 84.894V84.9195L164.016 84.8937L168.902 84.8738L169.378 85.0496L169.376 84.7881V79.8784H169.347L169.191 54.0252H163.939V79.8784H126.053L126.057 79.8869L107.033 97.9758H17.1084V30.7558Z" fill="#FCFEFF"/>
</svg>
