<svg width="232" height="152" viewBox="0 0 232 152" fill="none" xmlns="http://www.w3.org/2000/svg">
<rect width="231" height="152" transform="translate(0.5)" fill="#383A3C"/>
<path fill-rule="evenodd" clip-rule="evenodd" d="M166.78 27C166.78 25.8954 167.675 25 168.78 25H169.756C170.86 25 171.756 25.8954 171.756 27V31.4635C171.756 32.0158 172.203 32.4635 172.756 32.4635H197.097C200.963 32.4635 204.097 35.5975 204.097 39.4635V68.7805C204.097 69.3328 204.545 69.7805 205.097 69.7805H207.073C208.178 69.7805 209.073 70.676 209.073 71.7805V84.2196C209.073 84.4889 209.292 84.7071 209.561 84.7071C210.665 84.7071 211.561 85.6025 211.561 86.7071V101.122C211.561 101.674 211.113 102.122 210.561 102.122H209.073L209.073 102.122L209.073 102.122H201.61L171.756 102.122L171.756 102.122H150.365C149.813 102.122 149.365 101.674 149.365 101.122V98.1464C149.365 97.5942 149.813 97.1464 150.365 97.1464H165.78C166.332 97.1464 166.78 96.6987 166.78 96.1464V42.9172L166.78 42.9024V27ZM185.196 42.4144C184.643 42.4144 184.196 42.8621 184.196 43.4144V58.829C184.196 59.3813 184.643 59.829 185.196 59.829H195.635C196.187 59.829 196.635 59.3813 196.635 58.829V43.4144C196.635 42.8621 196.187 42.4144 195.635 42.4144H185.196ZM24 36.4636H140.39V98.122H24V36.4636ZM20 32.4636H24H140.39H144.39V36.4636V98.122V102.122H140.39H24H20V98.122V36.4636V32.4636ZM33.6825 126.999C39.8654 126.999 44.8776 121.987 44.8776 115.804C44.8776 109.621 39.8654 104.609 33.6825 104.609C27.4996 104.609 22.4874 109.621 22.4874 115.804C22.4874 121.987 27.4996 126.999 33.6825 126.999ZM33.683 122.024C37.118 122.024 39.9025 119.239 39.9025 115.804C39.9025 112.369 37.118 109.585 33.683 109.585C30.2481 109.585 27.4635 112.369 27.4635 115.804C27.4635 119.239 30.2481 122.024 33.683 122.024ZM37.4144 115.805C37.4144 117.866 35.7437 119.537 33.6827 119.537C31.6218 119.537 29.951 117.866 29.951 115.805C29.951 113.744 31.6218 112.073 33.6827 112.073C35.7437 112.073 37.4144 113.744 37.4144 115.805ZM69.7568 115.805C69.7568 121.988 64.7446 127 58.5617 127C52.3788 127 47.3666 121.988 47.3666 115.805C47.3666 109.622 52.3788 104.61 58.5617 104.61C64.7446 104.61 69.7568 109.622 69.7568 115.805ZM64.7817 115.805C64.7817 119.24 61.9971 122.024 58.5622 122.024C55.1272 122.024 52.3427 119.24 52.3427 115.805C52.3427 112.37 55.1272 109.585 58.5622 109.585C61.9971 109.585 64.7817 112.37 64.7817 115.805ZM58.5612 119.536C60.6221 119.536 62.2929 117.866 62.2929 115.805C62.2929 113.744 60.6221 112.073 58.5612 112.073C56.5002 112.073 54.8295 113.744 54.8295 115.805C54.8295 117.866 56.5002 119.536 58.5612 119.536ZM128.218 127C134.401 127 139.413 121.988 139.413 115.805C139.413 109.622 134.401 104.61 128.218 104.61C122.035 104.61 117.023 109.622 117.023 115.805C117.023 121.988 122.035 127 128.218 127ZM128.219 122.024C131.654 122.024 134.438 119.24 134.438 115.805C134.438 112.37 131.654 109.585 128.219 109.585C124.784 109.585 121.999 112.37 121.999 115.805C121.999 119.24 124.784 122.024 128.219 122.024ZM131.951 115.805C131.951 117.866 130.28 119.536 128.219 119.536C126.158 119.536 124.487 117.866 124.487 115.805C124.487 113.744 126.158 112.073 128.219 112.073C130.28 112.073 131.951 113.744 131.951 115.805ZM194.146 115.805C194.146 121.988 189.134 127.001 182.951 127.001C176.768 127.001 171.756 121.988 171.756 115.805C171.756 109.623 176.768 104.61 182.951 104.61C189.134 104.61 194.146 109.623 194.146 115.805ZM189.171 115.805C189.171 119.24 186.386 122.025 182.951 122.025C179.516 122.025 176.732 119.24 176.732 115.805C176.732 112.37 179.516 109.586 182.951 109.586C186.386 109.586 189.171 112.37 189.171 115.805ZM182.952 119.537C185.013 119.537 186.683 117.866 186.683 115.805C186.683 113.744 185.013 112.074 182.952 112.074C180.891 112.074 179.22 113.744 179.22 115.805C179.22 117.866 180.891 119.537 182.952 119.537ZM32.4397 49.3907C32.4397 48.2861 33.3351 47.3907 34.4397 47.3907H47.8543C48.9589 47.3907 49.8543 48.2861 49.8543 49.3907V52.8541C49.8543 53.9587 48.9589 54.8541 47.8543 54.8541H44.8786V48.6347C44.8786 47.9477 44.3217 47.3908 43.6347 47.3908C42.9477 47.3908 42.3908 47.9477 42.3908 48.6347V54.8541H39.9037V48.6347C39.9037 47.9477 39.3468 47.3908 38.6598 47.3908C37.9728 47.3908 37.4159 47.9477 37.4159 48.6347V54.8541H34.4397C33.3351 54.8541 32.4397 53.9587 32.4397 52.8541V49.3907ZM37.4159 54.8541L37.416 54.8542H39.9036L39.9037 54.8541H37.4159ZM42.3908 54.8541L42.3909 54.8542H44.8785L44.8786 54.8541H42.3908ZM37.4159 74.7558L37.4159 74.7559H34.4397C33.3351 74.7559 32.4397 75.6513 32.4397 76.7559V80.2193C32.4397 81.3238 33.3351 82.2193 34.4397 82.2193H47.8543C48.9589 82.2193 49.8543 81.3238 49.8543 80.2193V76.7559C49.8543 75.6513 48.9589 74.7559 47.8543 74.7559H44.8786L44.8786 74.7558H42.3909L42.3908 74.7559H39.9037L39.9036 74.7558H37.4159ZM42.3908 74.7559H44.8786V80.9753C44.8786 81.6623 44.3217 82.2192 43.6347 82.2192C42.9477 82.2192 42.3908 81.6623 42.3908 80.9753V74.7559ZM39.9037 74.7559V80.9753C39.9037 81.6623 39.3468 82.2192 38.6598 82.2192C37.9728 82.2192 37.4159 81.6623 37.4159 80.9753V74.7559H39.9037ZM87.171 49.3902C87.171 48.2856 88.0665 47.3902 89.171 47.3902H102.586C103.69 47.3902 104.586 48.2856 104.586 49.3902V52.8536C104.586 53.9581 103.69 54.8536 102.586 54.8536H99.6099V48.6341C99.6099 47.9471 99.053 47.3902 98.366 47.3902C97.679 47.3902 97.1221 47.9471 97.1221 48.6341V54.8536H94.6349V48.6341C94.6349 47.9471 94.078 47.3902 93.391 47.3902C92.704 47.3902 92.1471 47.9471 92.1471 48.6341V54.8536H89.171C88.0665 54.8536 87.171 53.9581 87.171 52.8536V49.3902ZM102.586 74.7559H99.6099V80.9753C99.6099 81.6623 99.053 82.2192 98.366 82.2192C97.679 82.2192 97.1221 81.6623 97.1221 80.9753V74.7559H94.6349V80.9753C94.6349 81.6623 94.078 82.2192 93.391 82.2192C92.704 82.2192 92.1471 81.6623 92.1471 80.9753V74.7559H89.171C88.0665 74.7559 87.171 75.6513 87.171 76.7559V80.2193C87.171 81.3238 88.0665 82.2193 89.171 82.2193H102.586C103.69 82.2193 104.586 81.3238 104.586 80.2193V76.7559C104.586 75.6513 103.69 74.7559 102.586 74.7559ZM59.8049 49.3908C59.8049 48.2862 60.7003 47.3908 61.8049 47.3908H62.781C63.8856 47.3908 64.781 48.2862 64.781 49.3908V52.8542C64.781 53.9588 63.8856 54.8542 62.781 54.8542H61.8049C60.7003 54.8542 59.8049 53.9588 59.8049 52.8542V49.3908ZM68.5124 54.8542C67.8256 54.8542 67.2688 54.2975 67.2688 53.6106V48.6344C67.2688 47.9476 67.8256 47.3908 68.5124 47.3908C69.1992 47.3908 69.756 47.9476 69.756 48.6344V53.6106C69.756 54.2975 69.1992 54.8542 68.5124 54.8542ZM72.2438 52.8542C72.2438 53.9588 73.1392 54.8542 74.2438 54.8542H75.2195C76.3241 54.8542 77.2195 53.9588 77.2195 52.8542V49.3908C77.2195 48.2862 76.3241 47.3908 75.2195 47.3908H74.2438C73.1392 47.3908 72.2438 48.2862 72.2438 49.3908V52.8542ZM61.8049 74.7558C60.7003 74.7558 59.8049 75.6512 59.8049 76.7558V80.2192C59.8049 81.3238 60.7003 82.2192 61.8049 82.2192H62.781C63.8856 82.2192 64.781 81.3238 64.781 80.2192V76.7558C64.781 75.6512 63.8856 74.7558 62.781 74.7558H61.8049ZM67.2688 80.9756C67.2688 81.6624 67.8256 82.2192 68.5124 82.2192C69.1992 82.2192 69.756 81.6624 69.756 80.9756V75.9994C69.756 75.3126 69.1992 74.7558 68.5124 74.7558C67.8256 74.7558 67.2688 75.3126 67.2688 75.9994V80.9756ZM74.2438 82.2192C73.1392 82.2192 72.2438 81.3238 72.2438 80.2192V76.7558C72.2438 75.6512 73.1392 74.7558 74.2438 74.7558H75.2195C76.3241 74.7558 77.2195 75.6512 77.2195 76.7558V80.2192C77.2195 81.3238 76.3241 82.2192 75.2195 82.2192H74.2438ZM114.537 49.3902C114.537 48.2856 115.433 47.3902 116.537 47.3902H117.513C118.618 47.3902 119.513 48.2856 119.513 49.3902V52.8536C119.513 53.9581 118.618 54.8536 117.513 54.8536H116.537C115.433 54.8536 114.537 53.9581 114.537 52.8536V49.3902ZM123.245 54.8536C122.558 54.8536 122.001 54.2968 122.001 53.61V48.6337C122.001 47.9469 122.558 47.3902 123.245 47.3902C123.931 47.3902 124.488 47.9469 124.488 48.6337V53.61C124.488 54.2968 123.931 54.8536 123.245 54.8536ZM126.976 52.8536C126.976 53.9581 127.871 54.8536 128.976 54.8536H129.952C131.056 54.8536 131.952 53.9581 131.952 52.8536V49.3902C131.952 48.2856 131.056 47.3902 129.952 47.3902H128.976C127.871 47.3902 126.976 48.2856 126.976 49.3902V52.8536ZM116.537 74.7558C115.433 74.7558 114.537 75.6512 114.537 76.7558V80.2192C114.537 81.3238 115.433 82.2192 116.537 82.2192H117.513C118.618 82.2192 119.513 81.3238 119.513 80.2192V76.7558C119.513 75.6512 118.618 74.7558 117.513 74.7558H116.537ZM122.001 80.9756C122.001 81.6624 122.558 82.2192 123.245 82.2192C123.931 82.2192 124.488 81.6624 124.488 80.9756V75.9994C124.488 75.3126 123.931 74.7558 123.245 74.7558C122.558 74.7558 122.001 75.3126 122.001 75.9994V80.9756ZM128.976 82.2192C127.871 82.2192 126.976 81.3238 126.976 80.2192V76.7558C126.976 75.6512 127.871 74.7558 128.976 74.7558H129.952C131.056 74.7558 131.952 75.6512 131.952 76.7558V80.2192C131.952 81.3238 131.056 82.2192 129.952 82.2192H128.976Z" fill="#FCFEFF"/>
</svg>
