<svg width="231" height="152" viewBox="0 0 231 152" fill="none" xmlns="http://www.w3.org/2000/svg">
<rect width="231" height="152" fill="#383A3C"/>
<path fill-rule="evenodd" clip-rule="evenodd" d="M122.738 10.4641L43.505 56.2096C31.0694 63.3893 26.8086 79.2906 33.9883 91.7262L46.517 113.426L134.411 62.681C142.063 58.2628 144.685 48.4773 140.267 40.8246L122.738 10.4641ZM41.505 52.7455C27.1562 61.0297 22.24 79.3774 30.5242 93.7262L43.0529 115.426L45.0529 118.891L47.1576 117.675V120.495C47.1576 121.047 47.6053 121.495 48.1576 121.495H168.48L168.48 121.495L168.48 121.495H198.236L198.236 121.495L198.236 121.495H204.103C204.655 121.495 205.103 121.047 205.103 120.495V105.37C205.103 104.265 204.208 103.37 203.103 103.37C202.944 103.37 202.815 103.241 202.815 103.082V89.8335C202.815 88.729 201.919 87.8335 200.815 87.8335H199.238C198.686 87.8335 198.238 87.3858 198.238 86.8335V55.994C198.238 52.128 195.104 48.994 191.238 48.994H169.476C168.924 48.994 168.476 48.5462 168.476 47.994V43.226C168.476 42.1214 167.581 41.226 166.476 41.226H165.898C164.793 41.226 163.898 42.1214 163.898 43.226V59.9404C163.898 59.9827 163.899 60.0246 163.902 60.0662V115.316C163.902 115.869 163.454 116.316 162.902 116.316H49.5118L136.411 66.1451C145.977 60.6223 149.254 48.3905 143.731 38.8246L126.203 8.4641L124.203 5L120.738 7L41.505 52.7455ZM70.4567 135.736C70.4567 142.171 65.24 147.388 58.8048 147.388C52.3697 147.388 47.1529 142.171 47.1529 135.736C47.1529 129.301 52.3697 124.084 58.8048 124.084C65.24 124.084 70.4567 129.301 70.4567 135.736ZM65.2777 135.736C65.2777 139.311 62.3795 142.209 58.8044 142.209C55.2293 142.209 52.3312 139.311 52.3312 135.736C52.3312 132.161 55.2293 129.262 58.8044 129.262C62.3795 129.262 65.2777 132.161 65.2777 135.736ZM58.8043 139.62C60.9494 139.62 62.6883 137.881 62.6883 135.736C62.6883 133.59 60.9494 131.852 58.8043 131.852C56.6592 131.852 54.9203 133.59 54.9203 135.736C54.9203 137.881 56.6592 139.62 58.8043 139.62ZM84.6977 147.388C91.1329 147.388 96.3496 142.171 96.3496 135.736C96.3496 129.301 91.1329 124.084 84.6977 124.084C78.2625 124.084 73.0458 129.301 73.0458 135.736C73.0458 142.171 78.2625 147.388 84.6977 147.388ZM84.6974 142.209C88.2725 142.209 91.1707 139.311 91.1707 135.736C91.1707 132.16 88.2725 129.262 84.6974 129.262C81.1224 129.262 78.2242 132.16 78.2242 135.736C78.2242 139.311 81.1224 142.209 84.6974 142.209ZM88.5809 135.736C88.5809 137.881 86.842 139.62 84.697 139.62C82.5519 139.62 80.813 137.881 80.813 135.736C80.813 133.59 82.5519 131.852 84.697 131.852C86.842 131.852 88.5809 133.59 88.5809 135.736ZM192.156 135.736C192.156 142.171 186.939 147.388 180.504 147.388C174.069 147.388 168.852 142.171 168.852 135.736C168.852 129.301 174.069 124.084 180.504 124.084C186.939 124.084 192.156 129.301 192.156 135.736ZM186.977 135.736C186.977 139.311 184.079 142.209 180.504 142.209C176.929 142.209 174.031 139.311 174.031 135.736C174.031 132.16 176.929 129.262 180.504 129.262C184.079 129.262 186.977 132.16 186.977 135.736ZM180.502 139.62C182.647 139.62 184.386 137.881 184.386 135.736C184.386 133.59 182.647 131.852 180.502 131.852C178.357 131.852 176.618 133.59 176.618 135.736C176.618 137.881 178.357 139.62 180.502 139.62ZM180.925 59.3513C180.372 59.3513 179.925 59.799 179.925 60.3513V76.4765C179.925 77.0288 180.372 77.4765 180.925 77.4765H190.37C190.922 77.4765 191.37 77.0288 191.37 76.4765V60.3513C191.37 59.799 190.922 59.3513 190.37 59.3513H180.925Z" fill="#FCFEFF"/>
</svg>
