<svg width="231" height="152" viewBox="0 0 231 152" fill="none" xmlns="http://www.w3.org/2000/svg">
<rect width="231" height="152" fill="#383A3C"/>
<path fill-rule="evenodd" clip-rule="evenodd" d="M145.228 23.9995C145.228 22.8949 146.123 21.9995 147.228 21.9995H148.293C149.397 21.9995 150.293 22.8949 150.293 23.9995V28.6829C150.293 29.2352 150.74 29.6829 151.293 29.6829H176.214C180.08 29.6829 183.214 32.8169 183.214 36.6829V67.0977C183.214 67.65 183.662 68.0977 184.214 68.0977H186.279C187.383 68.0977 188.279 68.9931 188.279 70.0977V82.9304C188.279 83.2248 188.517 83.4635 188.812 83.4635C189.916 83.4635 190.812 84.3589 190.812 85.4635V100.39C190.812 100.943 190.364 101.39 189.812 101.39L188.279 101.39H180.681L180.681 101.39L180.681 101.39H145.227L145.227 101.39L145.227 101.39H128.5C127.948 101.39 127.5 100.942 127.5 100.39V97.268C127.5 96.7157 127.948 96.268 128.5 96.268H144.227C144.78 96.268 145.227 95.8203 145.227 95.268V29.683L145.227 29.6829L145.228 29.6828V23.9995ZM163.954 39.9268C163.402 39.9268 162.954 40.3745 162.954 40.9268V56.8536C162.954 57.4059 163.402 57.8536 163.954 57.8536H174.616C175.169 57.8536 175.616 57.4059 175.616 56.8536V40.9268C175.616 40.3745 175.169 39.9268 174.616 39.9268H163.954ZM121.756 36.3901H46V97.3657H121.756V36.3901ZM46 32.3901H42V36.3901V97.3657V101.366H46H121.756H125.756V97.3657V36.3901V32.3901H121.756H46ZM70.6328 114.915C70.6328 121.037 65.6697 126.001 59.5474 126.001C53.4251 126.001 48.4621 121.037 48.4621 114.915C48.4621 108.793 53.4251 103.83 59.5474 103.83C65.6697 103.83 70.6328 108.793 70.6328 114.915ZM65.706 114.915C65.706 118.316 62.9487 121.074 59.5474 121.074C56.1462 121.074 53.3889 118.316 53.3889 114.915C53.3889 111.514 56.1462 108.757 59.5474 108.757C62.9487 108.757 65.706 111.514 65.706 114.915ZM59.5483 118.61C61.5891 118.61 63.2435 116.956 63.2435 114.915C63.2435 112.874 61.5891 111.22 59.5483 111.22C57.5076 111.22 55.8532 112.874 55.8532 114.915C55.8532 116.956 57.5076 118.61 59.5483 118.61ZM84.1829 126C90.3052 126 95.2683 121.037 95.2683 114.915C95.2683 108.792 90.3052 103.829 84.1829 103.829C78.0606 103.829 73.0976 108.792 73.0976 114.915C73.0976 121.037 78.0606 126 84.1829 126ZM84.1828 121.073C87.5841 121.073 90.3414 118.316 90.3414 114.915C90.3414 111.514 87.5841 108.756 84.1828 108.756C80.7816 108.756 78.0243 111.514 78.0243 114.915C78.0243 118.316 80.7816 121.073 84.1828 121.073ZM87.878 114.915C87.878 116.956 86.2236 118.61 84.1828 118.61C82.1421 118.61 80.4877 116.956 80.4877 114.915C80.4877 112.874 82.1421 111.22 84.1828 111.22C86.2236 111.22 87.878 112.874 87.878 114.915ZM179.024 114.915C179.024 121.037 174.061 126 167.939 126C161.817 126 156.854 121.037 156.854 114.915C156.854 108.792 161.817 103.829 167.939 103.829C174.061 103.829 179.024 108.792 179.024 114.915ZM174.098 114.915C174.098 118.316 171.34 121.073 167.939 121.073C164.538 121.073 161.781 118.316 161.781 114.915C161.781 111.514 164.538 108.756 167.939 108.756C171.34 108.756 174.098 111.514 174.098 114.915ZM167.939 118.61C169.98 118.61 171.634 116.956 171.634 114.915C171.634 112.874 169.98 111.22 167.939 111.22C165.898 111.22 164.244 112.874 164.244 114.915C164.244 116.956 165.898 118.61 167.939 118.61Z" fill="#FCFEFF"/>
</svg>
