<svg width="152" height="152" viewBox="0 0 152 152" fill="none" xmlns="http://www.w3.org/2000/svg">
<rect width="152" height="152" fill="#383A3C"/>
<path fill-rule="evenodd" clip-rule="evenodd" d="M26.2616 30.2357L34.7142 28.4008C35.2537 28.2837 35.7209 27.9487 36.0049 27.4753L37.1823 25.5131C37.8846 24.3425 39.5274 24.204 40.4158 25.2405L42.6192 27.8111C43.5831 28.9358 45.3925 28.6588 45.976 27.2974L47.142 24.5767C47.505 23.7296 48.4 23.2402 49.3091 23.3918L52.4037 23.9076C53.2697 24.0519 54.1287 23.6145 54.5214 22.8292L55.5237 20.8245C55.7609 20.3501 56.1769 19.9893 56.6801 19.8216L58.6364 19.1695C58.8404 19.1015 59.0539 19.0668 59.2689 19.0668L61.7752 19.0668C62.5327 19.0668 63.2252 18.6388 63.564 17.9613L64.4919 16.1056C64.8307 15.428 65.5232 15 66.2808 15L69.8822 15.0001C70.0457 15.0001 70.2086 15.0202 70.3672 15.0598L73.3029 15.7938C73.8693 15.9354 74.3456 16.3174 74.6067 16.8396L75.8174 19.2608C76.0785 19.783 76.5547 20.1651 77.1211 20.3067L83.2974 21.8509C83.9608 22.0167 84.4934 22.51 84.7097 23.1587L85.3792 25.1673L86.3959 28.2172L86.7914 29.7993C87.107 31.0616 86.1523 32.2844 84.8511 32.2844H81.6369C81.4219 32.2844 81.2084 32.319 81.0044 32.387L78.2622 33.3011L75.3468 34.2729C75.2571 34.3028 75.1695 34.3391 75.0849 34.3814L73.1715 35.3381C72.0955 35.8761 71.7345 37.2354 72.4018 38.2363L72.9885 39.1164C73.1143 39.305 73.2712 39.4709 73.4526 39.607L75.4006 41.068C76.3743 41.7982 76.4755 43.2216 75.6148 44.0822L74.7811 44.916C74.406 45.291 74.1953 45.7997 74.1953 46.3302L74.1953 49.5561C74.1953 50.202 74.5072 50.8082 75.0328 51.1836L81.3123 55.6689L84.1041 57.5301C84.2753 57.6443 84.4279 57.7842 84.5565 57.9449L87.9911 62.2382C88.2748 62.5928 88.4294 63.0334 88.4294 63.4876V69.0746C88.4294 69.605 88.6401 70.1138 89.0152 70.4888L92.3957 73.8694C92.4627 73.9363 92.5343 73.9984 92.61 74.0552L99.8685 79.4991C100.35 79.8604 100.969 79.9854 101.554 79.8394L106.279 78.6581C107.541 78.3425 108.764 79.2972 108.764 80.5984V85.0099C108.764 85.7276 109.148 86.3903 109.771 86.7464L115.57 90.06C115.776 90.1773 116 90.2574 116.234 90.2962L126.41 91.9923C127.375 92.1531 128.081 92.9875 128.081 93.9651L128.081 97.3545L128.081 99.2936C128.081 100.971 126.142 101.903 124.832 100.855L123.312 99.6389C123.104 99.4732 122.867 99.3504 122.612 99.2776L116.15 97.4314C115.971 97.3804 115.787 97.3545 115.601 97.3545H112.797C111.693 97.3545 110.797 98.2499 110.797 99.3545L110.797 102.322C110.797 103.025 111.166 103.676 111.768 104.037L114.91 105.922C115.512 106.284 115.881 106.935 115.881 107.637V109.439C115.881 110.142 115.512 110.793 114.91 111.154L111.768 113.039C111.166 113.401 110.797 114.052 110.797 114.754V118.233C110.797 118.544 110.725 118.85 110.586 119.128L109.317 121.667C108.978 122.344 108.285 122.772 107.528 122.772H103.136C102.825 122.772 102.519 122.845 102.241 122.984L100.92 123.644C100.728 123.74 100.553 123.867 100.401 124.019L100.199 124.22C99.824 124.595 99.6133 125.104 99.6133 125.634V126.367C99.6133 126.678 99.541 126.984 99.4022 127.262L98.9671 128.132C98.7298 128.606 98.6908 129.156 98.8585 129.659L99.6133 131.923L100.239 133.801C100.479 134.519 100.292 135.312 99.756 135.847L98.9304 136.673C98.7109 136.892 98.4432 137.058 98.1487 137.156L96.5405 137.692C95.9179 137.899 95.2331 137.788 94.7081 137.395L91.4795 134.973L88.6522 133.088C88.5043 132.99 88.3439 132.911 88.1753 132.855L85.5141 131.968C85.4243 131.938 85.3367 131.902 85.2521 131.859L81.7874 130.127C81.4761 129.971 81.2108 129.737 81.0177 129.448L79.6595 127.41C79.4128 127.04 79.0498 126.763 78.6279 126.622L76.6766 125.972C76.3821 125.874 76.1144 125.708 75.8949 125.489L75.3547 124.949C74.6805 124.274 74.5759 123.218 75.1048 122.425L75.635 121.63C76.0059 121.073 76.6304 120.739 77.2991 120.739L79.0808 120.739C79.2126 120.739 79.3439 120.752 79.4731 120.778L84.1683 121.717C84.2974 121.743 84.4288 121.756 84.5605 121.756H87.8238C88.2187 121.756 88.6047 121.639 88.9332 121.42L90.9757 120.058C91.3042 119.839 91.6902 119.722 92.0851 119.722H95.2219C95.4368 119.722 95.6504 119.688 95.8543 119.62L98.4617 118.751C98.5515 118.721 98.6391 118.684 98.7237 118.642L102.663 116.672L104.05 115.748C104.969 115.135 105.217 113.894 104.604 112.975L104.264 112.464C103.898 111.916 103.826 111.223 104.071 110.612L105.38 107.339C105.592 106.808 105.567 106.213 105.312 105.702L103.918 102.913C103.762 102.602 103.528 102.337 103.238 102.143L100.959 100.624C100.742 100.479 100.498 100.378 100.242 100.327L97.1542 99.7095C96.2193 99.5225 95.5464 98.7017 95.5464 97.7483V96.1495C95.5464 95.619 95.3357 95.1103 94.9606 94.7353L92.4963 92.2709L89.4461 89.2207L84.9103 85.5921C84.5557 85.3084 84.1151 85.1538 83.6609 85.1538H80.8692C80.4944 85.1538 80.1271 85.0485 79.8092 84.8498L72.639 80.3685C72.327 80.1734 72.0748 79.8961 71.9102 79.5669L70.2735 76.2936C70.1774 76.1014 70.0509 75.9259 69.8989 75.7739L66.3954 72.2703C66.1758 72.0508 65.9082 71.8854 65.6136 71.7872L63.5717 71.1065C63.2059 70.9846 62.8832 70.7596 62.6424 70.4585L59.1435 66.0849C59.0117 65.9201 58.9067 65.7355 58.8326 65.5378L55.8942 57.7024L54.1685 53.388C53.9715 52.8955 53.587 52.5014 53.0994 52.2924L46.7438 49.5686L43.0834 48.1044C42.2437 47.7686 41.2832 48.0379 40.7406 48.7614L38.8048 51.3424C38.6758 51.5144 38.5754 51.706 38.5074 51.91L37.8553 53.8663C37.6876 54.3695 37.3268 54.7855 36.8524 55.0227L34.8158 56.041C34.0458 56.426 33.1159 56.2751 32.5072 55.6664L31.8847 55.0439C31.6284 54.7876 31.4466 54.4665 31.3587 54.1148L30.6485 51.2742C30.5371 50.8286 30.2757 50.4349 29.9082 50.1593L27.7448 48.5367C26.9715 47.9567 26.7237 46.9068 27.156 46.0422L27.7982 44.7578C28.1832 43.9879 28.0323 43.0579 27.4236 42.4492L24.5858 39.6114C23.882 38.9076 23.8028 37.7935 24.4 36.9972L25.5605 35.4498C26.0692 34.7715 26.0949 33.846 25.6245 33.1405L25.2895 32.638C24.7924 31.8923 25.0203 30.8823 25.7894 30.4223C25.9356 30.3349 26.0951 30.2718 26.2616 30.2357ZM40.2514 85.1533H45.6752C46.3439 85.1533 46.9683 85.4875 47.3393 86.0439L52.3551 93.5677C52.6677 94.0365 52.768 94.6155 52.6313 95.1621L51.8291 98.3707L50.8124 106.504L50.1744 109.056C49.9519 109.947 49.1519 110.571 48.2342 110.571H45.5405C45.0101 110.571 44.5014 110.782 44.1263 111.157L44.0929 111.191C43.3118 111.972 42.0455 111.972 41.2645 111.191L39.5443 109.47C38.9786 108.905 38.8044 108.056 39.1016 107.313L40.4374 103.974C40.5733 103.634 40.6134 103.263 40.5532 102.902L39.6285 97.354L37.7283 90.7031C37.6407 90.3968 37.6277 90.0739 37.6902 89.7615L38.2902 86.7611C38.4772 85.8262 39.298 85.1533 40.2514 85.1533Z" fill="#FCFEFF"/>
</svg>
