<svg width="231" height="152" viewBox="0 0 231 152" fill="none" xmlns="http://www.w3.org/2000/svg">
<rect width="231" height="152" fill="#383A3C"/>
<path fill-rule="evenodd" clip-rule="evenodd" d="M168.416 26C168.416 24.8954 169.311 24 170.416 24H171.481C172.586 24 173.481 24.8954 173.481 26V30.6829C173.481 31.2352 173.929 31.6829 174.481 31.6829H199.403C203.269 31.6829 206.403 34.8169 206.403 38.6829V69.0974C206.403 69.6497 206.851 70.0974 207.403 70.0974H209.468C210.572 70.0974 211.468 70.9928 211.468 72.0974V84.931C211.468 85.2249 211.706 85.4632 212 85.4632C213.104 85.4632 214 86.3587 214 87.4632V102.39C214 102.942 213.552 103.39 213 103.39H211.468H206.403L206.403 103.39L206.403 103.39H173.481H168.416H151.688C151.136 103.39 150.688 102.943 150.688 102.39V99.2683C150.688 98.716 151.136 98.2683 151.688 98.2683H167.416C167.968 98.2683 168.416 97.8206 168.416 97.2683V42.4878V31.6829V26ZM187.143 41.9267C186.59 41.9267 186.143 42.3744 186.143 42.9267V58.8535C186.143 59.4058 186.59 59.8535 187.143 59.8535H197.805C198.357 59.8535 198.805 59.4058 198.805 58.8535V42.9267C198.805 42.3744 198.357 41.9267 197.805 41.9267H187.143ZM141.623 35.6829H23V99.3902H29.6621V92.5853C29.6621 91.4807 30.5575 90.5853 31.6621 90.5853C32.7667 90.5853 33.6621 91.4807 33.6621 92.5853V99.3902H42.3242V92.5853C42.3242 91.4807 43.2196 90.5853 44.3242 90.5853C45.4288 90.5853 46.3242 91.4807 46.3242 92.5853V99.3902H54.9873V92.5853C54.9873 91.4807 55.8827 90.5853 56.9873 90.5853C58.0919 90.5853 58.9873 91.4807 58.9873 92.5853V99.3902H67.6494V92.5853C67.6494 91.4807 68.5448 90.5853 69.6494 90.5853C70.754 90.5853 71.6494 91.4807 71.6494 92.5853V99.3902H80.3115V92.5853C80.3115 91.4807 81.207 90.5853 82.3115 90.5853C83.4161 90.5853 84.3115 91.4807 84.3115 92.5853V99.3902H92.9736V92.5853C92.9736 91.4807 93.8691 90.5853 94.9736 90.5853C96.0782 90.5853 96.9736 91.4807 96.9736 92.5853V99.3902H105.637V92.5853C105.637 91.4807 106.532 90.5853 107.637 90.5853C108.741 90.5853 109.637 91.4807 109.637 92.5853V99.3902H118.299V92.5853C118.299 91.4807 119.194 90.5853 120.299 90.5853C121.403 90.5853 122.299 91.4807 122.299 92.5853V99.3902H130.961V92.5853C130.961 91.4807 131.856 90.5853 132.961 90.5853C134.066 90.5853 134.961 91.4807 134.961 92.5853V99.3902H141.623V35.6829ZM23 31.6829H19V35.6829V99.3902V103.39H23H141.623H145.623V99.3902V35.6829V31.6829H141.623H23ZM32.9283 129C39.2222 129 44.3244 123.84 44.3244 117.475C44.3244 111.111 39.2222 105.951 32.9283 105.951C26.6344 105.951 21.5322 111.111 21.5322 117.475C21.5322 123.84 26.6344 129 32.9283 129ZM32.9288 123.878C36.4254 123.878 39.26 121.011 39.26 117.475C39.26 113.94 36.4254 111.073 32.9288 111.073C29.4322 111.073 26.5977 113.94 26.5977 117.475C26.5977 121.011 29.4322 123.878 32.9288 123.878ZM36.7273 117.475C36.7273 119.597 35.0266 121.317 32.9286 121.317C30.8306 121.317 29.1299 119.597 29.1299 117.475C29.1299 115.354 30.8306 113.634 32.9286 113.634C35.0266 113.634 36.7273 115.354 36.7273 117.475ZM69.6487 117.475C69.6487 123.84 64.5464 129 58.2525 129C51.9587 129 46.8564 123.84 46.8564 117.475C46.8564 111.111 51.9587 105.951 58.2525 105.951C64.5464 105.951 69.6487 111.111 69.6487 117.475ZM64.5832 117.475C64.5832 121.011 61.7487 123.878 58.2521 123.878C54.7555 123.878 51.9209 121.011 51.9209 117.475C51.9209 113.94 54.7555 111.073 58.2521 111.073C61.7487 111.073 64.5832 113.94 64.5832 117.475ZM58.2528 121.317C60.3508 121.317 62.0515 119.597 62.0515 117.475C62.0515 115.354 60.3508 113.634 58.2528 113.634C56.1548 113.634 54.4541 115.354 54.4541 117.475C54.4541 119.597 56.1548 121.317 58.2528 121.317ZM129.161 129C135.455 129 140.557 123.84 140.557 117.475C140.557 111.111 135.455 105.951 129.161 105.951C122.867 105.951 117.765 111.111 117.765 117.475C117.765 123.84 122.867 129 129.161 129ZM129.16 123.878C132.657 123.878 135.491 121.011 135.491 117.475C135.491 113.94 132.657 111.073 129.16 111.073C125.664 111.073 122.829 113.94 122.829 117.475C122.829 121.011 125.664 123.878 129.16 123.878ZM132.96 117.475C132.96 119.597 131.259 121.317 129.161 121.317C127.063 121.317 125.362 119.597 125.362 117.475C125.362 115.354 127.063 113.634 129.161 113.634C131.259 113.634 132.96 115.354 132.96 117.475ZM196.273 117.475C196.273 123.84 191.17 129 184.877 129C178.583 129 173.48 123.84 173.48 117.475C173.48 111.111 178.583 105.951 184.877 105.951C191.17 105.951 196.273 111.111 196.273 117.475ZM191.208 117.475C191.208 121.011 188.374 123.878 184.877 123.878C181.38 123.878 178.546 121.011 178.546 117.475C178.546 113.94 181.38 111.073 184.877 111.073C188.374 111.073 191.208 113.94 191.208 117.475ZM184.877 121.317C186.975 121.317 188.676 119.597 188.676 117.475C188.676 115.354 186.975 113.634 184.877 113.634C182.779 113.634 181.078 115.354 181.078 117.475C181.078 119.597 182.779 121.317 184.877 121.317Z" fill="#FCFEFF"/>
</svg>
