<svg width="152" height="152" viewBox="0 0 152 152" fill="none" xmlns="http://www.w3.org/2000/svg">
<rect width="152" height="152" fill="#383A3C"/>
<path fill-rule="evenodd" clip-rule="evenodd" d="M91.9181 8.27219C91.3015 7.98642 90.6691 7.70445 90.0206 7.42731C89.7662 7.31857 89.6632 7.0323 89.7905 6.78791C89.9179 6.54352 90.2274 6.43355 90.4818 6.54229C91.1397 6.82346 91.7814 7.10954 92.407 7.39951C92.6574 7.51561 92.751 7.80508 92.616 8.04606C92.481 8.28705 92.1685 8.38829 91.9181 8.27219ZM93.6002 8.52066C93.7428 8.28336 94.058 8.19105 94.3042 8.3145C94.9432 8.63486 95.5635 8.95851 96.1654 9.28418C96.4071 9.41492 96.4812 9.71009 96.331 9.94345C96.1808 10.1768 95.8631 10.26 95.6215 10.1292C95.0285 9.80841 94.4173 9.48953 93.7877 9.17385C93.5415 9.05041 93.4575 8.75797 93.6002 8.52066ZM88.7805 6.37393C88.6608 6.62146 88.3545 6.73995 88.0964 6.63858C87.4598 6.38858 86.809 6.14367 86.144 5.90468C85.8824 5.81068 85.7611 5.53146 85.8731 5.28103C85.9851 5.0306 86.2879 4.90378 86.5495 4.99778C87.224 5.24016 87.884 5.48857 88.5298 5.74216C88.7879 5.84354 88.9001 6.12639 88.7805 6.37393ZM97.272 10.4719C97.4297 10.2428 97.7496 10.1689 97.9864 10.3069C98.6053 10.6676 99.2022 11.0291 99.7772 11.3897C100.009 11.535 100.063 11.8348 99.8976 12.0594C99.7323 12.284 99.4106 12.3483 99.179 12.2031C98.6127 11.848 98.0249 11.492 97.4153 11.1367C97.1784 10.9987 97.1143 10.7011 97.272 10.4719ZM111.71 21.7071C111.66 21.9724 111.393 22.1596 111.113 22.1254L106.546 21.567C106.266 21.5327 106.079 21.2899 106.128 21.0246C106.177 20.7593 106.444 20.572 106.725 20.6063L110.052 21.0132C110.006 20.8382 110.069 20.6414 110.23 20.513C110.43 20.3544 110.711 20.3539 110.896 20.5007L111.497 17.2599C111.546 16.9946 111.813 16.8073 112.094 16.8416C112.374 16.8758 112.561 17.1187 112.512 17.3839L111.71 21.7071ZM84.8341 4.92453C84.7299 5.1776 84.4307 5.31254 84.166 5.22592C83.5117 5.01185 82.8447 4.80378 82.1647 4.6024C81.897 4.52314 81.7584 4.25178 81.8549 3.9963C81.9515 3.74082 82.2467 3.59797 82.5144 3.67723C83.2038 3.8814 83.8801 4.09237 84.5436 4.30945C84.8083 4.39607 84.9384 4.67145 84.8341 4.92453ZM100.8 12.6464C100.973 12.4266 101.296 12.3721 101.522 12.5246C102.118 12.9265 102.687 13.3249 103.228 13.7176C103.449 13.8773 103.481 14.1807 103.301 14.3953C103.121 14.6098 102.796 14.6543 102.576 14.4945C102.043 14.1082 101.484 13.716 100.897 13.3205C100.671 13.168 100.628 12.8662 100.8 12.6464ZM80.7926 3.69778C80.7037 3.95542 80.4126 4.10596 80.1423 4.03403C79.8036 3.94389 79.4619 3.85546 79.1172 3.7688C78.796 3.68806 78.4753 3.61382 78.155 3.5459C77.8804 3.48766 77.7182 3.2288 77.7927 2.96772C77.8672 2.70665 78.1502 2.54222 78.4248 2.60046C78.7578 2.6711 79.0913 2.74828 79.4251 2.8322C79.7744 2.92003 80.1208 3.00967 80.4641 3.10104C80.7344 3.17298 80.8815 3.44015 80.7926 3.69778ZM104.155 15.0379C104.343 14.829 104.668 14.795 104.882 14.962C105.455 15.4095 105.991 15.8451 106.489 16.2647C106.696 16.4392 106.705 16.745 106.51 16.9478C106.315 17.1505 105.989 17.1735 105.782 16.999C105.293 16.5868 104.766 16.1586 104.203 15.7186C103.989 15.5516 103.968 15.2468 104.155 15.0379ZM76.8202 2.7989C76.7671 3.0637 76.4975 3.24765 76.218 3.20978C75.5601 3.12065 74.9046 3.05698 74.252 3.01724C73.9692 3.00002 73.7652 2.76967 73.7964 2.50273C73.8276 2.23579 74.0822 2.03336 74.365 2.05058C75.0437 2.09191 75.7256 2.15814 76.41 2.25087C76.6896 2.28874 76.8732 2.5341 76.8202 2.7989ZM107.315 17.6532C107.518 17.4574 107.844 17.4463 108.043 17.6285C108.61 18.1467 109.108 18.6264 109.538 19.0571C109.728 19.2477 109.711 19.5544 109.499 19.7421C109.288 19.9298 108.962 19.9275 108.772 19.7369C108.351 19.3158 107.864 18.846 107.308 18.3377C107.109 18.1556 107.112 17.8491 107.315 17.6532ZM72.8005 2.47846C72.791 2.74593 72.5528 2.96539 72.2685 2.96864C71.6014 2.97626 70.9379 3.0077 70.2784 3.0613C69.9941 3.0844 69.7542 2.8871 69.7425 2.62061C69.7309 2.35412 69.9519 2.11935 70.2361 2.09625C70.9205 2.04062 71.6096 2.00795 72.3027 2.00004C72.5871 1.99679 72.81 2.21099 72.8005 2.47846ZM68.7467 2.73552C68.7786 2.9997 68.5752 3.2479 68.2925 3.28991C67.63 3.38833 66.9722 3.50799 66.3197 3.64712C66.0398 3.70682 65.7716 3.54384 65.7208 3.2831C65.6699 3.02235 65.8557 2.76258 66.1356 2.70288C66.8101 2.55905 67.4908 2.43521 68.177 2.33325C68.4598 2.29125 68.7148 2.47135 68.7467 2.73552ZM64.744 3.52221C64.8125 3.77866 64.644 4.04821 64.3678 4.12425C63.7199 4.30267 63.078 4.49917 62.4429 4.71195C62.1712 4.80296 61.8824 4.67283 61.7979 4.4213C61.7133 4.16976 61.865 3.89208 62.1367 3.80107C62.7904 3.58207 63.4517 3.37958 64.1201 3.19555C64.3963 3.1195 64.6756 3.26575 64.744 3.52221ZM60.8524 4.76556C60.9517 5.01175 60.816 5.29612 60.5493 5.40073C59.9219 5.64687 59.302 5.90773 58.6904 6.18141C58.4291 6.29833 58.1259 6.19807 58.0133 5.95748C57.9007 5.7169 58.0213 5.42708 58.2825 5.31017C58.9095 5.02965 59.5455 4.76199 60.1898 4.5092C60.4565 4.4046 60.7531 4.51937 60.8524 4.76556ZM57.1054 6.38826C57.2301 6.62312 57.1239 6.9173 56.8681 7.04534C56.2639 7.34782 55.6689 7.66156 55.0839 7.98454C54.8338 8.12262 54.5211 8.04883 54.3854 7.81973C54.2498 7.59063 54.3426 7.29298 54.5927 7.1549C55.1902 6.82502 55.7984 6.5043 56.4165 6.19484C56.6723 6.0668 56.9807 6.1534 57.1054 6.38826ZM53.5175 8.32083C53.6631 8.5442 53.583 8.84458 53.3385 8.99174C52.7582 9.34109 52.1892 9.69802 51.6324 10.0604C51.3935 10.2158 51.0745 10.1653 50.9199 9.94755C50.7653 9.72983 50.8336 9.42735 51.0724 9.27194C51.6396 8.90291 52.2195 8.53912 52.8113 8.18285C53.0558 8.03568 53.372 8.09746 53.5175 8.32083ZM50.0894 10.508C50.2523 10.7201 50.1952 11.0242 49.9619 11.1871C49.403 11.5774 48.8584 11.9712 48.329 12.3658C48.1012 12.5356 47.7783 12.5058 47.6078 12.2991C47.4374 12.0924 47.4838 11.7872 47.7117 11.6174C48.2497 11.2163 48.8035 10.8159 49.372 10.4188C49.6053 10.2559 49.9265 10.2958 50.0894 10.508ZM46.8157 12.9081C46.9932 13.1094 46.9568 13.4154 46.7344 13.5916C46.1969 14.0173 45.6783 14.441 45.1798 14.8592C44.9627 15.0412 44.6376 15.03 44.4536 14.834C44.2696 14.638 44.2964 14.3316 44.5135 14.1495C45.0195 13.7251 45.5459 13.295 46.0917 12.8627C46.3141 12.6865 46.6383 12.7069 46.8157 12.9081ZM43.7045 15.4801C43.8946 15.6708 43.8771 15.9774 43.6654 16.165C43.1411 16.6297 42.6449 17.0825 42.1786 17.5186C41.9724 17.7115 41.6463 17.7176 41.4503 17.5323C41.2543 17.347 41.2626 17.0404 41.4688 16.8475C41.9417 16.4052 42.445 15.9458 42.977 15.4744C43.1886 15.2869 43.5144 15.2894 43.7045 15.4801ZM40.7408 18.2139C40.9425 18.3937 40.9434 18.7 40.7428 18.898C40.2216 19.4124 39.7551 19.8884 39.3472 20.3147C39.1526 20.518 38.8266 20.5419 38.619 20.368C38.4113 20.1942 38.4007 19.8884 38.5953 19.6851C39.0098 19.252 39.4834 18.7688 40.0122 18.2469C40.2128 18.0488 40.539 18.034 40.7408 18.2139ZM37.9362 21.1039C38.1507 21.2703 38.1731 21.575 37.9862 21.7844C37.7772 22.0186 37.6183 22.2015 37.5121 22.3253C37.459 22.3872 37.4191 22.4343 37.3926 22.4657L37.3632 22.5008L37.3561 22.5092L37.3545 22.5112L37.3542 22.5115C37.1757 22.7272 36.8514 22.7738 36.6298 22.6156C36.4083 22.4573 36.3734 22.1542 36.552 21.9385L36.9531 22.225L36.552 21.9385L36.552 21.9385L36.5521 21.9384L36.5523 21.9381L36.553 21.9373L36.5553 21.9346L36.5638 21.9244L36.5962 21.8858C36.6246 21.8521 36.6666 21.8025 36.7218 21.7382C36.8322 21.6095 36.9956 21.4215 37.2093 21.182C37.3962 20.9725 37.7217 20.9376 37.9362 21.1039ZM52.8292 143.201C53.4346 143.509 54.0561 143.815 54.6939 144.116C54.9441 144.234 55.0363 144.524 54.8999 144.764C54.7634 145.003 54.4499 145.101 54.1997 144.983C53.5525 144.678 52.9217 144.367 52.3073 144.054C52.0614 143.928 51.9789 143.636 52.123 143.4C52.2671 143.164 52.5833 143.075 52.8292 143.201ZM51.1572 142.888C51.0055 143.12 50.6869 143.2 50.4456 143.067C49.8192 142.722 49.2116 142.375 48.6227 142.026C48.3863 141.886 48.3237 141.589 48.483 141.361C48.6422 141.134 48.9629 141.063 49.1993 141.203C49.7794 141.547 50.3779 141.889 50.995 142.228C51.2363 142.361 51.3089 142.656 51.1572 142.888ZM55.8944 145.215C56.0232 144.972 56.3337 144.865 56.588 144.976C57.215 145.249 57.8565 145.518 58.5126 145.781C58.7706 145.885 58.8816 146.168 58.7605 146.414C58.6394 146.66 58.332 146.776 58.0741 146.673C57.4085 146.406 56.7577 146.133 56.1215 145.856C55.8673 145.745 55.7656 145.458 55.8944 145.215ZM47.5629 140.796C47.3963 141.019 47.0737 141.08 46.8425 140.933C46.238 140.548 45.6557 140.164 45.0953 139.78C44.8696 139.626 44.8278 139.324 45.0019 139.106C45.176 138.889 45.5001 138.837 45.7257 138.991C46.2774 139.369 46.8508 139.748 47.4461 140.126C47.6773 140.274 47.7296 140.573 47.5629 140.796ZM33.6033 128.977C33.6642 128.714 33.9392 128.538 34.2177 128.585L38.7549 129.34C39.0334 129.386 39.2097 129.637 39.1489 129.9C39.088 130.163 38.8129 130.338 38.5345 130.292L35.2286 129.742C35.2668 129.918 35.1955 130.112 35.0289 130.233C34.8228 130.384 34.541 130.372 34.3633 130.217L33.6195 133.429C33.5586 133.692 33.2835 133.868 33.0051 133.821C32.7267 133.775 32.5503 133.524 32.6112 133.261L33.6033 128.977ZM59.7865 146.809C59.8999 146.559 60.2038 146.435 60.4653 146.532C61.1116 146.769 61.771 147.001 62.4436 147.227C62.7083 147.316 62.8372 147.592 62.7316 147.843C62.6259 148.095 62.3256 148.227 62.061 148.139C61.3789 147.91 60.7101 147.675 60.0547 147.434C59.7932 147.337 59.6731 147.058 59.7865 146.809ZM44.1232 138.484C43.9417 138.696 43.6165 138.738 43.3967 138.577C42.8172 138.151 42.2652 137.73 41.7401 137.315C41.5266 137.147 41.5065 136.842 41.6953 136.635C41.8841 136.428 42.2102 136.397 42.4237 136.566C42.9402 136.973 43.4834 137.388 44.0537 137.806C44.2735 137.968 44.3046 138.271 44.1232 138.484ZM63.7834 148.18C63.8813 147.925 64.1777 147.785 64.4454 147.867C64.7808 147.969 65.1193 148.069 65.4609 148.168C65.7817 148.261 66.1022 148.347 66.4226 148.426C66.6951 148.494 66.8484 148.758 66.765 149.017C66.6816 149.275 66.393 149.429 66.1205 149.362C65.7872 149.279 65.4537 149.189 65.1202 149.093C64.7739 148.993 64.4307 148.891 64.0906 148.787C63.823 148.706 63.6854 148.434 63.7834 148.18ZM40.8678 135.958C40.6717 136.159 40.3451 136.18 40.1382 136.004C39.5842 135.534 39.0674 135.076 38.5874 134.636C38.3879 134.454 38.3911 134.148 38.5947 133.953C38.7982 133.759 39.1249 133.749 39.3244 133.932C39.7959 134.364 40.3037 134.813 40.8484 135.276C41.0552 135.452 41.0639 135.757 40.8678 135.958ZM67.7481 149.221C67.8098 148.959 68.0853 148.784 68.3636 148.831C69.0236 148.942 69.6823 149.028 70.3391 149.089C70.6214 149.115 70.8182 149.352 70.7787 149.617C70.7392 149.883 70.4783 150.077 70.1961 150.051C69.5127 149.988 68.8272 149.899 68.1403 149.783C67.862 149.735 67.6864 149.484 67.7481 149.221ZM37.8198 133.214C37.6087 133.401 37.2823 133.399 37.0909 133.208C36.5465 132.667 36.0695 132.167 35.6583 131.718C35.4764 131.52 35.5069 131.214 35.7263 131.035C35.9457 130.857 36.271 130.873 36.4529 131.071C36.8548 131.51 37.3219 132 37.8557 132.53C38.0471 132.721 38.031 133.027 37.8198 133.214ZM71.7908 149.674C71.8082 149.407 72.053 149.195 72.3374 149.2C73.0099 149.213 73.6799 149.202 74.3468 149.167C74.6318 149.153 74.866 149.357 74.87 149.624C74.874 149.89 74.6462 150.118 74.3612 150.133C73.6691 150.168 72.9732 150.18 72.2742 150.167C71.9897 150.161 71.7733 149.94 71.7908 149.674ZM75.8862 149.537C75.8617 149.272 76.0722 149.03 76.3561 148.996C77.0267 148.916 77.6935 148.815 78.3558 148.694C78.6375 148.642 78.9011 148.813 78.9447 149.075C78.9883 149.337 78.7953 149.591 78.5136 149.643C77.8291 149.768 77.1392 149.873 76.4445 149.955C76.1606 149.989 75.9106 149.801 75.8862 149.537ZM79.9449 148.861C79.8836 148.602 80.0595 148.338 80.3379 148.27C80.9961 148.109 81.6491 147.93 82.296 147.734C82.5702 147.65 82.8554 147.789 82.933 148.043C83.0106 148.296 82.8512 148.569 82.5769 148.652C81.9113 148.854 81.2387 149.039 80.5599 149.205C80.2816 149.273 80.0063 149.119 79.9449 148.861ZM83.9044 147.72C83.812 147.472 83.9557 147.191 84.2253 147.095C84.8649 146.865 85.4976 146.62 86.1225 146.363C86.3872 146.254 86.6875 146.363 86.7933 146.606C86.8991 146.85 86.7704 147.136 86.5057 147.245C85.8654 147.509 85.2165 147.76 84.5599 147.996C84.2903 148.093 83.9968 147.969 83.9044 147.72ZM87.7292 146.196C87.6112 145.957 87.7259 145.667 87.9854 145.546C88.6034 145.26 89.2126 144.961 89.8123 144.654C90.0664 144.523 90.377 144.606 90.506 144.839C90.635 145.072 90.5335 145.367 90.2794 145.497C89.6672 145.811 89.0446 146.116 88.4126 146.409C88.1531 146.53 87.8472 146.434 87.7292 146.196ZM91.4035 144.357C91.2645 144.129 91.3536 143.832 91.6024 143.692C92.1983 143.358 92.7832 143.015 93.3561 142.667C93.5997 142.52 93.9171 142.58 94.0652 142.802C94.2133 143.024 94.1359 143.324 93.8924 143.472C93.309 143.827 92.7132 144.175 92.1057 144.516C91.8569 144.656 91.5425 144.584 91.4035 144.357ZM94.9273 142.259C94.7709 142.042 94.8372 141.74 95.0755 141.584C95.651 141.209 96.2124 140.829 96.7587 140.449C96.9918 140.286 97.3137 140.326 97.4777 140.538C97.6418 140.75 97.5858 141.053 97.3527 141.216C96.7978 141.603 96.2271 141.988 95.6418 142.37C95.4036 142.526 95.0836 142.476 94.9273 142.259ZM98.3022 139.945C98.1311 139.738 98.1772 139.434 98.4051 139.265C98.9605 138.853 99.4968 138.444 100.013 138.039C100.236 137.864 100.561 137.886 100.738 138.087C100.916 138.289 100.879 138.594 100.657 138.769C100.133 139.18 99.5885 139.596 99.0248 140.014C98.7968 140.183 98.4733 140.152 98.3022 139.945ZM101.522 137.455C101.339 137.258 101.366 136.952 101.584 136.772C102.127 136.321 102.642 135.882 103.127 135.458C103.339 135.272 103.666 135.277 103.855 135.469C104.045 135.661 104.027 135.967 103.814 136.152C103.323 136.582 102.801 137.027 102.25 137.484C102.032 137.665 101.706 137.652 101.522 137.455ZM104.601 134.8C104.405 134.613 104.414 134.307 104.621 134.116C105.164 133.616 105.65 133.152 106.076 132.737C106.278 132.54 106.604 132.528 106.806 132.709C107.008 132.889 107.008 133.195 106.807 133.392C106.374 133.814 105.88 134.284 105.33 134.791C105.123 134.983 104.796 134.986 104.601 134.8ZM107.525 131.985C107.317 131.811 107.305 131.506 107.499 131.304C107.718 131.075 107.884 130.896 107.996 130.775C108.052 130.715 108.094 130.668 108.121 130.638L108.152 130.603L108.16 130.595L108.161 130.593L108.162 130.593C108.348 130.384 108.674 130.349 108.889 130.515C109.105 130.68 109.13 130.984 108.943 131.194L108.553 130.893L108.943 131.194L108.943 131.194L108.943 131.194L108.942 131.195L108.94 131.198L108.931 131.207L108.897 131.245L108.845 131.303L108.765 131.389C108.65 131.515 108.478 131.699 108.255 131.932C108.061 132.135 107.734 132.159 107.525 131.985ZM45.9796 35.4777L43.3384 37.6593L39.1631 40.4187C38.6026 40.7891 37.9826 41.0611 37.3304 41.2227C35.818 41.5975 34.5154 42.5556 33.7104 43.8853L32.8647 45.2824C32.5931 45.731 32.3582 46.2005 32.1621 46.6863L30.7826 50.1047L29.6036 52.4419C29.2745 53.0942 28.8747 53.7091 28.4114 54.2754L26.6697 56.4044L25.5433 58.2276C25.147 58.8692 25.0271 59.6417 25.2108 60.3699C25.5316 61.6418 24.9163 62.968 23.7334 63.5542L23.3941 63.7224C22.7569 64.0381 22.2396 64.5513 21.9202 65.1843L21.082 66.8456C20.8558 67.294 20.7379 67.7884 20.7379 68.2893C20.7379 69.3676 20.1936 70.3762 19.2891 70.974L19.1305 71.0788C18.5414 71.4681 17.8505 71.6759 17.1448 71.6759L16.1844 71.6758C15.3483 71.6758 14.545 72.0065 13.9512 72.5949L13.8397 72.7055C13.4274 73.1142 12.8934 73.3792 12.3181 73.4607C10.1946 73.7614 9.25626 76.2957 10.6804 77.8837L13.4878 81.0141C13.8447 81.4119 14.0418 81.9269 14.0418 82.4614L14.0418 83.1947C14.0418 84.3492 14.3123 85.4866 14.8319 86.5166C15.4112 87.6651 16.2814 88.6427 17.3569 89.3533L18.227 89.9283L21.058 92.0327C21.3939 92.2824 21.8022 92.4173 22.2223 92.4173H22.4189C23.6526 92.4173 24.518 93.6229 24.126 94.7887C24.0997 94.8668 24.0678 94.9432 24.0306 95.0169L23.7703 95.5329C23.4827 96.1031 23.7132 96.7954 24.2851 97.0789C24.6765 97.2728 24.9235 97.6703 24.9235 98.1062L24.9235 98.4496C24.9235 98.8105 24.6904 99.1316 24.3458 99.2454C23.6343 99.4805 23.5613 100.454 24.2303 100.785L25.7605 101.544L28.2717 102.373L29.8971 102.91C30.4645 103.098 30.9333 103.501 31.2014 104.033C31.4695 104.564 31.9383 104.967 32.5057 105.155L33.169 105.374C33.7588 105.569 34.41 105.415 34.8519 104.977C34.9292 104.901 34.9987 104.817 35.0594 104.726L36.6423 102.373C37.1046 101.457 38.2243 101.083 39.1435 101.539L40.8275 102.373L42.4283 103.431C42.9482 103.774 43.1276 104.451 42.8465 105.008C42.6352 105.427 42.2044 105.692 41.7343 105.692H41.5438C40.687 105.692 39.9905 106.385 39.9905 107.238L39.9905 108.041C39.9905 108.662 40.238 109.255 40.6786 109.692L42.7892 111.784C43.1532 112.145 43.5732 112.445 44.0333 112.673L46.0019 113.648C46.4219 113.857 46.6869 114.283 46.6869 114.751C46.6869 115.286 46.3415 115.762 45.8308 115.93L45.1771 116.146C44.5797 116.344 44.1757 116.9 44.1757 117.526C44.1757 118.322 44.8228 118.966 45.6233 118.966L48.4953 118.966C48.9607 118.966 49.4233 118.892 49.8655 118.746L50.0972 118.669C51.1499 118.321 52.279 118.278 53.3529 118.544L53.8182 118.659C54.6381 118.862 55.4165 119.204 56.1197 119.668C57.0726 120.298 58.1599 120.699 59.2966 120.839L62.9012 121.286C63.7808 121.395 64.672 121.186 65.4123 120.697C66.281 120.123 67.3507 119.938 68.3594 120.188L69.3969 120.445C69.88 120.565 70.3763 120.625 70.8748 120.625H71.2723C72.7195 120.625 74.1455 120.959 75.4386 121.6L75.6283 121.694C76.4198 122.086 77.2605 122.372 78.1284 122.544L79.5306 122.822C80.5062 123.015 81.5096 123.031 82.4924 122.869C84.7479 122.496 86.7511 121.21 88.0245 119.317L88.8749 118.052C89.2084 117.557 89.5904 117.095 90.0153 116.673C91.2381 115.461 92.7818 114.621 94.4647 114.25L99.4213 113.158L100.6 112.866C101.983 112.524 103.443 112.774 104.626 113.555C105.06 113.842 105.536 114.06 106.037 114.202L111.14 115.647L112.815 116.062C113.922 116.337 114.974 116.798 115.923 117.425L117 118.136L121.22 120.925C121.743 121.271 122.357 121.455 122.987 121.455H124.928C125.633 121.455 126.207 120.884 126.207 120.182C126.207 119.93 126.282 119.684 126.423 119.474L126.887 118.784C127.52 117.844 127.724 116.682 127.448 115.588L127.226 114.709C127.105 114.23 127.044 113.738 127.044 113.244V109.601C127.044 109.21 126.98 108.821 126.856 108.45C126.453 107.251 126.705 105.928 127.523 104.956L129.711 102.354C130.124 101.862 130.206 101.173 129.918 100.602C129.69 100.15 129.69 99.6164 129.919 99.1626L130.742 97.5308C131.041 96.9391 131.649 96.5651 132.313 96.5651C133.144 96.5651 133.858 97.1465 134.021 97.9565L134.129 98.4914C134.381 99.7399 135.567 100.573 136.836 100.394L138.109 100.213C139.535 100.011 140.726 99.0233 141.184 97.663L141.274 97.3948L141.866 94.4587C142.028 93.6585 142.028 92.8351 141.867 92.0363L141.639 90.9051C141.408 89.7646 140.663 88.7954 139.618 88.2774C138.552 87.7493 137.297 87.7504 136.228 88.2803L134.577 89.0982L131.059 90.8417C130.07 91.332 128.981 91.5872 127.878 91.5872C126.779 91.5872 125.696 91.3339 124.714 90.8473L124.361 90.6721C121.387 89.1986 119.51 86.1786 119.51 82.8672V82.4609V72.505L120.148 66.1815C120.28 64.8788 120.153 63.5643 119.774 62.3128L118.462 57.9786C118.05 56.6165 117.349 55.3594 116.406 54.2918L112.505 49.8731C112.154 49.4747 111.835 49.0489 111.551 48.6C110.052 46.2292 107.562 42.3173 106.955 41.4706C106.503 40.8413 106.026 38.7232 105.678 36.8007C105.39 35.2092 104.659 33.7242 103.509 32.5846L101.737 30.8283C100.83 29.9293 99.4897 29.6166 98.2706 30.0194L98.1887 30.0465C97.8962 30.1431 97.5901 30.1924 97.2823 30.1924L95.8333 30.1924C95.0421 30.1924 94.3988 30.8325 94.3988 31.6199C94.3988 31.7734 94.3738 31.926 94.3248 32.0718L94.2157 32.3962C93.8115 33.598 92.7903 34.4936 91.5419 34.7411L89.3765 35.1703L82.0258 36.3846C80.2913 36.6711 78.7218 37.5854 77.6193 38.9514L76.6172 40.1929C76.2081 40.6998 75.6323 41.0469 74.9921 41.1724C74.0483 41.3576 73.0778 41.0407 72.4308 40.336L70.0733 37.768C69.1122 36.7212 67.5679 36.4372 66.2873 37.0718C65.5281 37.4481 64.6513 37.5105 63.8489 37.2453L62.5907 36.8296L59.2425 36L57.1527 35.4822C56.3264 35.2774 55.4613 35.2776 54.6332 35.4828L54.292 35.5674C53.1736 35.8445 51.9925 35.6708 51.0061 35.0842C49.421 34.1416 47.4064 34.2993 45.9796 35.4777ZM71.7302 48.6468L70.4484 51.2231L67.582 51.6363L69.6561 53.6418L69.1665 56.4738L71.7302 55.1369L74.2941 56.4739L73.8044 53.6419L75.8785 51.6365L73.012 51.2231L71.7302 48.6468ZM59.6763 52.2063L58.3945 54.7828L55.5281 55.196L57.6023 57.2015L57.1127 60.0336L59.6763 58.6963L62.2402 60.0336L61.7505 57.2015L63.8246 55.196L60.9581 54.7828L59.6763 52.2063ZM83.7841 52.2063L82.5022 54.7828L79.6358 55.196L81.71 57.2015L81.2204 60.0336L83.7843 58.6963L86.3477 60.0336L85.8581 57.2015L87.9323 55.196L85.0658 54.7828L83.7841 52.2063ZM50.544 61.3228L49.2622 63.8991L46.3957 64.3123L48.47 66.3177L47.9804 69.1497L50.544 67.8128L53.1079 69.1497L52.6181 66.3177L54.6923 64.3124L51.8258 63.8991L50.544 61.3228ZM92.9165 61.3228L91.6345 63.8991L88.7681 64.3123L90.8422 66.3177L90.3526 69.1497L92.9165 67.8128L95.4799 69.1497L94.9903 66.3177L97.0645 64.3123L94.198 63.899L92.9165 61.3228ZM47.2727 73.2882L45.9909 75.8645L43.1244 76.2777L45.1987 78.2832L44.7091 81.1151L47.2727 79.7782L49.8366 81.115L49.3468 78.283L51.421 76.2777L48.5545 75.8645L47.2727 73.2882ZM96.1878 73.2882L94.9058 75.8645L92.0395 76.2777L94.1136 78.2832L93.624 81.1151L96.1879 79.7782L98.7514 81.115L98.2618 78.283L100.336 76.2776L97.4694 75.8644L96.1878 73.288V73.2882ZM50.544 85.4432L49.2622 88.0196L46.3957 88.433L48.47 90.4381L47.9804 93.2703L50.544 91.933L53.1079 93.2703L52.6181 90.4383L54.6923 88.4331L51.8258 88.0196L50.544 85.4432ZM92.9165 85.4432L91.6345 88.0196L88.7682 88.4331L90.8423 90.4383L90.3527 93.2704L92.9166 91.9332L95.4801 93.2704L94.9905 90.4384L97.0646 88.4333L94.1981 88.0198L92.9165 85.4432ZM59.6763 94.3327L58.3945 96.9092L55.5281 97.3225L57.6023 99.3279L57.1127 102.16L59.6763 100.823L62.2402 102.16L61.7505 99.3279L63.8246 97.3225L60.9581 96.9092L59.6763 94.3327ZM83.7841 94.3327L82.5022 96.9092L79.6357 97.3225L81.7098 99.3279L81.2202 102.16L83.7841 100.823L86.3476 102.16L85.858 99.3279L87.9321 97.3225L85.0657 96.9092L83.7841 94.3327ZM71.7062 97.5256L71.7062 97.5257L71.7061 97.5256H71.7062ZM70.4244 100.102L71.7062 97.5257L71.7301 97.5736L71.7541 97.5256L73.0359 100.102L75.9024 100.515L73.8285 102.521L74.3178 105.353L74.2652 105.325L74.27 105.353L71.7302 104.028L69.1905 105.353L69.1953 105.325L69.1428 105.353L69.6321 102.521L67.558 100.515L70.4244 100.102Z" fill="#FCFEFF"/>
</svg>
