<svg width="231" height="152" viewBox="0 0 231 152" fill="none" xmlns="http://www.w3.org/2000/svg">
<rect width="231" height="152" fill="#383A3C"/>
<path fill-rule="evenodd" clip-rule="evenodd" d="M174.244 27C174.244 25.8954 175.139 25 176.244 25H177.349C178.454 25 179.349 25.8954 179.349 27V31.683C179.349 32.2353 179.797 32.683 180.349 32.683H205.535C209.401 32.683 212.535 35.817 212.535 39.683V70.098C212.535 70.6503 212.982 71.098 213.535 71.098H215.639C216.744 71.098 217.639 71.9934 217.639 73.098V85.9101C217.639 86.2156 217.887 86.4632 218.192 86.4632C219.297 86.4632 220.192 87.3587 220.192 88.4632V103.39C220.192 103.942 219.744 104.39 219.192 104.39H217.639C217.639 104.39 217.639 104.39 217.639 104.39C217.639 104.39 217.639 104.391 217.639 104.391H209.981C209.981 104.391 209.981 104.39 209.981 104.39C209.981 104.39 209.981 104.39 209.981 104.39H174.246L174.246 104.39H157.378C156.826 104.39 156.378 103.942 156.378 103.39V100.268C156.378 99.7157 156.826 99.268 157.378 99.268H173.246C173.798 99.268 174.246 98.8202 174.246 98.268V43.5768C174.245 43.5592 174.244 43.5415 174.244 43.5238L174.244 43.5108L174.244 43.4877V27ZM193.114 42.9266C192.562 42.9266 192.114 43.3743 192.114 43.9266V59.8534C192.114 60.4057 192.562 60.8534 193.114 60.8534H203.877C204.429 60.8534 204.877 60.4057 204.877 59.8534V43.9266C204.877 43.3743 204.429 42.9266 203.877 42.9266H193.114ZM51.5005 35.9999H157.501V62.9999C157.501 82.8821 141.383 98.9999 121.501 98.9999H61.5005C41.6183 98.9999 25.5005 82.8821 25.5005 62.9999V61.9999C25.5005 47.6405 37.1411 35.9999 51.5005 35.9999ZM26.0158 46.1641C31.3113 37.66 40.7449 31.9999 51.5005 31.9999H157.501H161.501V35.9999V62.9999C161.501 85.0913 143.592 103 121.501 103H61.5005C61.1658 103 60.832 102.996 60.4993 102.988V103H3.49927L4.63975 101.049L4.9608 100.5L5.81722 99.1816L21.5795 65.5341C21.5271 64.6961 21.5005 63.8511 21.5005 62.9999V61.9999C21.5005 61.6645 21.506 61.3303 21.5169 60.9976L20.7539 62.3752L19.3626 61.6046L19.0044 61.4061L17.6131 60.6355L19.4145 57.3832L20.8058 58.1538L21.164 58.3522L21.6864 58.6416C21.8331 57.3247 22.065 56.0335 22.3766 54.7737L21.2159 54.1308L23.0173 50.8785L23.5199 51.1569C23.7116 50.6627 23.9159 50.1748 24.1326 49.6937L23.7814 49.4991L24.7504 47.7496L24.8188 47.6262L25.7195 46L26.0158 46.1641ZM9.93845 99H44.0443C33.2993 93.7802 25.2422 83.8915 22.5106 71.9717L9.93845 99ZM42.784 130C49.1279 130 54.2707 124.841 54.2707 118.476C54.2707 112.111 49.1279 106.952 42.784 106.952C36.44 106.952 31.2973 112.111 31.2973 118.476C31.2973 124.841 36.44 130 42.784 130ZM42.783 124.878C46.3074 124.878 49.1645 122.012 49.1645 118.476C49.1645 114.94 46.3074 112.074 42.783 112.074C39.2586 112.074 36.4015 114.94 36.4015 118.476C36.4015 122.012 39.2586 124.878 42.783 124.878ZM46.6115 118.476C46.6115 120.598 44.8972 122.318 42.7826 122.318C40.6679 122.318 38.9537 120.598 38.9537 118.476C38.9537 116.355 40.6679 114.635 42.7826 114.635C44.8972 114.635 46.6115 116.355 46.6115 118.476ZM79.7934 118.477C79.7934 124.842 74.6507 130.001 68.3067 130.001C61.9628 130.001 56.8201 124.842 56.8201 118.477C56.8201 112.112 61.9628 106.953 68.3067 106.953C74.6507 106.953 79.7934 112.112 79.7934 118.477ZM74.6876 118.477C74.6876 122.013 71.8305 124.879 68.3061 124.879C64.7817 124.879 61.9246 122.013 61.9246 118.477C61.9246 114.941 64.7817 112.075 68.3061 112.075C71.8305 112.075 74.6876 114.941 74.6876 118.477ZM68.3076 122.318C70.4223 122.318 72.1365 120.598 72.1365 118.476C72.1365 116.355 70.4223 114.635 68.3076 114.635C66.193 114.635 64.4787 116.355 64.4787 118.476C64.4787 120.598 66.193 122.318 68.3076 122.318ZM137.229 130C143.573 130 148.716 124.84 148.716 118.475C148.716 112.111 143.573 106.951 137.229 106.951C130.885 106.951 125.743 112.111 125.743 118.475C125.743 124.84 130.885 130 137.229 130ZM137.228 124.878C140.753 124.878 143.61 122.011 143.61 118.476C143.61 114.94 140.753 112.073 137.228 112.073C133.704 112.073 130.847 114.94 130.847 118.476C130.847 122.011 133.704 124.878 137.228 124.878ZM141.059 118.476C141.059 120.598 139.345 122.318 137.23 122.318C135.115 122.318 133.401 120.598 133.401 118.476C133.401 116.355 135.115 114.635 137.23 114.635C139.345 114.635 141.059 116.355 141.059 118.476ZM204.876 118.475C204.876 124.84 199.733 130 193.389 130C187.045 130 181.902 124.84 181.902 118.475C181.902 112.111 187.045 106.951 193.389 106.951C199.733 106.951 204.876 112.111 204.876 118.475ZM199.77 118.476C199.77 122.011 196.913 124.878 193.388 124.878C189.864 124.878 187.007 122.011 187.007 118.476C187.007 114.94 189.864 112.073 193.388 112.073C196.913 112.073 199.77 114.94 199.77 118.476ZM193.387 122.317C195.502 122.317 197.216 120.597 197.216 118.475C197.216 116.354 195.502 114.634 193.387 114.634C191.272 114.634 189.558 116.354 189.558 118.475C189.558 120.597 191.272 122.317 193.387 122.317ZM104.701 56.4649C103.299 55.134 101.595 54.1626 99.7347 53.6341C97.8748 53.1056 95.9146 53.0356 94.0218 53.4302C93.2632 53.5903 92.5666 53.9652 92.0149 54.51C91.4633 55.0549 91.0798 55.7468 90.9102 56.5034C89.5102 55.1554 87.8015 54.1707 85.9333 53.635C84.0651 53.0993 82.0942 53.029 80.1926 53.4302C79.4185 53.5929 78.7085 53.9774 78.1492 54.5368C77.5899 55.0961 77.2054 55.8061 77.0426 56.5802C76.4955 59.227 76.8329 61.9803 78.003 64.4167C75.8376 62.4109 73.0027 61.2838 70.0512 61.2552C68.0865 61.2736 66.1568 61.7777 64.4343 62.7228C62.7117 63.6679 61.2497 65.0245 60.1787 66.6717C59.7318 67.3272 59.4896 68.1006 59.4828 68.8939C59.476 69.6872 59.7048 70.4646 60.1403 71.1277C61.212 72.7889 62.6775 74.1595 64.4065 75.1178C66.1356 76.0762 68.0745 76.5925 70.0512 76.621C73.0091 76.5994 75.8495 75.4605 78.003 73.4326C76.8169 75.8643 76.4788 78.623 77.0426 81.2692C77.1994 82.046 77.5819 82.7592 78.1422 83.3196C78.7026 83.8799 79.4158 84.2624 80.1926 84.4192C82.0911 84.8253 84.0601 84.7611 85.9281 84.2322C87.7961 83.7032 89.5065 82.7256 90.9103 81.3844C91.0811 82.1364 91.4657 82.823 92.0177 83.3614C92.5698 83.8999 93.2658 84.2672 94.0218 84.4192C95.9115 84.8203 97.8703 84.7573 99.7302 84.2354C101.59 83.7136 103.296 82.7485 104.701 81.4228C104.894 82.1666 105.291 82.8415 105.848 83.371C106.405 83.9006 107.099 84.2637 107.851 84.4192C109.569 84.8082 111.353 84.8022 113.069 84.4018C114.784 84.0013 116.387 83.2168 117.755 82.1073C119.124 80.9977 120.222 79.5922 120.969 77.9964C121.715 76.4007 122.09 74.6563 122.064 72.8948C122.075 72.2112 122.011 71.5284 121.872 70.8588H133.973C134.482 70.8588 134.971 70.6565 135.331 70.2963C135.691 69.9361 135.894 69.4475 135.894 68.9381C135.894 68.4287 135.691 67.9402 135.331 67.58C134.971 67.2198 134.482 67.0174 133.973 67.0174H121.872C122.012 66.3351 122.077 65.6394 122.064 64.943C122.077 63.3995 121.785 61.8686 121.205 60.4382C120.625 59.0077 119.768 57.7058 118.684 56.6071C117.278 55.2276 115.555 54.2151 113.666 53.6591C111.777 53.103 109.78 53.0205 107.851 53.4187C107.095 53.5831 106.399 53.9553 105.842 54.4935C105.286 55.0316 104.891 55.7144 104.701 56.4649ZM118.069 71.1777C118.35 72.486 118.304 73.8434 117.936 75.1299C117.567 76.4163 116.888 77.5921 115.956 78.5533C114.98 79.5067 113.773 80.189 112.452 80.5326C111.132 80.8762 109.744 80.8692 108.427 80.5124C108.321 79.9166 108.269 79.3122 108.274 78.7069C108.254 77.6733 108.445 76.6465 108.834 75.6889C109.224 74.7313 109.804 73.863 110.54 73.1368C111.51 72.1734 112.717 71.4844 114.04 71.1402C115.363 70.7961 116.753 70.809 118.069 71.1777ZM104.24 71.1777C104.524 72.486 104.479 73.8441 104.111 75.131C103.742 76.4179 103.061 77.5936 102.127 78.5533C101.159 79.5064 99.9578 80.189 98.6434 80.5327C97.3289 80.8765 95.9473 80.8695 94.6365 80.5124C94.4987 79.9207 94.4342 79.3143 94.4444 78.7069C94.4246 77.6733 94.6154 76.6465 95.005 75.6889C95.3947 74.7313 95.975 73.863 96.7108 73.1368C97.6803 72.1734 98.8881 71.4844 100.211 71.1402C101.534 70.7961 102.924 70.809 104.24 71.1777ZM90.4109 71.1777C90.6945 72.486 90.65 73.8441 90.2814 75.131C89.9127 76.4179 89.2314 77.5936 88.2981 78.5533C87.3299 79.5064 86.1286 80.189 84.8142 80.5327C83.4997 80.8765 82.1181 80.8695 80.8072 80.5124C80.6884 79.9177 80.6241 79.3133 80.6152 78.7069C80.5954 77.6733 80.7862 76.6465 81.1758 75.6889C81.5654 74.7313 82.1458 73.863 82.8816 73.1368C83.8511 72.1734 85.0589 71.4844 86.3816 71.1403C87.7044 70.7961 89.0947 70.809 90.4109 71.1777ZM76.7737 69.0265C76.0547 70.1628 75.0632 71.1013 73.8891 71.7568C72.715 72.4122 71.3957 72.7638 70.0512 72.7796C68.6826 72.7676 67.3419 72.3911 66.167 71.689C64.9922 70.9868 64.0258 69.9842 63.3671 68.7845C64.0901 67.6657 65.079 66.7434 66.2453 66.0999C67.4116 65.4564 68.7192 65.1117 70.0512 65.0967C71.4159 65.1143 72.7527 65.4857 73.931 66.1745C75.1093 66.8633 76.0888 67.846 76.7737 69.0265ZM115.956 59.3076C116.9 60.2901 117.576 61.4983 117.919 62.8166C118.262 64.1348 118.261 65.5191 117.916 66.8368C117.347 66.9556 116.768 67.0199 116.187 67.0289H116.11C114.015 67.0439 111.998 66.2291 110.502 64.7625C109.093 63.3276 108.306 61.3953 108.312 59.3844C108.309 58.6461 108.399 57.9104 108.581 57.1948C109.889 56.9207 111.245 56.9698 112.53 57.338C113.816 57.7062 114.992 58.3822 115.956 59.3076ZM102.127 59.3076C103.079 60.2849 103.76 61.4929 104.103 62.813C104.447 64.133 104.441 65.5197 104.086 66.8368C103.518 66.9556 102.939 67.0199 102.358 67.0289H102.281C101.249 67.0399 100.224 66.8451 99.2679 66.456C98.3116 66.0669 97.4423 65.4912 96.7108 64.7625C96.0006 64.0592 95.4377 63.2213 95.0551 62.2979C94.6726 61.3744 94.478 60.384 94.4828 59.3844C94.4988 58.6474 94.5889 57.9138 94.7517 57.1948C96.0602 56.9207 97.4158 56.9698 98.7011 57.338C99.9863 57.7062 101.162 58.3822 102.127 59.3076ZM88.2981 59.3076C89.2571 60.28 89.9432 61.4878 90.2871 62.8096C90.631 64.1313 90.6207 65.5203 90.2572 66.8368C89.6884 66.9556 89.1096 67.0199 88.5286 67.0289H88.4517C87.4193 67.0399 86.395 66.8451 85.4387 66.456C84.4823 66.0669 83.6131 65.4912 82.8816 64.7625C82.1733 64.0517 81.6146 63.2062 81.2385 62.2759C80.8624 61.3456 80.6766 60.3494 80.692 59.346C80.6914 58.6205 80.7817 57.8978 80.9609 57.1948C82.2634 56.9205 83.6133 56.9697 84.8924 57.3381C86.1715 57.7064 87.3409 58.3826 88.2981 59.3076ZM15.8116 63.8879L14.0102 67.1402L15.4015 67.9108L15.7598 68.1093L17.1511 68.8799L18.9525 65.6275L17.5612 64.8569L17.2029 64.6585L15.8116 63.8879ZM13.6001 71.1632L12.2088 70.3925L10.4074 73.6449L11.7986 74.4155L12.1569 74.6139L13.5482 75.3845L15.3496 72.1322L13.9583 71.3616L13.6001 71.1632ZM5.00308 83.4019L3.20165 86.6542L4.59294 87.4248L4.95121 87.6233L6.34249 88.3939L8.14392 85.1416L6.75263 84.3709L6.39437 84.1725L5.00308 83.4019ZM1.46856 89.7832L2.43762 88.0336L3.22283 88.4686L2.25378 90.2181L2.18544 90.3415L2.79151 90.6772L3.14978 90.8756L3.75586 91.2113L3.8242 91.0879L4.79325 89.3384L5.57846 89.7733L4.60941 91.5229L4.54107 91.6462L3.64035 93.2724L2.85514 92.8375L2.24906 92.5018L1.8908 92.3034L1.28472 91.9677L0.499512 91.5327L1.40023 89.9066L1.46856 89.7832ZM10.3555 77.8663L11.7468 78.6369L9.94535 81.8892L8.55406 81.1186L8.19579 80.9202L6.8045 80.1496L8.60593 76.8972L9.99722 77.6678L10.3555 77.8663Z" fill="#FCFEFF"/>
</svg>
