<svg width="173" height="152" viewBox="0 0 173 152" fill="none" xmlns="http://www.w3.org/2000/svg">
<rect width="152" height="152" transform="translate(21)" fill="#383A3C"/>
<path fill-rule="evenodd" clip-rule="evenodd" d="M97.9991 76.4999C91.7027 76.4999 85.6145 73.7094 80.8492 68.6452C76.2157 63.7056 73.386 57.1184 72.8868 50.1026C72.3539 42.6187 74.6538 35.7366 79.3609 30.721C84.0679 25.7054 90.6492 23 97.9991 23C105.297 23 111.897 25.754 116.588 30.7575C121.326 35.8096 123.632 42.6795 123.099 50.0995C122.588 57.1244 119.761 63.7086 115.137 68.6421C110.384 73.7094 104.299 76.4999 97.9991 76.4999ZM138.372 130H57.6295C56.3313 130.007 55.0489 129.718 53.8808 129.156C52.7128 128.593 51.6903 127.773 50.892 126.756C50.0452 125.655 49.4605 124.378 49.1815 123.02C48.9026 121.662 48.9366 120.26 49.2811 118.917C51.8598 108.639 58.2481 100.116 67.754 94.2704C76.1912 89.0846 86.9313 86.2272 97.9991 86.2272C109.284 86.2272 119.743 88.963 128.229 94.1458C137.756 99.9609 144.154 108.533 146.72 118.935C147.061 120.279 147.091 121.681 146.809 123.038C146.527 124.395 145.939 125.671 145.091 126.772C144.293 127.783 143.273 128.6 142.109 129.159C140.944 129.719 139.666 130.006 138.372 130Z" fill="#FCFEFF"/>
</svg>
