<svg width="135" height="135" viewBox="0 0 135 135" fill="none" xmlns="http://www.w3.org/2000/svg">
<rect width="135" height="135" fill="#383A3C"/>
<path fill-rule="evenodd" clip-rule="evenodd" d="M36.2502 18.114C36.2502 16.5925 51.9341 5.95581 67.5068 5.95581C83.0796 5.95581 98.7634 16.596 98.7634 18.114C98.7634 23.5331 98.1869 26.7429 97.7007 28.4902C97.3777 29.6366 96.3046 30.2723 95.1134 30.2723H39.9003C38.7091 30.2723 37.6359 29.6366 37.3129 28.4902C36.8267 26.7429 36.2502 23.5331 36.2502 18.114ZM62.2974 16.3772C61.3763 16.3772 60.4929 16.7431 59.8416 17.3946C59.1903 18.0461 58.8244 18.9296 58.8244 19.8509C58.8244 20.7722 59.1903 21.6558 59.8416 22.3073C60.4929 22.9587 61.3763 23.3247 62.2974 23.3247H72.7163C73.6374 23.3247 74.5207 22.9587 75.172 22.3073C75.8233 21.6558 76.1892 20.7722 76.1892 19.8509C76.1892 18.9296 75.8233 18.0461 75.172 17.3946C74.5207 16.7431 73.6374 16.3772 72.7163 16.3772H62.2974ZM39.8552 51.8722C28.2902 48.2943 31.2075 41.9025 35.6181 37.2198H100.361C103.89 41.7288 105.782 47.8114 95.1168 51.4519C95.5528 55.3218 95.1707 59.2401 93.9953 62.9528C92.82 66.6654 90.8776 70.0896 88.2942 73.0031C85.7108 75.9167 82.544 78.2546 78.9992 79.8653C75.4544 81.476 71.6107 82.3235 67.7174 82.3529C63.8241 82.3823 59.9681 81.5928 56.3994 80.0358C52.8307 78.4787 49.629 76.1888 47.002 73.3146C44.3749 70.4403 42.3812 67.0459 41.15 63.3514C39.9188 59.6569 39.4776 55.7448 39.8552 51.8688V51.8722ZM66.5622 54.5887C75.7377 54.5887 82.8504 54.1024 88.3029 53.2548C88.4821 56.087 88.0812 58.9261 87.1248 61.5978C86.1683 64.2696 84.6764 66.7179 82.7406 68.7926C80.8047 70.8673 78.4657 72.5247 75.8668 73.6632C73.2679 74.8018 70.464 75.3975 67.6268 75.4138C64.7896 75.4302 61.979 74.8668 59.3672 73.7583C56.7554 72.6498 54.3974 71.0194 52.4378 68.9671C50.4781 66.9149 48.9582 64.484 47.971 61.8234C46.9838 59.1628 46.5503 56.3286 46.6969 53.4945C51.7778 54.1962 58.2896 54.5887 66.5622 54.5887ZM96.7387 105.306C93.5973 100.404 89.2734 96.3708 84.1651 93.5784C79.0568 90.7859 73.3282 89.3238 67.5068 89.3266C61.683 89.3228 55.9519 90.7852 50.8416 93.5789C45.7313 96.3726 41.4061 100.408 38.2645 105.313C37.0986 103.517 35.308 102.217 33.2392 101.665L26.5294 99.8695C24.3055 99.2731 21.9358 99.5847 19.9415 100.736C17.9472 101.887 16.4918 103.783 15.8952 106.008L13.2002 116.075C12.905 117.176 12.8297 118.325 12.9786 119.456C13.1274 120.587 13.4975 121.677 14.0677 122.665C14.6379 123.653 15.397 124.519 16.3017 125.213C17.2064 125.907 18.2389 126.416 19.3404 126.711L26.0467 128.511C27.1747 128.815 28.3526 128.887 29.5093 128.724C30.666 128.56 31.7777 128.164 32.7773 127.559C32.78 128.48 33.1486 129.363 33.8018 130.012C34.4551 130.662 35.3396 131.025 36.2606 131.022C37.1817 131.02 38.064 130.651 38.7133 129.998C39.3627 129.344 39.7259 128.459 39.7232 127.538V124.064C39.7232 122.741 39.8169 121.438 39.9941 120.163L58.0673 125.009C58.9063 126.805 60.24 128.325 61.912 129.389C63.584 130.454 65.5248 131.019 67.5068 131.019C69.4888 131.019 71.4297 130.454 73.1017 129.389C74.7737 128.325 76.1074 126.805 76.9463 125.009L95.0196 120.163C95.1967 121.438 95.2905 122.741 95.2905 124.064V127.538C95.2859 128.459 95.6474 129.345 96.2954 130C96.9435 130.654 97.825 131.025 98.7461 131.029C99.6672 131.034 100.552 130.672 101.207 130.024C101.861 129.376 102.232 128.494 102.236 127.573C104.181 128.74 106.585 129.146 108.95 128.511L115.659 126.715C116.761 126.42 117.793 125.911 118.698 125.216C119.603 124.522 120.362 123.656 120.932 122.669C121.502 121.681 121.872 120.59 122.021 119.46C122.17 118.329 122.095 117.18 121.8 116.078L119.101 106.011C118.505 103.787 117.049 101.89 115.055 100.739C113.061 99.5882 110.691 99.2766 108.467 99.8729L101.757 101.669C99.6931 102.219 97.9055 103.516 96.7387 105.306ZM41.8174 113.459C43.6934 108.921 46.7372 104.96 50.6393 101.979C54.5414 98.9989 59.1628 97.1048 64.0339 96.4895V110.763C62.4775 111.315 61.0742 112.229 59.9392 113.429C58.8042 114.629 57.9699 116.081 57.5047 117.666L41.8174 113.462V113.459ZM93.1963 113.459C91.3199 108.921 88.2761 104.96 84.3741 101.98C80.472 98.9994 75.8507 97.1051 70.9798 96.4895V110.763C74.1193 111.875 76.5712 114.445 77.5089 117.666L93.1963 113.462V113.459ZM67.5068 124.064C68.4279 124.064 69.3113 123.698 69.9626 123.047C70.6139 122.395 70.9798 121.512 70.9798 120.591C70.9798 119.669 70.6139 118.786 69.9626 118.134C69.3113 117.483 68.4279 117.117 67.5068 117.117C66.5857 117.117 65.7024 117.483 65.0511 118.134C64.3998 118.786 64.0339 119.669 64.0339 120.591C64.0339 121.512 64.3998 122.395 65.0511 123.047C65.7024 123.698 66.5857 124.064 67.5068 124.064Z" fill="#FCFEFF"/>
</svg>
