<svg width="152" height="152" viewBox="0 0 152 152" fill="none" xmlns="http://www.w3.org/2000/svg">
<rect width="152" height="152" fill="#383A3C"/>
<path d="M75.9763 67.9488L73.5538 75.8338C73.0313 77.4488 74.2663 79.1113 75.9763 79.1113H79.5863C81.2963 79.1113 82.4838 77.4488 82.0088 75.8338L79.5863 67.9488C79.0163 66.2388 76.5463 66.2388 75.9763 67.9488ZM70.8463 82.1513C72.8413 83.1963 75.2163 83.8138 77.7813 83.8138C80.2988 83.8138 82.6738 83.1963 84.7163 82.1513C85.3813 81.8188 86.1413 82.5788 85.7138 83.2438C84.8578 84.5693 83.6833 85.6591 82.2976 86.4138C80.9119 87.1684 79.3592 87.5638 77.7813 87.5638C76.2035 87.5638 74.6508 87.1684 73.2651 86.4138C71.8794 85.6591 70.7048 84.5693 69.8488 83.2438C69.4213 82.5788 70.1813 81.7713 70.8463 82.1513ZM66.4763 62.8188C63.3888 62.8188 60.7763 64.9563 60.0638 67.8063C59.8738 68.6138 60.4913 69.4213 61.3463 69.4213H63.3271C63.1612 68.7939 63.1416 68.1368 63.27 67.5006C63.3983 66.8645 63.671 66.2663 64.0671 65.7523C64.4632 65.2382 64.9721 64.822 65.5545 64.5357C66.137 64.2495 66.7773 64.1009 67.4263 64.1013C69.8013 64.1013 71.6538 66.0013 71.6063 68.3288C71.6098 68.697 71.5667 69.064 71.4781 69.4213H71.8438C72.5088 69.4213 73.0313 68.8038 72.9363 68.1388C72.3663 65.1463 69.6588 62.8188 66.4763 62.8188ZM89.0388 62.8188C92.1263 62.8188 94.7388 64.9563 95.4513 67.8063C95.6413 68.6138 95.0238 69.4213 94.1688 69.4213H92.1833C92.3491 68.7943 92.3687 68.1376 92.2407 67.5018C92.1126 66.866 91.8403 66.2681 91.4447 65.7541C91.0492 65.2402 90.5409 64.8239 89.9591 64.5373C89.3772 64.2508 88.7374 64.1016 88.0888 64.1013C85.7613 64.1013 83.8613 66.0013 83.9088 68.3288C83.9088 68.7373 83.9563 69.0603 84.0371 69.4213H83.6713C83.0063 69.4213 82.4838 68.8038 82.5788 68.1388C83.1963 65.1463 85.8563 62.8188 89.0388 62.8188Z" fill="#FCFEFF"/>
<path d="M67.4264 65.9063C67.8437 65.909 68.2533 66.019 68.6158 66.2258C68.9782 66.4325 69.2814 66.7291 69.4961 67.087C69.7108 67.4448 69.8298 67.8518 69.8417 68.269C69.8536 68.6861 69.7579 69.0993 69.5639 69.4688H65.2889C65.0891 69.0979 64.9905 68.6809 65.003 68.2598C65.0155 67.8387 65.1387 67.4284 65.3602 67.07C65.4181 67.163 65.4954 67.2424 65.5869 67.3028C65.6783 67.3631 65.7817 67.4029 65.89 67.4196C65.9983 67.4362 66.109 67.4292 66.2143 67.3991C66.3196 67.369 66.4172 67.3164 66.5004 67.2451C66.5835 67.1737 66.6502 67.0852 66.696 66.9857C66.7417 66.8861 66.7654 66.7778 66.7654 66.6682C66.7654 66.5587 66.7416 66.4504 66.6959 66.3509C66.6501 66.2513 66.5833 66.1628 66.5002 66.0915C66.7935 65.9686 67.1084 65.9056 67.4264 65.9063ZM88.0889 65.9063C87.7933 65.9062 87.5001 65.961 87.2244 66.0678C87.3488 66.1651 87.4398 66.2987 87.4847 66.4502C87.5296 66.6016 87.5262 66.7632 87.475 66.9126C87.4238 67.062 87.3273 67.1918 87.199 67.2838C87.0707 67.3759 86.9168 67.4257 86.7589 67.4263C86.615 67.4268 86.4738 67.3865 86.3519 67.31C86.2299 67.2335 86.1323 67.1239 86.0702 66.994C85.8275 67.3568 85.6883 67.7789 85.6673 68.2149C85.6464 68.6509 85.7446 69.0844 85.9514 69.4688H90.2264C90.4204 69.0993 90.5161 68.6861 90.5042 68.269C90.4923 67.8518 90.3733 67.4448 90.1586 67.087C89.9439 66.7291 89.6407 66.4325 89.2783 66.2258C88.9158 66.019 88.5062 65.909 88.0889 65.9063Z" fill="#FCFEFF"/>
<path d="M137.299 147.25H19L19.3895 142.139C20.2153 132.318 23.4065 122.842 28.6905 114.523C33.9745 106.203 41.1941 99.2863 49.7325 94.3635C48.6586 92.1121 47.9821 89.6919 47.7327 87.21L47.3148 81.51C44.9439 80.5531 42.9107 78.9135 41.4731 76.7993C40.0354 74.6852 39.2581 72.1916 39.2397 69.635C39.2511 66.92 40.128 64.2793 41.743 62.0967C39.3545 59.3304 38.0782 55.7757 38.1615 52.1217C38.1462 49.6522 38.7056 47.2129 39.7955 44.9967C40.1873 41.619 41.7624 38.4891 44.2415 36.1617V33.155C44.2353 27.9129 46.0193 22.8258 49.2983 18.7357C52.5772 14.6457 57.1545 11.7979 62.2725 10.6637C63.5928 8.83325 65.3291 7.34255 67.3383 6.31441C69.3476 5.28626 71.5723 4.75008 73.8293 4.75H82.5217C84.7706 4.7545 86.9863 5.29297 88.9863 6.32109C90.9864 7.34921 92.7138 8.83759 94.0263 10.6637C99.1473 11.7949 103.728 14.6413 107.011 18.7315C110.294 22.8218 112.081 27.9105 112.076 33.155V36.3137C114.394 38.5557 115.9 41.5102 116.351 44.707C117.558 47.006 118.171 49.571 118.123 52.1645C118.204 55.8122 116.918 59.3583 114.518 62.1062C116.118 64.2817 116.988 66.9038 116.997 69.6065C116.988 72.1706 116.215 74.6737 114.777 76.7964C113.338 78.9191 111.3 80.5651 108.922 81.5243L108.504 87.077C108.266 89.6523 107.571 92.1646 106.452 94.4965C115.026 99.3727 122.286 106.262 127.603 114.569C132.921 122.877 136.138 132.354 136.976 142.182L137.299 147.25ZM114.19 137.75V112.594C111.263 109.446 107.942 106.689 104.31 104.391V137.75H114.19ZM91.067 137.75H99.5648V101.735C98.9283 101.422 98.2823 101.123 97.6315 100.838L94.202 99.4508C93.207 100.029 92.1568 100.506 91.067 100.876V137.75ZM78.1708 108.347C83.7663 108.347 88.5115 105.312 90.2737 101.128C88.7062 101.579 87.0485 101.816 85.3338 101.816H70.1338C68.78 101.816 67.4595 101.664 66.1913 101.379C68.0105 105.455 72.6798 108.347 78.1708 108.347ZM61.4982 99.56L58.5153 100.762C57.9453 101.018 57.3753 101.284 56.8148 101.564V137.75H65.1652V101.113C63.8732 100.733 62.6478 100.211 61.4935 99.5648L61.4982 99.56ZM51.2382 66.1817L50.2265 66.9085C49.7814 67.207 49.4151 67.6086 49.1587 68.0792C48.9023 68.5498 48.7635 69.0754 48.754 69.6112C48.7973 70.4237 49.112 71.1981 49.6477 71.8104C50.1834 72.4227 50.909 72.8376 51.7085 72.9885L51.243 66.1817H51.2382ZM59.0758 60.5625H55.6177L57.2992 85.0868C58.007 92.1548 63.5218 97.0662 70.1338 97.0662H85.3338C92.0028 97.0662 97.508 92.15 98.1682 85.0963L99.8925 60.5625H96.463C96.3821 60.9205 96.2231 61.2563 95.9975 61.5457C95.7424 61.8537 95.4233 62.1025 95.0624 62.2748C94.7015 62.447 94.3074 62.5386 93.9075 62.5432C93.385 62.5432 92.815 62.3533 92.34 62.0208L92.321 62.0113C90.5573 60.8629 88.4424 60.3797 86.355 60.648C86.003 60.6947 85.6451 60.6656 85.3052 60.5625H69.9152C69.6666 60.6112 69.412 60.6224 69.16 60.5957C69.0494 60.5827 68.9385 60.5716 68.8275 60.5625H67.2457C64.809 60.7715 63.2558 61.8972 63.175 61.9732C62.6525 62.3532 62.13 62.4957 61.56 62.4957C60.7525 62.4957 59.9925 62.1633 59.5175 61.4508C59.3106 61.1876 59.1587 60.8856 59.071 60.5625H59.0758ZM103.773 73.055L103.987 73.036C104.893 72.9946 105.753 72.6204 106.4 71.985C107.048 71.3496 107.439 70.4977 107.497 69.5923C107.487 69.0519 107.346 68.522 107.085 68.0486C106.825 67.5752 106.452 67.1724 106.001 66.8753L104.847 66.291L104.258 66.196L103.773 73.055ZM48.9583 55.8125H107.345C107.798 55.313 108.144 54.7263 108.362 54.0884C108.58 53.4505 108.666 52.7749 108.613 52.1027C108.661 50.9627 108.371 49.8418 107.782 48.868L107.497 48.4405H48.7967L48.4737 48.9535C47.9204 49.9159 47.6427 51.012 47.671 52.1217C47.6105 52.7927 47.6936 53.4689 47.9148 54.1053C48.1359 54.7416 48.49 55.3236 48.9535 55.8125H48.9583ZM52.0648 104.239C48.1099 106.758 44.5269 109.818 41.42 113.33V137.75H52.06V104.239H52.0648ZM59.1518 38.9453V22.3202C57.4745 23.5812 56.114 25.2156 55.1782 27.0938C54.2424 28.972 53.757 31.0423 53.7605 33.1408V38.9453H59.1518ZM86.7825 38.9453V17.024L86.7493 16.948C86.3742 16.138 85.7749 15.4525 85.0223 14.9727C84.2697 14.4928 83.3953 14.2387 82.5027 14.2405H73.8293C72.9306 14.2417 72.051 14.4994 71.2938 14.9832C70.5365 15.467 69.933 16.1569 69.5542 16.9717L68.6518 18.9193V38.95L86.7825 38.9453ZM102.609 38.9453V33.155C102.612 30.8644 102.033 28.6107 100.926 26.6051C99.8194 24.5995 98.2216 22.9078 96.2825 21.6885V38.9453H102.609Z" fill="#FCFEFF"/>
</svg>
