<svg width="160" height="160" viewBox="0 0 160 160" fill="none" xmlns="http://www.w3.org/2000/svg">
<path d="M80 124.533V129.22C80.0013 129.842 80.2488 130.437 80.6883 130.877C81.1278 131.316 81.7235 131.564 82.345 131.565H150.315V122.19H82.345C81.7239 122.191 81.1286 122.438 80.6892 122.877C80.2498 123.316 80.002 123.911 80 124.533ZM150.312 108.125H82.345C81.7235 108.126 81.1278 108.374 80.6883 108.813C80.2488 109.253 80.0013 109.848 80 110.47V115.157C80.002 115.779 80.2498 116.374 80.6892 116.813C81.1286 117.252 81.7239 117.499 82.345 117.5H150.315L150.312 108.125Z" fill="#FCFEFF"/>
<path d="M152.658 145.625H150.312V136.25H82.345C81.7237 136.252 81.1284 136.5 80.689 136.939C80.2497 137.378 80.002 137.974 80 138.595V145.628H75.3125V105.783C75.3138 105.161 75.5613 104.565 76.0008 104.126C76.4403 103.686 77.036 103.439 77.6575 103.438H150.315V94.0625C150.312 92.8203 149.817 91.6299 148.938 90.7516C148.06 89.8732 146.87 89.3783 145.628 89.375H112.812V56.5625C112.809 52.8339 111.327 49.259 108.69 46.6225C106.054 43.986 102.479 42.5033 98.75 42.5H87.03V23.75C87.03 18.7772 85.0546 14.0081 81.5382 10.4917C78.0219 6.97544 73.2528 5 68.28 5C63.3072 5 58.5381 6.97544 55.0217 10.4917C51.5054 14.0081 49.53 18.7772 49.53 23.75V42.5H37.81C34.0818 42.504 30.5076 43.9869 27.8716 46.6233C25.2356 49.2598 23.7533 52.8343 23.75 56.5625V89.375H21.4075C20.1175 89.375 18.4775 90.2525 17.765 91.325L10.9875 101.485C10.275 102.56 9.6875 104.49 9.6875 105.78V145.625H7.345C6.72368 145.627 6.12836 145.875 5.68902 146.314C5.24967 146.753 5.00198 147.349 5 147.97V152.658C5.00198 153.279 5.24976 153.874 5.68917 154.313C6.12859 154.752 6.72391 154.999 7.345 155H152.658C153.278 154.998 153.873 154.751 154.312 154.312C154.751 153.873 154.998 153.278 155 152.658V147.97C154.998 147.349 154.751 146.754 154.312 146.315C153.873 145.876 153.278 145.628 152.658 145.625ZM56.5625 131.562V145.625H54.2175V131.562H46.015V136.25C46.66 136.25 47.1875 136.78 47.1875 137.423V139.768C47.1868 140.078 47.0631 140.376 46.8434 140.596C46.6236 140.816 46.3258 140.939 46.015 140.94V145.628H43.67V140.94C43.3592 140.939 43.0614 140.816 42.8416 140.596C42.6219 140.376 42.4982 140.078 42.4975 139.768V137.423C42.4975 136.78 43.025 136.25 43.67 136.25V131.562H35.4675V145.625H33.125V129.217H56.565L56.5625 131.562ZM68.2825 8.515C72.3216 8.51963 76.194 10.1262 79.0502 12.9823C81.9063 15.8385 83.5129 19.7108 83.5175 23.75C83.5175 32.15 76.685 38.985 68.2825 38.985C59.88 38.985 53.0475 32.15 53.0475 23.75C53.0515 19.7106 54.6579 15.8379 57.5141 12.9816C60.3704 10.1254 64.2431 8.51897 68.2825 8.515ZM28.4375 56.5625C28.4448 54.0783 29.4348 51.698 31.1914 49.9414C32.948 48.1848 35.3283 47.1948 37.8125 47.1875H98.75C101.234 47.1948 103.615 48.1848 105.371 49.9414C107.128 51.698 108.118 54.0783 108.125 56.5625V89.375H65.9375C64.6953 89.3783 63.5049 89.8732 62.6266 90.7516C61.7482 91.6299 61.2533 92.8203 61.25 94.0625V145.625H58.905V127.577H30.78V145.625H28.435V56.5625H28.4375ZM16.72 102.265C16.72 101.622 17.2475 101.092 17.8925 101.092H20.2375C20.8825 101.092 21.41 101.622 21.41 102.265V113.985C21.4087 114.296 21.2847 114.593 21.0651 114.813C20.8455 115.032 20.5481 115.156 20.2375 115.158H17.89C17.5794 115.156 17.282 115.032 17.0624 114.813C16.8428 114.593 16.7188 114.296 16.7175 113.985V102.265H16.72ZM16.72 123.36C16.72 122.718 17.2475 122.188 17.8925 122.188H20.2375C20.8825 122.188 21.41 122.718 21.41 123.36V135.08C21.4093 135.391 21.2856 135.689 21.0659 135.908C20.8461 136.128 20.5483 136.252 20.2375 136.253H17.89C17.5792 136.252 17.2814 136.128 17.0616 135.908C16.8419 135.689 16.7182 135.391 16.7175 135.08V123.36H16.72Z" fill="#FCFEFF"/>
<path d="M34.2975 87.0327H36.6425C36.9531 87.0314 37.2505 86.9074 37.4701 86.6879C37.6897 86.4682 37.8137 86.1708 37.815 85.8602V74.1402C37.8137 73.8297 37.6897 73.5322 37.4701 73.3126C37.2505 73.093 36.9531 72.969 36.6425 72.9677H34.2975C33.9869 72.969 33.6895 73.093 33.4699 73.3126C33.2503 73.5322 33.1263 73.8297 33.125 74.1402V85.8602C33.125 86.5027 33.6525 87.0327 34.2975 87.0327ZM43.6725 87.0327H46.0175C46.3281 87.0314 46.6255 86.9074 46.8451 86.6879C47.0647 86.4682 47.1887 86.1708 47.19 85.8602V74.1402C47.1887 73.8297 47.0647 73.5322 46.8451 73.3126C46.6255 73.093 46.3281 72.969 46.0175 72.9677H43.6725C43.3619 72.969 43.0645 73.093 42.8449 73.3126C42.6253 73.5322 42.5013 73.8297 42.5 74.1402V85.8602C42.5 86.5027 43.0275 87.0327 43.6725 87.0327ZM53.0475 87.0327H55.3925C55.7031 87.0314 56.0005 86.9074 56.2201 86.6879C56.4397 86.4682 56.5637 86.1708 56.565 85.8602V74.1402C56.5637 73.8297 56.4397 73.5322 56.2201 73.3126C56.0005 73.093 55.7031 72.969 55.3925 72.9677H53.0475C52.7369 72.969 52.4395 73.093 52.2199 73.3126C52.0003 73.5322 51.8763 73.8297 51.875 74.1402V85.8602C51.875 86.5027 52.4025 87.0327 53.0475 87.0327ZM62.4225 87.0327H64.7675C65.0781 87.0314 65.3755 86.9074 65.5951 86.6879C65.8147 86.4682 65.9387 86.1708 65.94 85.8602V74.1402C65.9387 73.8297 65.8147 73.5322 65.5951 73.3126C65.3755 73.093 65.0781 72.969 64.7675 72.9677H62.4225C62.1119 72.969 61.8145 73.093 61.5949 73.3126C61.3753 73.5322 61.2513 73.8297 61.25 74.1402V85.8602C61.25 86.5027 61.7775 87.0327 62.4225 87.0327ZM71.7975 87.0327H74.1425C74.4531 87.0314 74.7505 86.9074 74.9701 86.6879C75.1897 86.4682 75.3137 86.1708 75.315 85.8602V74.1402C75.3137 73.8297 75.1897 73.5322 74.9701 73.3126C74.7505 73.093 74.4531 72.969 74.1425 72.9677H71.7975C71.4869 72.969 71.1895 73.093 70.9699 73.3126C70.7503 73.5322 70.6263 73.8297 70.625 74.1402V85.8602C70.625 86.5027 71.1525 87.0327 71.7975 87.0327ZM34.2975 105.783H36.6425C36.9531 105.781 37.2505 105.657 37.4701 105.438C37.6897 105.218 37.8137 104.921 37.815 104.61V92.8902C37.8137 92.5797 37.6897 92.2822 37.4701 92.0626C37.2505 91.843 36.9531 91.719 36.6425 91.7177H34.2975C33.9869 91.719 33.6895 91.843 33.4699 92.0626C33.2503 92.2822 33.1263 92.5797 33.125 92.8902V104.61C33.125 105.253 33.6525 105.783 34.2975 105.783ZM43.6725 105.783H46.0175C46.3281 105.781 46.6255 105.657 46.8451 105.438C47.0647 105.218 47.1887 104.921 47.19 104.61V92.8902C47.1887 92.5797 47.0647 92.2822 46.8451 92.0626C46.6255 91.843 46.3281 91.719 46.0175 91.7177H43.6725C43.3619 91.719 43.0645 91.843 42.8449 92.0626C42.6253 92.2822 42.5013 92.5797 42.5 92.8902V104.61C42.5 105.253 43.0275 105.783 43.6725 105.783ZM53.0475 105.783H55.3925C55.7031 105.781 56.0005 105.657 56.2201 105.438C56.4397 105.218 56.5637 104.921 56.565 104.61V92.8902C56.5637 92.5797 56.4397 92.2822 56.2201 92.0626C56.0005 91.843 55.7031 91.719 55.3925 91.7177H53.0475C52.7369 91.719 52.4395 91.843 52.2199 92.0626C52.0003 92.2822 51.8763 92.5797 51.875 92.8902V104.61C51.875 105.253 52.4025 105.783 53.0475 105.783ZM34.2975 124.533H36.6425C36.9531 124.531 37.2505 124.407 37.4701 124.188C37.6897 123.968 37.8137 123.671 37.815 123.36V111.64C37.8137 111.33 37.6897 111.032 37.4701 110.813C37.2505 110.593 36.9531 110.469 36.6425 110.468H34.2975C33.9869 110.469 33.6895 110.593 33.4699 110.813C33.2503 111.032 33.1263 111.33 33.125 111.64V123.36C33.125 124.003 33.6525 124.533 34.2975 124.533ZM43.6725 124.533H46.0175C46.3281 124.531 46.6255 124.407 46.8451 124.188C47.0647 123.968 47.1887 123.671 47.19 123.36V111.64C47.1887 111.33 47.0647 111.032 46.8451 110.813C46.6255 110.593 46.3281 110.469 46.0175 110.468H43.6725C43.3619 110.469 43.0645 110.593 42.8449 110.813C42.6253 111.032 42.5013 111.33 42.5 111.64V123.36C42.5 124.003 43.0275 124.533 43.6725 124.533ZM53.0475 124.533H55.3925C55.7031 124.531 56.0005 124.407 56.2201 124.188C56.4397 123.968 56.5637 123.671 56.565 123.36V111.64C56.5637 111.33 56.4397 111.032 56.2201 110.813C56.0005 110.593 55.7031 110.469 55.3925 110.468H53.0475C52.7369 110.469 52.4395 110.593 52.2199 110.813C52.0003 111.032 51.8763 111.33 51.875 111.64V123.36C51.875 124.003 52.4025 124.533 53.0475 124.533ZM34.2975 68.2827H36.6425C36.9531 68.2814 37.2505 68.1574 37.4701 67.9378C37.6897 67.7182 37.8137 67.4208 37.815 67.1102V55.3902C37.8137 55.0797 37.6897 54.7822 37.4701 54.5626C37.2505 54.343 36.9531 54.219 36.6425 54.2177H34.2975C33.9869 54.219 33.6895 54.343 33.4699 54.5626C33.2503 54.7822 33.1263 55.0797 33.125 55.3902V67.1102C33.125 67.7527 33.6525 68.2827 34.2975 68.2827ZM43.6725 68.2827H46.0175C46.3281 68.2814 46.6255 68.1574 46.8451 67.9378C47.0647 67.7182 47.1887 67.4208 47.19 67.1102V55.3902C47.1887 55.0797 47.0647 54.7822 46.8451 54.5626C46.6255 54.343 46.3281 54.219 46.0175 54.2177H43.6725C43.3619 54.219 43.0645 54.343 42.8449 54.5626C42.6253 54.7822 42.5013 55.0797 42.5 55.3902V67.1102C42.5 67.7527 43.0275 68.2827 43.6725 68.2827ZM53.0475 68.2827H55.3925C55.7031 68.2814 56.0005 68.1574 56.2201 67.9378C56.4397 67.7182 56.5637 67.4208 56.565 67.1102V55.3902C56.5637 55.0797 56.4397 54.7822 56.2201 54.5626C56.0005 54.343 55.7031 54.219 55.3925 54.2177H53.0475C52.7369 54.219 52.4395 54.343 52.2199 54.5626C52.0003 54.7822 51.8763 55.0797 51.875 55.3902V67.1102C51.875 67.7527 52.4025 68.2827 53.0475 68.2827ZM62.4225 68.2827H64.7675C65.0781 68.2814 65.3755 68.1574 65.5951 67.9378C65.8147 67.7182 65.9387 67.4208 65.94 67.1102V55.3902C65.9387 55.0797 65.8147 54.7822 65.5951 54.5626C65.3755 54.343 65.0781 54.219 64.7675 54.2177H62.4225C62.1119 54.219 61.8145 54.343 61.5949 54.5626C61.3753 54.7822 61.2513 55.0797 61.25 55.3902V67.1102C61.25 67.7527 61.7775 68.2827 62.4225 68.2827ZM71.7975 68.2827H74.1425C74.4531 68.2814 74.7505 68.1574 74.9701 67.9378C75.1897 67.7182 75.3137 67.4208 75.315 67.1102V55.3902C75.3137 55.0797 75.1897 54.7822 74.9701 54.5626C74.7505 54.343 74.4531 54.219 74.1425 54.2177H71.7975C71.4869 54.219 71.1895 54.343 70.9699 54.5626C70.7503 54.7822 70.6263 55.0797 70.625 55.3902V67.1102C70.625 67.7527 71.1525 68.2827 71.7975 68.2827ZM81.1725 87.0327H83.5175C83.8281 87.0314 84.1255 86.9074 84.3451 86.6879C84.5647 86.4682 84.6887 86.1708 84.69 85.8602V74.1402C84.6887 73.8297 84.5647 73.5322 84.3451 73.3126C84.1255 73.093 83.8281 72.969 83.5175 72.9677H81.1725C80.8619 72.969 80.5645 73.093 80.3449 73.3126C80.1253 73.5322 80.0013 73.8297 80 74.1402V85.8602C80 86.5027 80.5275 87.0327 81.1725 87.0327ZM81.1725 68.2827H83.5175C83.8281 68.2814 84.1255 68.1574 84.3451 67.9378C84.5647 67.7182 84.6887 67.4208 84.69 67.1102V55.3902C84.6887 55.0797 84.5647 54.7822 84.3451 54.5626C84.1255 54.343 83.8281 54.219 83.5175 54.2177H81.1725C80.8619 54.219 80.5645 54.343 80.3449 54.5626C80.1253 54.7822 80.0013 55.0797 80 55.3902V67.1102C80 67.7527 80.5275 68.2827 81.1725 68.2827ZM90.5475 87.0327H92.8925C93.2031 87.0314 93.5005 86.9074 93.7201 86.6879C93.9397 86.4682 94.0637 86.1708 94.065 85.8602V74.1402C94.0637 73.8297 93.9397 73.5322 93.7201 73.3126C93.5005 73.093 93.2031 72.969 92.8925 72.9677H90.5475C90.2369 72.969 89.9395 73.093 89.7199 73.3126C89.5003 73.5322 89.3763 73.8297 89.375 74.1402V85.8602C89.375 86.5027 89.9025 87.0327 90.5475 87.0327ZM90.5475 68.2827H92.8925C93.2031 68.2814 93.5005 68.1574 93.7201 67.9378C93.9397 67.7182 94.0637 67.4208 94.065 67.1102V55.3902C94.0637 55.0797 93.9397 54.7822 93.7201 54.5626C93.5005 54.343 93.2031 54.219 92.8925 54.2177H90.5475C90.2369 54.219 89.9395 54.343 89.7199 54.5626C89.5003 54.7822 89.3763 55.0797 89.375 55.3902V67.1102C89.375 67.7527 89.9025 68.2827 90.5475 68.2827ZM99.9225 87.0327H102.267C102.578 87.0314 102.876 86.9074 103.095 86.6879C103.315 86.4682 103.439 86.1708 103.44 85.8602V74.1402C103.439 73.8297 103.315 73.5322 103.095 73.3126C102.876 73.093 102.578 72.969 102.267 72.9677H99.9225C99.6119 72.969 99.3145 73.093 99.0949 73.3126C98.8753 73.5322 98.7513 73.8297 98.75 74.1402V85.8602C98.75 86.5027 99.2775 87.0327 99.9225 87.0327ZM99.9225 68.2827H102.267C102.578 68.2814 102.876 68.1574 103.095 67.9378C103.315 67.7182 103.439 67.4208 103.44 67.1102V55.3902C103.439 55.0797 103.315 54.7822 103.095 54.5626C102.876 54.343 102.578 54.219 102.267 54.2177H99.9225C99.6119 54.219 99.3145 54.343 99.0949 54.5626C98.8753 54.7822 98.7513 55.0797 98.75 55.3902V67.1102C98.75 67.7527 99.2775 68.2827 99.9225 68.2827ZM64.375 27.6577V33.5177C64.375 34.5927 65.2575 35.4702 66.3275 35.4702H70.235C70.7522 35.4682 71.2477 35.2619 71.6134 34.8962C71.9792 34.5304 72.1855 34.0349 72.1875 33.5177V27.6577H78.0475C79.1225 27.6577 80 26.7777 80 25.7052V21.7977C79.9987 21.2803 79.7925 20.7844 79.4267 20.4185C79.0608 20.0527 78.5649 19.8465 78.0475 19.8452H72.1875V13.9852C72.1855 13.468 71.9792 12.9725 71.6134 12.6068C71.2477 12.241 70.7522 12.0347 70.235 12.0327H66.3275C65.8103 12.0347 65.3148 12.241 64.9491 12.6068C64.5833 12.9725 64.377 13.468 64.375 13.9852V19.8452H58.515C57.9976 19.8465 57.5017 20.0527 57.1358 20.4185C56.7699 20.7844 56.5638 21.2803 56.5625 21.7977V25.7052C56.5625 26.7802 57.4425 27.6577 58.515 27.6577H64.375Z" fill="#FCFEFF"/>
</svg>
