<svg width="152" height="152" viewBox="0 0 152 152" fill="none" xmlns="http://www.w3.org/2000/svg">
<path d="M85.6342 34.6977C87.2911 34.6977 88.6342 36.0409 88.6342 37.6977V110.97C88.6342 112.627 87.2911 113.97 85.6342 113.97H30.9897C29.3329 113.97 27.9897 112.627 27.9897 110.97V37.6977C27.9897 36.0409 29.3329 34.6977 30.9897 34.6977H85.6342ZM98.7417 28.0889C98.7417 26.4321 97.3985 25.0889 95.7417 25.0889H20.8823C19.2255 25.0889 17.8823 26.4321 17.8823 28.0889V122.981C17.8823 124.638 19.2255 125.981 20.8823 125.981H95.7417C97.3985 125.981 98.7417 124.638 98.7417 122.981V75.5351V28.0889ZM35.5703 47.3065C35.5703 45.6497 36.9134 44.3065 38.5703 44.3065H78.0537C79.7105 44.3065 81.0537 45.6497 81.0537 47.3065V50.9153C81.0537 52.5722 79.7105 53.9153 78.0537 53.9153H38.5703C36.9134 53.9153 35.5703 52.5722 35.5703 50.9153V47.3065ZM35.5703 64.1219C35.5703 62.4651 36.9134 61.1219 38.5703 61.1219H78.0537C79.7105 61.1219 81.0537 62.4651 81.0537 64.1219V67.7307C81.0537 69.3876 79.7105 70.7307 78.0537 70.7307H38.5703C36.9134 70.7307 35.5703 69.3876 35.5703 67.7307V64.1219ZM35.5703 80.9373C35.5703 79.2805 36.9134 77.9373 38.5703 77.9373H78.0537C79.7105 77.9373 81.0537 79.2805 81.0537 80.9373V84.5462C81.0537 86.203 79.7105 87.5462 78.0537 87.5462H38.5703C36.9134 87.5462 35.5703 86.203 35.5703 84.5462V80.9373ZM35.5703 97.7527C35.5703 96.0959 36.9134 94.7527 38.5703 94.7527H78.0537C79.7105 94.7527 81.0537 96.0959 81.0537 97.7527V101.362C81.0537 103.018 79.7105 104.362 78.0537 104.362H38.5703C36.9134 104.362 35.5703 103.018 35.5703 101.362V97.7527ZM113.903 47.3065C113.903 45.6497 115.246 44.3065 116.903 44.3065H131.118C132.774 44.3065 134.118 45.6497 134.118 47.3065V108.568C134.118 110.225 132.774 111.568 131.118 111.568H116.903C115.246 111.568 113.903 110.225 113.903 108.568V47.3065ZM124.025 17.8823C118.481 17.8823 113.903 22.1222 113.903 27.3398V34.0999C113.903 35.7568 115.246 37.0999 116.903 37.0999H131.118C132.774 37.0999 134.118 35.7568 134.118 34.0999V27.3398C134.118 22.1222 129.547 17.8823 124.025 17.8823ZM119.346 118.775C116.951 118.775 115.522 121.443 116.849 123.437L121.453 130.356C122.642 132.142 125.267 132.139 126.452 130.35L131.034 123.431C132.355 121.437 130.925 118.775 128.533 118.775H119.346Z" fill="#383A3C"/>
</svg>
