<svg width="106" height="125" viewBox="0 0 106 125" fill="none" xmlns="http://www.w3.org/2000/svg">
<g id="Harta Italia">
<path id="Union" fill-rule="evenodd" clip-rule="evenodd" d="M2.8921 15.429L11.4623 13.5685C12.0019 13.4514 12.469 13.1164 12.753 12.643L13.969 10.6165C14.6713 9.44588 16.3141 9.3074 17.2025 10.3439L19.4831 13.0046C20.447 14.1292 22.2564 13.8523 22.8399 12.4908L24.0445 9.68012C24.4075 8.83298 25.3025 8.34363 26.2116 8.49517L29.3834 9.02385C30.2494 9.16821 31.1084 8.73082 31.501 7.94549L32.5291 5.88934C32.7663 5.41491 33.1823 5.05414 33.6855 4.8864L35.6805 4.22142C35.8844 4.15344 36.098 4.11879 36.3129 4.11879H38.8706C39.6282 4.11879 40.3207 3.69078 40.6595 3.01321L41.6131 1.10606C41.9519 0.428471 42.6444 0.00046261 43.402 0.000488282L47.0678 0.00061157C47.2313 0.000617216 47.3941 0.0206717 47.5528 0.0603271L50.5399 0.807109C51.1063 0.94871 51.5826 1.33074 51.8437 1.85294L53.0801 4.32566C53.3412 4.84785 53.8174 5.22987 54.3838 5.37148L60.6631 6.94143C61.3264 7.10728 61.8591 7.60055 62.0753 8.24924L62.7577 10.2965L63.7873 13.385L64.1957 15.0185C64.5112 16.2808 63.5565 17.5036 62.2554 17.5036H58.9639C58.749 17.5036 58.5354 17.5382 58.3315 17.6062L55.5506 18.5332L52.5967 19.5178C52.5069 19.5477 52.4194 19.584 52.3347 19.6263L50.3699 20.6087C49.2939 21.1467 48.9329 22.506 49.6002 23.507L50.2127 24.4256C50.3384 24.6143 50.4954 24.7802 50.6768 24.9162L52.6762 26.4158C53.6499 27.1461 53.7511 28.5694 52.8904 29.43L52.0181 30.3024C51.643 30.6775 51.4323 31.1862 51.4323 31.7166V35.0069C51.4323 35.6528 51.7442 36.2589 52.2698 36.6343L58.6394 41.184L61.4698 43.071C61.641 43.1851 61.7936 43.325 61.9221 43.4857L65.4082 47.8433C65.6919 48.1979 65.8465 48.6385 65.8465 49.0927L65.8465 54.7698C65.8465 55.3002 66.0572 55.8089 66.4323 56.184L69.8643 59.6161C69.9312 59.683 70.0028 59.7451 70.0785 59.8019L77.4399 65.3229C77.9218 65.6843 78.5407 65.8093 79.125 65.6632L83.9531 64.4562C85.2154 64.1406 86.4382 65.0953 86.4382 66.3965V70.9109C86.4382 71.6287 86.8228 72.2914 87.4459 72.6474L93.3347 76.0124C93.5401 76.1298 93.7648 76.2098 93.9982 76.2487L104.329 77.9706C105.293 78.1313 106 78.9657 106 79.9434V83.397L106 85.4133C106 87.0903 104.06 88.0227 102.751 86.975L101.166 85.7072C100.959 85.5415 100.721 85.4187 100.466 85.3458L93.9146 83.474C93.7359 83.4229 93.551 83.397 93.3652 83.397H90.4974C89.3928 83.397 88.4974 84.2925 88.4974 85.397V88.4422C88.4974 89.1447 88.866 89.7957 89.4684 90.1572L92.6743 92.0807C93.2767 92.4421 93.6453 93.0932 93.6453 93.7957V95.6493C93.6453 96.3518 93.2767 97.0028 92.6743 97.3643L89.4684 99.2878C88.866 99.6492 88.4974 100.3 88.4974 101.003V104.546C88.4974 104.857 88.4251 105.163 88.2862 105.441L86.991 108.031C86.6522 108.709 85.9597 109.137 85.2021 109.137H80.7328C80.4223 109.137 80.1161 109.209 79.8384 109.348L78.4918 110.021C78.2995 110.117 78.124 110.244 77.972 110.396L77.7577 110.61C77.3826 110.985 77.1719 111.494 77.1719 112.024L77.1719 112.783C77.1719 113.093 77.0996 113.4 76.9608 113.677L76.5128 114.573C76.2756 115.048 76.2366 115.597 76.4043 116.1L77.1719 118.403L77.8106 120.319C78.0502 121.038 77.8631 121.83 77.3275 122.366L76.4762 123.217C76.2566 123.437 75.989 123.602 75.6944 123.7L74.0477 124.249C73.4251 124.457 72.7403 124.345 72.2152 123.952L68.9352 121.492L66.0693 119.581C65.9214 119.482 65.761 119.404 65.5924 119.348L62.8926 118.448C62.8028 118.418 62.7152 118.382 62.6306 118.339L59.1144 116.581C58.8031 116.426 58.5378 116.191 58.3448 115.902L56.9609 113.826C56.7141 113.456 56.3511 113.179 55.9292 113.038L53.9394 112.375C53.6448 112.277 53.3772 112.111 53.1576 111.892L52.5917 111.326C51.9175 110.652 51.8129 109.595 52.3418 108.802L52.8977 107.968C53.2687 107.412 53.8931 107.077 54.5618 107.077L56.3822 107.077C56.5139 107.077 56.6453 107.091 56.7744 107.116L61.5339 108.068C61.6631 108.094 61.7945 108.107 61.9262 108.107H65.2409C65.6358 108.107 66.0218 107.99 66.3503 107.771L68.4314 106.384C68.7599 106.165 69.1459 106.048 69.5408 106.048H72.729C72.944 106.048 73.1575 106.013 73.3615 105.945L76.0075 105.063C76.0973 105.033 76.1848 104.997 76.2695 104.955L80.2607 102.959L81.6853 102.009C82.6044 101.397 82.8527 100.155 82.24 99.2359L81.8738 98.6866C81.5085 98.1386 81.4364 97.4459 81.681 96.8344L83.0159 93.4972C83.228 92.9668 83.2033 92.371 82.9478 91.86L81.5278 89.02C81.3721 88.7087 81.1379 88.4434 80.8483 88.2503L78.5307 86.7053C78.3133 86.5604 78.0697 86.4594 77.8135 86.4082L74.6613 85.7778C73.7265 85.5908 73.0536 84.77 73.0536 83.8166V82.1663C73.0536 81.6359 72.8429 81.1272 72.4678 80.7521L69.9648 78.2491L66.8761 75.1604L62.276 71.4803C61.9213 71.1966 61.4807 71.042 61.0266 71.042L58.1834 71.042C57.8085 71.042 57.4412 70.9367 57.1234 70.738L49.8503 66.1923C49.5382 65.9973 49.286 65.7199 49.1214 65.3908L47.4591 62.066C47.363 61.8738 47.2365 61.6982 47.0844 61.5462L43.5294 57.9913C43.3099 57.7717 43.0422 57.6063 42.7477 57.5081L40.6672 56.8146C40.3014 56.6927 39.9787 56.4677 39.7379 56.1666L36.1875 51.7287C36.0557 51.5639 35.9507 51.3792 35.8766 51.1816L32.8996 43.2432L31.1482 38.8645C30.9512 38.372 30.5667 37.9779 30.0791 37.7689L23.6335 35.0065L19.9087 33.5166C19.069 33.1807 18.1085 33.4501 17.5659 34.1736L15.5915 36.806C15.4625 36.978 15.3621 37.1697 15.2942 37.3736L14.6292 39.3685C14.4614 39.8717 14.1007 40.2877 13.6262 40.5249L11.5382 41.569C10.7682 41.9539 9.83828 41.803 9.22956 41.1943L8.58141 40.5462C8.32509 40.2898 8.14326 39.9687 8.05534 39.617L7.33233 36.725C7.22092 36.2794 6.95952 35.8857 6.59205 35.6101L4.37713 33.9489C3.60385 33.3689 3.356 32.3189 3.7883 31.4544L4.45626 30.1186C4.84128 29.3486 4.69038 28.4186 4.08164 27.8099L1.17956 24.9078C0.475788 24.204 0.396592 23.0899 0.993737 22.2936L2.19281 20.6948C2.70156 20.0164 2.72723 19.0909 2.25688 18.3854L1.9077 17.8616C1.40428 17.1065 1.63502 16.0838 2.4139 15.618C2.56198 15.5294 2.72349 15.4656 2.8921 15.429ZM17.0379 71.0415H22.5646C23.2333 71.0415 23.8578 71.3757 24.2287 71.9321L29.3217 79.5716C29.6343 80.0405 29.7346 80.6194 29.5979 81.1661L28.7829 84.4261L27.7533 92.6628L27.1025 95.2662C26.8799 96.1565 26.0799 96.7811 25.1622 96.7811H22.4042C21.8738 96.7811 21.3651 96.9919 20.99 97.3669L20.9309 97.4261C20.1498 98.2071 18.8835 98.2071 18.1024 97.4261L16.3308 95.6545C15.7651 95.0888 15.591 94.2403 15.8881 93.4975L17.2496 90.0936C17.3856 89.7538 17.4257 89.3831 17.3655 89.022L16.4279 83.3965L14.5019 76.6556C14.4144 76.3493 14.4013 76.0264 14.4638 75.714L15.0767 72.6493C15.2637 71.7144 16.0845 71.0415 17.0379 71.0415Z" fill="#383A3C"/>
</g>
</svg>
