<svg width="218" height="106" viewBox="0 0 218 106" fill="none" xmlns="http://www.w3.org/2000/svg">
<path fill-rule="evenodd" clip-rule="evenodd" d="M172.635 0C171.53 0 170.635 0.895429 170.635 2V18.683C170.635 18.7188 170.636 18.7543 170.638 18.7896V73.9767C170.638 74.529 170.19 74.9767 169.638 74.9767H117.344C116.792 74.9767 116.344 75.4244 116.344 75.9767V79.1475C116.344 79.6997 116.792 80.1475 117.344 80.1475H175.808L175.808 80.1473H209.418C209.418 80.1473 209.418 80.1472 209.418 80.147C209.418 80.1469 209.418 80.1468 209.418 80.1467C209.418 80.1467 209.418 80.1466 209.419 80.1466H216.173C216.725 80.1466 217.173 79.6989 217.173 79.1466V64.049C217.173 62.9445 216.277 62.049 215.173 62.049C214.85 62.049 214.588 61.787 214.588 61.4638V48.5367C214.588 47.4322 213.692 46.5367 212.588 46.5367H210.418C209.866 46.5367 209.418 46.089 209.418 45.5367V14.7569C209.418 10.891 206.284 7.75695 202.418 7.75695H176.806C176.253 7.75695 175.806 7.30923 175.806 6.75695V2C175.806 0.895431 174.91 0 173.806 0H172.635ZM188.735 19.098C188.735 18.5458 189.182 18.098 189.735 18.098H200.661C201.214 18.098 201.661 18.5458 201.661 19.098V35.1956C201.661 35.7479 201.214 36.1956 200.661 36.1956H189.735C189.182 36.1956 188.735 35.7479 188.735 35.1956V19.098ZM38.7811 94.3642C38.7811 100.79 33.5723 105.998 27.1469 105.998C20.7216 105.998 15.5128 100.79 15.5128 94.3642C15.5128 87.9388 20.7216 82.73 27.1469 82.73C33.5723 82.73 38.7811 87.9388 38.7811 94.3642ZM33.6102 94.364C33.6102 97.9336 30.7164 100.827 27.1467 100.827C23.5771 100.827 20.6833 97.9336 20.6833 94.364C20.6833 90.7943 23.5771 87.9005 27.1467 87.9005C30.7164 87.9005 33.6102 90.7943 33.6102 94.364ZM27.1461 98.243C29.2879 98.243 31.0241 96.5067 31.0241 94.3649C31.0241 92.2231 29.2879 90.4869 27.1461 90.4869C25.0043 90.4869 23.268 92.2231 23.268 94.3649C23.268 96.5067 25.0043 98.243 27.1461 98.243ZM64.6351 94.3653C64.6351 100.791 59.4263 105.999 53.0009 105.999C46.5756 105.999 41.3668 100.791 41.3668 94.3653C41.3668 87.9399 46.5756 82.7311 53.0009 82.7311C59.4263 82.7311 64.6351 87.9399 64.6351 94.3653ZM59.4642 94.3651C59.4642 97.9348 56.5704 100.829 53.0007 100.829C49.4311 100.829 46.5373 97.9348 46.5373 94.3651C46.5373 90.7955 49.4311 87.9017 53.0007 87.9017C56.5704 87.9017 59.4642 90.7955 59.4642 94.3651ZM52.9997 98.2431C55.1415 98.2431 56.8777 96.5069 56.8777 94.3651C56.8777 92.2233 55.1415 90.487 52.9997 90.487C50.8579 90.487 49.1216 92.2233 49.1216 94.3651C49.1216 96.5069 50.8579 98.2431 52.9997 98.2431ZM81.4399 105.999C87.8653 105.999 93.0741 100.791 93.0741 94.3653C93.0741 87.9399 87.8653 82.7311 81.4399 82.7311C75.0145 82.7311 69.8057 87.9399 69.8057 94.3653C69.8057 100.791 75.0145 105.999 81.4399 105.999ZM81.4397 100.829C85.0094 100.829 87.9031 97.9348 87.9031 94.3651C87.9031 90.7955 85.0094 87.9017 81.4397 87.9017C77.8701 87.9017 74.9763 90.7955 74.9763 94.3651C74.9763 97.9348 77.8701 100.829 81.4397 100.829ZM85.317 94.3651C85.317 96.5069 83.5807 98.2431 81.4389 98.2431C79.2971 98.2431 77.5609 96.5069 77.5609 94.3651C77.5609 92.2233 79.2971 90.487 81.4389 90.487C83.5807 90.487 85.317 92.2233 85.317 94.3651ZM142.196 94.3642C142.196 100.79 136.987 105.998 130.562 105.998C124.136 105.998 118.927 100.79 118.927 94.3642C118.927 87.9388 124.136 82.73 130.562 82.73C136.987 82.73 142.196 87.9388 142.196 94.3642ZM137.025 94.364C137.025 97.9336 134.131 100.827 130.561 100.827C126.992 100.827 124.098 97.9336 124.098 94.364C124.098 90.7943 126.992 87.9005 130.561 87.9005C134.131 87.9005 137.025 90.7943 137.025 94.364ZM130.561 98.243C132.703 98.243 134.439 96.5067 134.439 94.3649C134.439 92.2231 132.703 90.4869 130.561 90.4869C128.419 90.4869 126.683 92.2231 126.683 94.3649C126.683 96.5067 128.419 98.243 130.561 98.243ZM187.438 105.999C193.863 105.999 199.072 100.791 199.072 94.3653C199.072 87.9399 193.863 82.7311 187.438 82.7311C181.012 82.7311 175.804 87.9399 175.804 94.3653C175.804 100.791 181.012 105.999 187.438 105.999ZM187.438 100.829C191.007 100.829 193.901 97.9348 193.901 94.3651C193.901 90.7955 191.007 87.9017 187.438 87.9017C183.868 87.9017 180.974 90.7955 180.974 94.3651C180.974 97.9348 183.868 100.829 187.438 100.829ZM191.316 94.3651C191.316 96.5069 189.58 98.2431 187.438 98.2431C185.297 98.2431 183.56 96.5069 183.56 94.3651C183.56 92.2233 185.297 90.487 187.438 90.487C189.58 90.487 191.316 92.2233 191.316 94.3651ZM10.6084 7.75583H5.1702V8.4116L4.99455 7.75607L0 9.09436L5.1702 28.3898V74.9758H5.16985V80.1465H103.057V80.1458L103.058 80.1469L121.85 62.039L157.439 61.894V61.9195L157.516 61.8937L162.402 61.8738L162.878 62.0496L162.876 61.7881V56.8784H162.847L162.691 31.0252H157.439V56.8784H119.553L119.557 56.8869L100.533 74.9758H10.6084V7.75583Z" fill="#383A3C"/>
</svg>
