<svg width="192" height="102" viewBox="0 0 192 102" fill="none" xmlns="http://www.w3.org/2000/svg">
<path fill-rule="evenodd" clip-rule="evenodd" d="M146.78 2C146.78 0.895433 147.675 0 148.78 0H149.756C150.86 0 151.756 0.895431 151.756 2V6.46347C151.756 7.01575 152.203 7.46347 152.756 7.46347H177.097C180.963 7.46347 184.097 10.5975 184.097 14.4635V43.7805C184.097 44.3328 184.545 44.7805 185.097 44.7805H187.073C188.178 44.7805 189.073 45.676 189.073 46.7805V59.2196C189.073 59.4889 189.292 59.7071 189.561 59.7071C190.665 59.7071 191.561 60.6025 191.561 61.7071V76.1217C191.561 76.674 191.113 77.1217 190.561 77.1217H189.073L189.073 77.1218L189.073 77.122H181.61L151.756 77.1219L151.756 77.1221H130.365C129.813 77.1221 129.365 76.6743 129.365 76.1221V73.1464C129.365 72.5942 129.813 72.1464 130.365 72.1464H145.78C146.332 72.1464 146.78 71.6987 146.78 71.1464V17.9172L146.78 17.9024V2ZM165.196 17.4144C164.643 17.4144 164.196 17.8621 164.196 18.4144V33.829C164.196 34.3813 164.643 34.829 165.196 34.829H175.635C176.187 34.829 176.635 34.3813 176.635 33.829V18.4144C176.635 17.8621 176.187 17.4144 175.635 17.4144H165.196ZM4 11.4636H120.39V73.122H4V11.4636ZM0 7.46357H4H120.39H124.39V11.4636V73.122V77.122H120.39H4H0V73.122V11.4636V7.46357ZM13.6825 101.999C19.8654 101.999 24.8776 96.9872 24.8776 90.8043C24.8776 84.6214 19.8654 79.6092 13.6825 79.6092C7.49959 79.6092 2.48737 84.6214 2.48737 90.8043C2.48737 96.9872 7.49959 101.999 13.6825 101.999ZM13.683 97.0238C17.118 97.0238 19.9025 94.2393 19.9025 90.8043C19.9025 87.3694 17.118 84.5848 13.683 84.5848C10.2481 84.5848 7.46353 87.3694 7.46353 90.8043C7.46353 94.2393 10.2481 97.0238 13.683 97.0238ZM17.4144 90.8051C17.4144 92.8661 15.7437 94.5368 13.6827 94.5368C11.6218 94.5368 9.95101 92.8661 9.95101 90.8051C9.95101 88.7442 11.6218 87.0734 13.6827 87.0734C15.7437 87.0734 17.4144 88.7442 17.4144 90.8051ZM49.7568 90.8047C49.7568 96.9876 44.7446 102 38.5617 102C32.3788 102 27.3666 96.9876 27.3666 90.8047C27.3666 84.6218 32.3788 79.6096 38.5617 79.6096C44.7446 79.6096 49.7568 84.6218 49.7568 90.8047ZM44.7817 90.8047C44.7817 94.2396 41.9971 97.0242 38.5622 97.0242C35.1272 97.0242 32.3427 94.2396 32.3427 90.8047C32.3427 87.3697 35.1272 84.5852 38.5622 84.5852C41.9971 84.5852 44.7817 87.3697 44.7817 90.8047ZM38.5612 94.5365C40.6221 94.5365 42.2929 92.8658 42.2929 90.8048C42.2929 88.7438 40.6221 87.0731 38.5612 87.0731C36.5002 87.0731 34.8295 88.7438 34.8295 90.8048C34.8295 92.8658 36.5002 94.5365 38.5612 94.5365ZM108.218 102C114.401 102 119.413 96.9876 119.413 90.8047C119.413 84.6218 114.401 79.6096 108.218 79.6096C102.035 79.6096 97.023 84.6218 97.023 90.8047C97.023 96.9876 102.035 102 108.218 102ZM108.219 97.0242C111.654 97.0242 114.438 94.2396 114.438 90.8047C114.438 87.3697 111.654 84.5852 108.219 84.5852C104.784 84.5852 101.999 87.3697 101.999 90.8047C101.999 94.2396 104.784 97.0242 108.219 97.0242ZM111.951 90.8048C111.951 92.8658 110.28 94.5365 108.219 94.5365C106.158 94.5365 104.487 92.8658 104.487 90.8048C104.487 88.7438 106.158 87.0731 108.219 87.0731C110.28 87.0731 111.951 88.7438 111.951 90.8048ZM174.146 90.8054C174.146 96.9883 169.134 102.001 162.951 102.001C156.768 102.001 151.756 96.9883 151.756 90.8054C151.756 84.6225 156.768 79.6103 162.951 79.6103C169.134 79.6103 174.146 84.6225 174.146 90.8054ZM169.171 90.8053C169.171 94.2403 166.386 97.0248 162.951 97.0248C159.516 97.0248 156.732 94.2403 156.732 90.8053C156.732 87.3704 159.516 84.5858 162.951 84.5858C166.386 84.5858 169.171 87.3704 169.171 90.8053ZM162.952 94.5369C165.013 94.5369 166.683 92.8662 166.683 90.8052C166.683 88.7442 165.013 87.0735 162.952 87.0735C160.891 87.0735 159.22 88.7442 159.22 90.8052C159.22 92.8662 160.891 94.5369 162.952 94.5369ZM12.4397 24.3907C12.4397 23.2861 13.3351 22.3907 14.4397 22.3907H27.8543C28.9589 22.3907 29.8543 23.2861 29.8543 24.3907V27.8541C29.8543 28.9587 28.9589 29.8541 27.8543 29.8541H24.8786V23.6347C24.8786 22.9477 24.3217 22.3908 23.6347 22.3908C22.9477 22.3908 22.3908 22.9477 22.3908 23.6347V29.8541H19.9037V23.6347C19.9037 22.9477 19.3468 22.3908 18.6598 22.3908C17.9728 22.3908 17.4159 22.9477 17.4159 23.6347V29.8541H14.4397C13.3351 29.8541 12.4397 28.9587 12.4397 27.8541V24.3907ZM17.4159 29.8541L17.416 29.8542H19.9036L19.9037 29.8541H17.4159ZM22.3908 29.8541L22.3909 29.8542H24.8785L24.8786 29.8541H22.3908ZM17.4159 49.7558L17.4159 49.7558H14.4397C13.3351 49.7558 12.4397 50.6513 12.4397 51.7558V55.2192C12.4397 56.3238 13.3351 57.2192 14.4397 57.2192H27.8543C28.9589 57.2192 29.8543 56.3238 29.8543 55.2192V51.7558C29.8543 50.6513 28.9589 49.7558 27.8543 49.7558H24.8786L24.8786 49.7558H22.3909L22.3908 49.7558H19.9037L19.9036 49.7558H17.4159ZM22.3908 49.7558H24.8786V55.9753C24.8786 56.6623 24.3217 57.2192 23.6347 57.2192C22.9477 57.2192 22.3908 56.6623 22.3908 55.9753V49.7558ZM19.9037 49.7558V55.9753C19.9037 56.6623 19.3468 57.2192 18.6598 57.2192C17.9728 57.2192 17.4159 56.6623 17.4159 55.9753V49.7558H19.9037ZM67.171 24.3902C67.171 23.2856 68.0665 22.3902 69.171 22.3902H82.5856C83.6902 22.3902 84.5856 23.2856 84.5856 24.3902V27.8536C84.5856 28.9581 83.6902 29.8536 82.5856 29.8536H79.6099V23.6341C79.6099 22.9471 79.053 22.3902 78.366 22.3902C77.679 22.3902 77.1221 22.9471 77.1221 23.6341V29.8536H74.6349V23.6341C74.6349 22.9471 74.078 22.3902 73.391 22.3902C72.704 22.3902 72.1471 22.9471 72.1471 23.6341V29.8536H69.171C68.0665 29.8536 67.171 28.9581 67.171 27.8536V24.3902ZM82.5856 49.7558H79.6099V55.9753C79.6099 56.6623 79.053 57.2192 78.366 57.2192C77.679 57.2192 77.1221 56.6623 77.1221 55.9753V49.7558H74.6349V55.9753C74.6349 56.6623 74.078 57.2192 73.391 57.2192C72.704 57.2192 72.1471 56.6623 72.1471 55.9753V49.7558H69.171C68.0665 49.7558 67.171 50.6513 67.171 51.7558V55.2192C67.171 56.3238 68.0665 57.2192 69.171 57.2192H82.5856C83.6902 57.2192 84.5856 56.3238 84.5856 55.2192V51.7558C84.5856 50.6513 83.6902 49.7558 82.5856 49.7558ZM39.8049 24.3908C39.8049 23.2862 40.7003 22.3908 41.8049 22.3908H42.781C43.8856 22.3908 44.781 23.2862 44.781 24.3908V27.8542C44.781 28.9588 43.8856 29.8542 42.781 29.8542H41.8049C40.7003 29.8542 39.8049 28.9588 39.8049 27.8542V24.3908ZM48.5124 29.8542C47.8256 29.8542 47.2688 29.2975 47.2688 28.6106V23.6344C47.2688 22.9476 47.8256 22.3908 48.5124 22.3908C49.1992 22.3908 49.756 22.9476 49.756 23.6344V28.6106C49.756 29.2975 49.1992 29.8542 48.5124 29.8542ZM52.2438 27.8542C52.2438 28.9588 53.1392 29.8542 54.2438 29.8542H55.2195C56.3241 29.8542 57.2195 28.9588 57.2195 27.8542V24.3908C57.2195 23.2862 56.3241 22.3908 55.2195 22.3908H54.2438C53.1392 22.3908 52.2438 23.2862 52.2438 24.3908V27.8542ZM41.8049 49.7558C40.7003 49.7558 39.8049 50.6512 39.8049 51.7558V55.2192C39.8049 56.3238 40.7003 57.2192 41.8049 57.2192H42.781C43.8856 57.2192 44.781 56.3238 44.781 55.2192V51.7558C44.781 50.6512 43.8856 49.7558 42.781 49.7558H41.8049ZM47.2688 55.9756C47.2688 56.6624 47.8256 57.2192 48.5124 57.2192C49.1992 57.2192 49.756 56.6624 49.756 55.9756V50.9994C49.756 50.3126 49.1992 49.7558 48.5124 49.7558C47.8256 49.7558 47.2688 50.3126 47.2688 50.9994V55.9756ZM54.2438 57.2192C53.1392 57.2192 52.2438 56.3238 52.2438 55.2192V51.7558C52.2438 50.6512 53.1392 49.7558 54.2438 49.7558H55.2195C56.3241 49.7558 57.2195 50.6512 57.2195 51.7558V55.2192C57.2195 56.3238 56.3241 57.2192 55.2195 57.2192H54.2438ZM94.5372 24.3902C94.5372 23.2856 95.4326 22.3902 96.5372 22.3902H97.5132C98.6178 22.3902 99.5132 23.2856 99.5132 24.3902V27.8536C99.5132 28.9581 98.6178 29.8536 97.5132 29.8536H96.5372C95.4326 29.8536 94.5372 28.9581 94.5372 27.8536V24.3902ZM103.245 29.8536C102.558 29.8536 102.001 29.2968 102.001 28.61V23.6337C102.001 22.9469 102.558 22.3902 103.245 22.3902C103.931 22.3902 104.488 22.9469 104.488 23.6337V28.61C104.488 29.2968 103.931 29.8536 103.245 29.8536ZM106.976 27.8536C106.976 28.9581 107.871 29.8536 108.976 29.8536H109.952C111.056 29.8536 111.952 28.9581 111.952 27.8536V24.3902C111.952 23.2856 111.056 22.3902 109.952 22.3902H108.976C107.871 22.3902 106.976 23.2856 106.976 24.3902V27.8536ZM96.5372 49.7558C95.4326 49.7558 94.5372 50.6512 94.5372 51.7558V55.2192C94.5372 56.3238 95.4326 57.2192 96.5372 57.2192H97.5132C98.6178 57.2192 99.5132 56.3238 99.5132 55.2192V51.7558C99.5132 50.6512 98.6178 49.7558 97.5132 49.7558H96.5372ZM102.001 55.9756C102.001 56.6624 102.558 57.2192 103.245 57.2192C103.931 57.2192 104.488 56.6624 104.488 55.9756V50.9994C104.488 50.3126 103.931 49.7558 103.245 49.7558C102.558 49.7558 102.001 50.3126 102.001 50.9994V55.9756ZM108.976 57.2192C107.871 57.2192 106.976 56.3238 106.976 55.2192V51.7558C106.976 50.6512 107.871 49.7558 108.976 49.7558H109.952C111.056 49.7558 111.952 50.6512 111.952 51.7558V55.2192C111.952 56.3238 111.056 57.2192 109.952 57.2192H108.976Z" fill="#383A3C"/>
</svg>
