<svg width="196" height="105" viewBox="0 0 196 105" fill="none" xmlns="http://www.w3.org/2000/svg">
<path fill-rule="evenodd" clip-rule="evenodd" d="M149.916 2C149.916 0.895432 150.811 0 151.916 0H152.981C154.086 0 154.981 0.895431 154.981 2V6.68275C154.981 7.23503 155.429 7.68275 155.981 7.68275H180.903C184.769 7.68275 187.903 10.8168 187.903 14.6827V45.0974C187.903 45.6497 188.351 46.0974 188.903 46.0974H190.968C192.072 46.0974 192.968 46.9928 192.968 48.0974V60.931C192.968 61.2249 193.206 61.4632 193.5 61.4632C194.604 61.4632 195.5 62.3587 195.5 63.4632V78.3901C195.5 78.9424 195.052 79.3901 194.5 79.3901H192.968H187.903H187.902H185.37H154.981H149.916H133.188C132.636 79.3901 132.188 78.9424 132.188 78.3901V75.2681C132.188 74.7158 132.636 74.2681 133.188 74.2681H148.916C149.468 74.2681 149.916 73.8204 149.916 73.2681V18.4878V7.68275V2ZM168.643 17.9267C168.09 17.9267 167.643 18.3744 167.643 18.9267V34.8535C167.643 35.4058 168.09 35.8535 168.643 35.8535H179.305C179.857 35.8535 180.305 35.4058 180.305 34.8535V18.9267C180.305 18.3744 179.857 17.9267 179.305 17.9267H168.643ZM123.123 11.6829H4.5V75.3902H11.1621V68.5853C11.1621 67.4807 12.0575 66.5853 13.1621 66.5853C14.2667 66.5853 15.1621 67.4807 15.1621 68.5853V75.3902H23.8242V68.5853C23.8242 67.4807 24.7196 66.5853 25.8242 66.5853C26.9288 66.5853 27.8242 67.4807 27.8242 68.5853V75.3902H36.4873V68.5853C36.4873 67.4807 37.3827 66.5853 38.4873 66.5853C39.5919 66.5853 40.4873 67.4807 40.4873 68.5853V75.3902H49.1494V68.5853C49.1494 67.4807 50.0448 66.5853 51.1494 66.5853C52.254 66.5853 53.1494 67.4807 53.1494 68.5853V75.3902H61.8115V68.5853C61.8115 67.4807 62.707 66.5853 63.8115 66.5853C64.9161 66.5853 65.8115 67.4807 65.8115 68.5853V75.3902H74.4736V68.5853C74.4736 67.4807 75.3691 66.5853 76.4736 66.5853C77.5782 66.5853 78.4736 67.4807 78.4736 68.5853V75.3902H87.1367V68.5853C87.1367 67.4807 88.0322 66.5853 89.1367 66.5853C90.2413 66.5853 91.1367 67.4807 91.1367 68.5853V75.3902H99.7988V68.5853C99.7988 67.4807 100.694 66.5853 101.799 66.5853C102.903 66.5853 103.799 67.4807 103.799 68.5853V75.3902H112.461V68.5853C112.461 67.4807 113.356 66.5853 114.461 66.5853C115.566 66.5853 116.461 67.4807 116.461 68.5853V75.3902H123.123V11.6829ZM4.5 7.68293H0.5V11.6829V75.3902V79.3902H4.5H123.123H127.123V75.3902V11.6829V7.68293H123.123H4.5ZM14.4283 105C20.7222 105 25.8244 99.8402 25.8244 93.4754C25.8244 87.1107 20.7222 81.951 14.4283 81.951C8.13444 81.951 3.03223 87.1107 3.03223 93.4754C3.03223 99.8402 8.13444 105 14.4283 105ZM14.4288 99.8779C17.9254 99.8779 20.76 97.0115 20.76 93.4755C20.76 89.9395 17.9254 87.073 14.4288 87.073C10.9322 87.073 8.09766 89.9395 8.09766 93.4755C8.09766 97.0115 10.9322 99.8779 14.4288 99.8779ZM18.2273 93.4755C18.2273 95.5971 16.5266 97.3169 14.4286 97.3169C12.3306 97.3169 10.6299 95.5971 10.6299 93.4755C10.6299 91.3539 12.3306 89.634 14.4286 89.634C16.5266 89.634 18.2273 91.3539 18.2273 93.4755ZM51.1487 93.4754C51.1487 99.8402 46.0464 105 39.7525 105C33.4587 105 28.3564 99.8402 28.3564 93.4754C28.3564 87.1107 33.4587 81.951 39.7525 81.951C46.0464 81.951 51.1487 87.1107 51.1487 93.4754ZM46.0832 93.4755C46.0832 97.0115 43.2487 99.8779 39.7521 99.8779C36.2555 99.8779 33.4209 97.0115 33.4209 93.4755C33.4209 89.9395 36.2555 87.073 39.7521 87.073C43.2487 87.073 46.0832 89.9395 46.0832 93.4755ZM39.7528 97.3169C41.8508 97.3169 43.5515 95.5971 43.5515 93.4755C43.5515 91.3539 41.8508 89.634 39.7528 89.634C37.6548 89.634 35.9541 91.3539 35.9541 93.4755C35.9541 95.5971 37.6548 97.3169 39.7528 97.3169ZM110.661 105C116.955 105 122.057 99.8402 122.057 93.4754C122.057 87.1107 116.955 81.951 110.661 81.951C104.367 81.951 99.2646 87.1107 99.2646 93.4754C99.2646 99.8402 104.367 105 110.661 105ZM110.66 99.8779C114.157 99.8779 116.991 97.0115 116.991 93.4755C116.991 89.9395 114.157 87.073 110.66 87.073C107.164 87.073 104.329 89.9395 104.329 93.4755C104.329 97.0115 107.164 99.8779 110.66 99.8779ZM114.46 93.4755C114.46 95.5971 112.759 97.3169 110.661 97.3169C108.563 97.3169 106.862 95.5971 106.862 93.4755C106.862 91.3539 108.563 89.634 110.661 89.634C112.759 89.634 114.46 91.3539 114.46 93.4755ZM177.773 93.4754C177.773 99.8402 172.67 105 166.377 105C160.083 105 154.98 99.8402 154.98 93.4754C154.98 87.1107 160.083 81.951 166.377 81.951C172.67 81.951 177.773 87.1107 177.773 93.4754ZM172.708 93.4755C172.708 97.0115 169.874 99.8779 166.377 99.8779C162.88 99.8779 160.046 97.0115 160.046 93.4755C160.046 89.9395 162.88 87.073 166.377 87.073C169.874 87.073 172.708 89.9395 172.708 93.4755ZM166.377 97.3169C168.475 97.3169 170.176 95.5971 170.176 93.4755C170.176 91.3539 168.475 89.634 166.377 89.634C164.279 89.634 162.578 91.3539 162.578 93.4755C162.578 95.5971 164.279 97.3169 166.377 97.3169Z" fill="#383A3C"/>
</svg>
