<svg width="220" height="106" viewBox="0 0 220 106" fill="none" xmlns="http://www.w3.org/2000/svg">
<path fill-rule="evenodd" clip-rule="evenodd" d="M173.744 2C173.744 0.89543 174.639 0 175.744 0H176.849C177.954 0 178.849 0.895431 178.849 2V6.68297C178.849 7.23526 179.297 7.68297 179.849 7.68297H205.035C208.901 7.68297 212.035 10.817 212.035 14.683V45.098C212.035 45.6503 212.482 46.098 213.035 46.098H215.139C216.244 46.098 217.139 46.9934 217.139 48.098V60.9101C217.139 61.2156 217.387 61.4632 217.692 61.4632C218.797 61.4632 219.692 62.3587 219.692 63.4632V78.39C219.692 78.9423 219.244 79.39 218.692 79.39H217.139C217.139 79.39 217.139 79.3901 217.139 79.3903C217.139 79.3904 217.139 79.3906 217.139 79.3906H209.481C209.481 79.3906 209.481 79.3904 209.481 79.3903C209.481 79.3901 209.481 79.39 209.481 79.39H173.746L173.746 79.3899H156.878C156.326 79.3899 155.878 78.9422 155.878 78.3899V75.268C155.878 74.7157 156.326 74.268 156.878 74.268H172.746C173.298 74.268 173.746 73.8202 173.746 73.268V18.5768C173.745 18.5592 173.744 18.5415 173.744 18.5238L173.744 18.5108L173.744 18.4877V2ZM192.614 17.9266C192.062 17.9266 191.614 18.3743 191.614 18.9266V34.8534C191.614 35.4057 192.062 35.8534 192.614 35.8534H203.377C203.929 35.8534 204.377 35.4057 204.377 34.8534V18.9266C204.377 18.3743 203.929 17.9266 203.377 17.9266H192.614ZM51.0005 10.9999H157.001V37.9999C157.001 57.8821 140.883 73.9999 121.001 73.9999H61.0005C41.1183 73.9999 25.0005 57.8821 25.0005 37.9999V36.9999C25.0005 22.6405 36.6411 10.9999 51.0005 10.9999ZM25.5158 21.1641C30.8113 12.66 40.2449 6.99988 51.0005 6.99988H157.001H161.001V10.9999V37.9999C161.001 60.0913 143.092 77.9999 121.001 77.9999H61.0005C60.6658 77.9999 60.332 77.9958 59.9993 77.9876V78H2.99927L4.13975 76.0492L4.4608 75.5L5.31722 74.1816L21.0795 40.5341C21.0271 39.6961 21.0005 38.8511 21.0005 37.9999V36.9999C21.0005 36.6645 21.006 36.3303 21.0169 35.9976L20.2539 37.3752L18.8626 36.6046L18.5044 36.4061L17.1131 35.6355L18.9145 32.3832L20.3058 33.1538L20.664 33.3522L21.1864 33.6416C21.3331 32.3247 21.565 31.0335 21.8766 29.7737L20.7159 29.1308L22.5173 25.8785L23.0199 26.1569C23.2116 25.6627 23.4159 25.1748 23.6326 24.6937L23.2814 24.4991L24.2504 22.7496L24.3188 22.6262L25.2195 21L25.5158 21.1641ZM9.43845 74H43.5443C32.7993 68.7802 24.7422 58.8915 22.0106 46.9717L9.43845 74ZM42.284 105C48.6279 105 53.7707 99.8406 53.7707 93.4759C53.7707 87.1112 48.6279 81.9515 42.284 81.9515C35.94 81.9515 30.7973 87.1112 30.7973 93.4759C30.7973 99.8406 35.94 105 42.284 105ZM42.283 99.8784C45.8074 99.8784 48.6645 97.012 48.6645 93.476C48.6645 89.9401 45.8074 87.0736 42.283 87.0736C38.7586 87.0736 35.9015 89.9401 35.9015 93.476C35.9015 97.012 38.7586 99.8784 42.283 99.8784ZM46.1115 93.4761C46.1115 95.5977 44.3972 97.3175 42.2826 97.3175C40.1679 97.3175 38.4537 95.5977 38.4537 93.4761C38.4537 91.3545 40.1679 89.6346 42.2826 89.6346C44.3972 89.6346 46.1115 91.3545 46.1115 93.4761ZM79.2934 93.4769C79.2934 99.8416 74.1507 105.001 67.8067 105.001C61.4628 105.001 56.3201 99.8416 56.3201 93.4769C56.3201 87.1121 61.4628 81.9525 67.8067 81.9525C74.1507 81.9525 79.2934 87.1121 79.2934 93.4769ZM74.1876 93.477C74.1876 97.013 71.3305 99.8794 67.8061 99.8794C64.2817 99.8794 61.4246 97.013 61.4246 93.477C61.4246 89.941 64.2817 87.0746 67.8061 87.0746C71.3305 87.0746 74.1876 89.941 74.1876 93.477ZM67.8076 97.3175C69.9223 97.3175 71.6365 95.5977 71.6365 93.4761C71.6365 91.3545 69.9223 89.6346 67.8076 89.6346C65.693 89.6346 63.9787 91.3545 63.9787 93.4761C63.9787 95.5977 65.693 97.3175 67.8076 97.3175ZM136.729 105C143.073 105 148.216 99.8401 148.216 93.4754C148.216 87.1107 143.073 81.951 136.729 81.951C130.385 81.951 125.243 87.1107 125.243 93.4754C125.243 99.8401 130.385 105 136.729 105ZM136.728 99.8779C140.253 99.8779 143.11 97.0115 143.11 93.4755C143.11 89.9396 140.253 87.0731 136.728 87.0731C133.204 87.0731 130.347 89.9396 130.347 93.4755C130.347 97.0115 133.204 99.8779 136.728 99.8779ZM140.559 93.4761C140.559 95.5977 138.845 97.3175 136.73 97.3175C134.615 97.3175 132.901 95.5977 132.901 93.4761C132.901 91.3545 134.615 89.6346 136.73 89.6346C138.845 89.6346 140.559 91.3545 140.559 93.4761ZM204.376 93.4754C204.376 99.8401 199.233 105 192.889 105C186.545 105 181.402 99.8401 181.402 93.4754C181.402 87.1107 186.545 81.951 192.889 81.951C199.233 81.951 204.376 87.1107 204.376 93.4754ZM199.27 93.4755C199.27 97.0115 196.413 99.8779 192.888 99.8779C189.364 99.8779 186.507 97.0115 186.507 93.4755C186.507 89.9396 189.364 87.0731 192.888 87.0731C196.413 87.0731 199.27 89.9396 199.27 93.4755ZM192.887 97.3166C195.002 97.3166 196.716 95.5967 196.716 93.4751C196.716 91.3535 195.002 89.6337 192.887 89.6337C190.772 89.6337 189.058 91.3535 189.058 93.4751C189.058 95.5967 190.772 97.3166 192.887 97.3166ZM104.201 31.4649C102.799 30.134 101.095 29.1626 99.2347 28.6341C97.3748 28.1056 95.4146 28.0356 93.5218 28.4302C92.7632 28.5903 92.0666 28.9652 91.5149 29.51C90.9633 30.0549 90.5798 30.7468 90.4102 31.5034C89.0102 30.1554 87.3015 29.1707 85.4333 28.635C83.5651 28.0993 81.5942 28.029 79.6926 28.4302C78.9185 28.5929 78.2085 28.9774 77.6492 29.5368C77.0899 30.0961 76.7054 30.8061 76.5426 31.5802C75.9955 34.227 76.3329 36.9803 77.503 39.4167C75.3376 37.4109 72.5027 36.2838 69.5512 36.2552C67.5865 36.2736 65.6568 36.7777 63.9343 37.7228C62.2117 38.6679 60.7497 40.0245 59.6787 41.6717C59.2318 42.3272 58.9896 43.1006 58.9828 43.8939C58.976 44.6872 59.2048 45.4646 59.6403 46.1277C60.712 47.7889 62.1775 49.1595 63.9065 50.1178C65.6356 51.0762 67.5745 51.5925 69.5512 51.621C72.5091 51.5994 75.3495 50.4605 77.503 48.4326C76.3169 50.8643 75.9788 53.623 76.5426 56.2692C76.6994 57.046 77.0819 57.7592 77.6422 58.3196C78.2026 58.8799 78.9158 59.2624 79.6926 59.4192C81.5911 59.8253 83.5601 59.7611 85.4281 59.2322C87.2961 58.7032 89.0065 57.7256 90.4103 56.3844C90.5811 57.1364 90.9657 57.823 91.5177 58.3614C92.0698 58.8999 92.7658 59.2672 93.5218 59.4192C95.4115 59.8203 97.3703 59.7573 99.2302 59.2354C101.09 58.7136 102.796 57.7485 104.201 56.4228C104.394 57.1666 104.791 57.8415 105.348 58.371C105.905 58.9006 106.599 59.2637 107.351 59.4192C109.069 59.8082 110.853 59.8022 112.569 59.4018C114.284 59.0013 115.887 58.2168 117.255 57.1073C118.624 55.9977 119.722 54.5922 120.469 52.9964C121.215 51.4007 121.59 49.6563 121.564 47.8948C121.575 47.2112 121.511 46.5284 121.372 45.8588H133.473C133.982 45.8588 134.471 45.6565 134.831 45.2963C135.191 44.9361 135.394 44.4475 135.394 43.9381C135.394 43.4287 135.191 42.9402 134.831 42.58C134.471 42.2198 133.982 42.0174 133.473 42.0174H121.372C121.512 41.3351 121.577 40.6394 121.564 39.943C121.577 38.3995 121.285 36.8686 120.705 35.4382C120.125 34.0077 119.268 32.7058 118.184 31.6071C116.778 30.2276 115.055 29.2151 113.166 28.6591C111.277 28.103 109.28 28.0205 107.351 28.4187C106.595 28.5831 105.899 28.9553 105.342 29.4935C104.786 30.0316 104.391 30.7144 104.201 31.4649ZM117.569 46.1777C117.85 47.486 117.804 48.8434 117.436 50.1299C117.067 51.4163 116.388 52.5921 115.456 53.5533C114.48 54.5067 113.273 55.189 111.952 55.5326C110.632 55.8762 109.244 55.8692 107.927 55.5124C107.821 54.9166 107.769 54.3122 107.774 53.7069C107.754 52.6733 107.945 51.6465 108.334 50.6889C108.724 49.7313 109.304 48.863 110.04 48.1368C111.01 47.1734 112.217 46.4844 113.54 46.1402C114.863 45.7961 116.253 45.809 117.569 46.1777ZM103.74 46.1777C104.024 47.486 103.979 48.8441 103.611 50.131C103.242 51.4179 102.561 52.5936 101.627 53.5533C100.659 54.5064 99.4578 55.189 98.1434 55.5327C96.8289 55.8765 95.4473 55.8695 94.1365 55.5124C93.9987 54.9207 93.9342 54.3143 93.9444 53.7069C93.9246 52.6733 94.1154 51.6465 94.505 50.6889C94.8947 49.7313 95.475 48.863 96.2108 48.1368C97.1803 47.1734 98.3881 46.4844 99.7108 46.1402C101.034 45.7961 102.424 45.809 103.74 46.1777ZM89.9109 46.1777C90.1945 47.486 90.15 48.8441 89.7814 50.131C89.4127 51.4179 88.7314 52.5936 87.7981 53.5533C86.8299 54.5064 85.6286 55.189 84.3142 55.5327C82.9997 55.8765 81.6181 55.8695 80.3072 55.5124C80.1884 54.9177 80.1241 54.3133 80.1152 53.7069C80.0954 52.6733 80.2862 51.6465 80.6758 50.6889C81.0654 49.7313 81.6458 48.863 82.3816 48.1368C83.3511 47.1734 84.5589 46.4844 85.8816 46.1403C87.2044 45.7961 88.5947 45.809 89.9109 46.1777ZM76.2737 44.0265C75.5547 45.1628 74.5632 46.1013 73.3891 46.7568C72.215 47.4122 70.8957 47.7638 69.5512 47.7796C68.1826 47.7676 66.8419 47.3911 65.667 46.689C64.4922 45.9868 63.5258 44.9842 62.8671 43.7845C63.5901 42.6657 64.579 41.7434 65.7453 41.0999C66.9116 40.4564 68.2192 40.1117 69.5512 40.0967C70.9159 40.1143 72.2527 40.4857 73.431 41.1745C74.6093 41.8633 75.5888 42.846 76.2737 44.0265ZM115.456 34.3076C116.4 35.2901 117.076 36.4983 117.419 37.8166C117.762 39.1348 117.761 40.5191 117.416 41.8368C116.847 41.9556 116.268 42.0199 115.687 42.0289H115.61C113.515 42.0439 111.498 41.2291 110.002 39.7625C108.593 38.3276 107.806 36.3953 107.812 34.3844C107.809 33.6461 107.899 32.9104 108.081 32.1948C109.389 31.9207 110.745 31.9698 112.03 32.338C113.316 32.7062 114.492 33.3822 115.456 34.3076ZM101.627 34.3076C102.579 35.2849 103.26 36.4929 103.603 37.813C103.947 39.133 103.941 40.5197 103.586 41.8368C103.018 41.9556 102.439 42.0199 101.858 42.0289H101.781C100.749 42.0399 99.7242 41.8451 98.7679 41.456C97.8116 41.0669 96.9423 40.4912 96.2108 39.7625C95.5006 39.0592 94.9377 38.2213 94.5551 37.2979C94.1726 36.3744 93.978 35.384 93.9828 34.3844C93.9988 33.6474 94.0889 32.9138 94.2517 32.1948C95.5602 31.9207 96.9158 31.9698 98.2011 32.338C99.4863 32.7062 100.662 33.3822 101.627 34.3076ZM87.7981 34.3076C88.7571 35.28 89.4432 36.4878 89.7871 37.8096C90.131 39.1313 90.1207 40.5203 89.7572 41.8368C89.1884 41.9556 88.6096 42.0199 88.0286 42.0289H87.9517C86.9193 42.0399 85.895 41.8451 84.9387 41.456C83.9823 41.0669 83.1131 40.4912 82.3816 39.7625C81.6733 39.0517 81.1146 38.2062 80.7385 37.2759C80.3624 36.3456 80.1766 35.3494 80.192 34.346C80.1914 33.6205 80.2817 32.8978 80.4609 32.1948C81.7634 31.9205 83.1133 31.9697 84.3924 32.3381C85.6715 32.7064 86.8409 33.3826 87.7981 34.3076ZM15.3116 38.8879L13.5102 42.1402L14.9015 42.9108L15.2598 43.1093L16.6511 43.8799L18.4525 40.6275L17.0612 39.8569L16.7029 39.6585L15.3116 38.8879ZM13.1001 46.1632L11.7088 45.3925L9.90736 48.6449L11.2986 49.4155L11.6569 49.6139L13.0482 50.3845L14.8496 47.1322L13.4583 46.3616L13.1001 46.1632ZM4.50308 58.4019L2.70165 61.6542L4.09294 62.4248L4.45121 62.6233L5.84249 63.3939L7.64392 60.1416L6.25263 59.3709L5.89437 59.1725L4.50308 58.4019ZM0.968565 64.7832L1.93762 63.0336L2.72283 63.4686L1.75378 65.2181L1.68544 65.3415L2.29151 65.6772L2.64978 65.8756L3.25586 66.2113L3.3242 66.0879L4.29325 64.3384L5.07846 64.7733L4.10941 66.5229L4.04107 66.6462L3.14035 68.2724L2.35514 67.8375L1.74906 67.5018L1.3908 67.3034L0.784722 66.9677L-0.000488281 66.5327L0.900227 64.9066L0.968565 64.7832ZM9.85548 52.8663L11.2468 53.6369L9.44535 56.8892L8.05406 56.1186L7.69579 55.9202L6.3045 55.1496L8.10593 51.8972L9.49722 52.6678L9.85548 52.8663Z" fill="#383A3C"/>
</svg>
