<svg width="152" height="152" viewBox="0 0 152 152" fill="none" xmlns="http://www.w3.org/2000/svg">
<path fill-rule="evenodd" clip-rule="evenodd" d="M76.9991 76.4999C70.7027 76.4999 64.6145 73.7094 59.8492 68.6452C55.2157 63.7056 52.3859 57.1184 51.8868 50.1026C51.3539 42.6187 53.6538 35.7366 58.3609 30.721C63.0679 25.7054 69.6492 23 76.9991 23C84.297 23 90.8967 25.754 95.5884 30.7575C100.326 35.8096 102.632 42.6795 102.099 50.0995C101.588 57.1245 98.7612 63.7086 94.1368 68.6421C89.3838 73.7094 83.2987 76.4999 76.9991 76.4999ZM117.372 130H36.6295C35.3313 130.007 34.0489 129.718 32.8808 129.156C31.7128 128.593 30.6903 127.773 29.892 126.756C29.0452 125.655 28.4605 124.378 28.1815 123.02C27.9026 121.662 27.9366 120.26 28.2811 118.917C30.8598 108.639 37.2481 100.116 46.754 94.2704C55.1912 89.0846 65.9313 86.2272 76.9991 86.2272C88.2844 86.2272 98.7428 88.963 107.229 94.1458C116.756 99.9609 123.154 108.533 125.72 118.935C126.061 120.279 126.091 121.681 125.809 123.038C125.527 124.395 124.939 125.671 124.091 126.772C123.293 127.783 122.273 128.6 121.109 129.159C119.944 129.719 118.666 130.006 117.372 130Z" fill="#383A3C"/>
</svg>
