<svg width="22" height="22" viewBox="0 0 22 22" fill="none" xmlns="http://www.w3.org/2000/svg">
<path d="M1 7.66667C1 3.98477 3.98477 1 7.66667 1V21C3.98477 21 1 18.0152 1 14.3333V7.66667Z" fill="#E61111"/>
<path d="M7.66667 1H14.3333V21H7.66667V1Z" fill="#FFC342"/>
<path d="M14.3333 1C18.0152 1 21 3.98477 21 7.66667V14.3333C21 18.0152 18.0152 21 14.3333 21V1Z" fill="#4158AB"/>
<path d="M7.66667 21.5H8.16667H13.8333H14.3333H14.8333V21.4828C18.5581 21.2261 21.5 18.1233 21.5 14.3333V7.66667C21.5 3.87671 18.5581 0.773865 14.8333 0.51717V0.5H14.3333H13.8333H8.16667H7.66667H7.16667V0.51717C3.4419 0.773864 0.5 3.87671 0.5 7.66667V14.3333C0.5 18.1233 3.4419 21.2261 7.16667 21.4828V21.5H7.66667Z" stroke="#FCFEFF"/>
</svg>
