<svg width="231" height="152" viewBox="0 0 231 152" fill="none" xmlns="http://www.w3.org/2000/svg">
<rect width="231" height="152" fill="#383A3C"/>
<path fill-rule="evenodd" clip-rule="evenodd" d="M60.5 22C59.9477 22 59.5 21.5523 59.5 21C59.5 20.4477 59.9477 20 60.5 20H68.5C69.0523 20 69.5 20.4477 69.5 21C69.5 21.5523 69.0523 22 68.5 22H66.5V30.6831H122.766C142.567 30.6831 158.619 46.7352 158.619 66.5365C158.619 86.3378 142.567 102.39 122.766 102.39H53.3534C33.5521 102.39 17.5 86.3378 17.5 66.5365C17.5 46.7352 33.5521 30.6831 53.3534 30.6831H62.5V22H60.5ZM166.316 25C166.316 23.8954 167.211 23 168.316 23H169.447C170.552 23 171.447 23.8954 171.447 25V29.6835C171.447 30.2358 171.895 30.6835 172.447 30.6835H197.802C201.668 30.6835 204.802 33.8176 204.802 37.6835V68.0968C204.802 68.6491 205.25 69.0968 205.802 69.0968H207.935C209.039 69.0968 209.935 69.9923 209.935 71.0968V83.8975C209.935 84.2098 210.188 84.463 210.5 84.463C211.605 84.463 212.5 85.3584 212.5 86.463V101.39C212.5 101.942 212.053 102.39 211.5 102.39H204.803L204.803 102.389L204.803 102.389H204.802L204.802 102.389L204.802 102.39C204.802 102.39 204.802 102.39 204.801 102.39H166.315L166.315 102.39L166.315 102.39H149.354C148.801 102.39 148.354 101.942 148.354 101.39V98.2682C148.354 97.7159 148.801 97.2682 149.354 97.2682H165.315C165.867 97.2682 166.315 96.8205 166.315 96.2682V30.684L166.315 30.6836L166.315 30.6835C166.316 30.6835 166.316 30.6833 166.316 30.6831V25ZM185.276 40.9269C184.723 40.9269 184.276 41.3746 184.276 41.9269V57.8536C184.276 58.4059 184.723 58.8536 185.276 58.8536H196.105C196.657 58.8536 197.105 58.4059 197.105 57.8536V41.9269C197.105 41.3746 196.657 40.9269 196.105 40.9269H185.276ZM53.3534 34.6831H122.766C140.358 34.6831 154.619 48.9443 154.619 66.5365C154.619 84.1286 140.358 98.3899 122.766 98.3899H53.3534C35.7613 98.3899 21.5 84.1286 21.5 66.5365C21.5 48.9443 35.7613 34.6831 53.3534 34.6831ZM34.1731 127.999C40.5498 127.999 45.7192 122.839 45.7192 116.475C45.7192 110.11 40.5498 104.95 34.1731 104.95C27.7963 104.95 22.627 110.11 22.627 116.475C22.627 122.839 27.7963 127.999 34.1731 127.999ZM34.1743 122.877C37.7169 122.877 40.5888 120.011 40.5888 116.475C40.5888 112.939 37.7169 110.072 34.1743 110.072C30.6316 110.072 27.7598 112.939 27.7598 116.475C27.7598 120.011 30.6316 122.877 34.1743 122.877ZM38.0246 116.474C38.0246 118.596 36.3014 120.316 34.1759 120.316C32.0503 120.316 30.3271 118.596 30.3271 116.474C30.3271 114.353 32.0503 112.633 34.1759 112.633C36.3014 112.633 38.0246 114.353 38.0246 116.474ZM71.3842 116.474C71.3842 122.839 66.2149 127.998 59.8381 127.998C53.4614 127.998 48.292 122.839 48.292 116.474C48.292 110.109 53.4614 104.95 59.8381 104.95C66.2149 104.95 71.3842 110.109 71.3842 116.474ZM66.2548 116.474C66.2548 120.01 63.3829 122.876 59.8403 122.876C56.2977 122.876 53.4258 120.01 53.4258 116.474C53.4258 112.938 56.2977 110.072 59.8403 110.072C63.3829 110.072 66.2548 112.938 66.2548 116.474ZM59.838 120.315C61.9635 120.315 63.6867 118.596 63.6867 116.474C63.6867 114.352 61.9635 112.633 59.838 112.633C57.7124 112.633 55.9893 114.352 55.9893 116.474C55.9893 118.596 57.7124 120.315 59.838 120.315ZM129.113 128C135.49 128 140.66 122.84 140.66 116.476C140.66 110.111 135.49 104.951 129.113 104.951C122.737 104.951 117.567 110.111 117.567 116.476C117.567 122.84 122.737 128 129.113 128ZM129.113 122.878C132.655 122.878 135.527 120.011 135.527 116.476C135.527 112.94 132.655 110.073 129.113 110.073C125.57 110.073 122.698 112.94 122.698 116.476C122.698 120.011 125.57 122.878 129.113 122.878ZM132.961 116.475C132.961 118.597 131.238 120.316 129.112 120.316C126.987 120.316 125.264 118.597 125.264 116.475C125.264 114.353 126.987 112.634 129.112 112.634C131.238 112.634 132.961 114.353 132.961 116.475ZM197.104 116.475C197.104 122.839 191.935 127.999 185.558 127.999C179.181 127.999 174.012 122.839 174.012 116.475C174.012 110.11 179.181 104.95 185.558 104.95C191.935 104.95 197.104 110.11 197.104 116.475ZM191.974 116.475C191.974 120.011 189.102 122.877 185.559 122.877C182.016 122.877 179.145 120.011 179.145 116.475C179.145 112.939 182.016 110.073 185.559 110.073C189.102 110.073 191.974 112.939 191.974 116.475ZM185.559 120.316C187.684 120.316 189.407 118.596 189.407 116.474C189.407 114.353 187.684 112.633 185.559 112.633C183.433 112.633 181.71 114.353 181.71 116.474C181.71 118.596 183.433 120.316 185.559 120.316ZM109.868 48.6096C107.02 48.6096 104.737 50.8888 104.737 53.7315V71.0436C103.095 72.5033 102.171 74.6033 102.171 76.7801C102.171 81.0313 105.609 84.463 109.868 84.463C114.128 84.463 117.566 81.0313 117.566 76.7801C117.566 74.6033 116.642 72.5033 115 71.0692V53.7315C115 50.8888 112.716 48.6096 109.868 48.6096ZM109.868 51.1705C111.28 51.1705 112.434 52.323 112.434 53.7315V56.2924H107.303V53.7315C107.303 52.323 108.457 51.1705 109.868 51.1705ZM81.6446 87.0239C73.1518 87.0239 66.2498 80.135 66.2498 71.6582C66.2498 61.4144 81.6446 44.1279 81.6446 44.1279C81.6446 44.1279 97.0394 61.4144 97.0394 71.6582C97.0394 80.135 90.1374 87.0239 81.6446 87.0239Z" fill="#FCFEFF"/>
</svg>
