<svg width="231" height="152" viewBox="0 0 231 152" fill="none" xmlns="http://www.w3.org/2000/svg">
<rect width="231" height="152" fill="#383A3C"/>
<path fill-rule="evenodd" clip-rule="evenodd" d="M169.159 24C168.054 24 167.159 24.8954 167.159 26V31.6087C167.159 31.6093 167.158 31.6097 167.158 31.6097C167.157 31.6097 167.157 31.6102 167.157 31.6108V96.5615C167.157 97.1138 166.709 97.5615 166.157 97.5615H150.4C149.848 97.5615 149.4 98.0092 149.4 98.5615V101.635C149.4 102.187 149.848 102.635 150.4 102.635H172.23L172.23 102.635L172.23 102.634H205.206L205.206 102.634L205.206 102.634H210.279L210.279 102.634H211.816C212.368 102.634 212.816 102.186 212.816 101.634V86.8777C212.816 85.7732 211.921 84.8777 210.816 84.8777C210.52 84.8777 210.279 84.6374 210.279 84.3408V71.6583C210.279 70.5537 209.384 69.6583 208.279 69.6583H206.206C205.653 69.6583 205.206 69.2106 205.206 68.6583V38.6097C205.206 34.7437 202.072 31.6097 198.206 31.6097H173.232C172.68 31.6097 172.232 31.162 172.232 30.6097V26C172.232 24.8954 171.337 24 170.232 24H169.159ZM184.913 42.7557C184.913 42.2035 185.361 41.7557 185.913 41.7557H196.596C197.148 41.7557 197.596 42.2035 197.596 42.7557V58.5119C197.596 59.0642 197.148 59.5119 196.596 59.5119H185.913C185.361 59.5119 184.913 59.0642 184.913 58.5119V42.7557ZM27.6465 35.6099H21.5V98.6345H27.6465V35.6099ZM31.6465 35.6099V98.6345H37.792V35.6099H31.6465ZM47.9385 102.635H41.792V102.683H37.792V102.635H31.6465V102.683H27.6465V102.635H21.5H17.5V98.6345V35.6099V31.6099H21.5H140.33H144.33V35.6099V98.6345V102.635H140.33H133.11V102.683H129.11V102.635H122.964V102.683H118.964V102.635H112.818V102.683H108.818V102.635H102.671V102.683H98.6709V102.635H92.5244V102.683H88.5244V102.635H82.3779V102.683H78.3779V102.635H72.2324V102.683H68.2324V102.635H62.0859V102.683H58.0859V102.635H51.9385V102.683H47.9385V102.635ZM133.11 98.6345H140.33V35.6099H133.11V98.6345ZM129.11 35.6099V98.6345H122.964V35.6099H129.11ZM112.818 35.6099H118.964V98.6345H112.818V35.6099ZM108.818 35.6099V98.6345H102.671V35.6099H108.818ZM92.5244 35.6099H98.6709V98.6345H92.5244V35.6099ZM88.5244 35.6099V98.6345H82.3779V35.6099H88.5244ZM72.2324 35.6099H78.3779V98.6345H72.2324V35.6099ZM68.2324 35.6099V98.6345H62.0859V35.6099H68.2324ZM51.9385 35.6099H58.0859V98.6345H51.9385V35.6099ZM47.9385 35.6099V98.6345H41.792V35.6099H47.9385ZM42.8644 116.585C42.8644 122.889 37.7539 127.999 31.4497 127.999C25.1456 127.999 20.0351 122.889 20.0351 116.585C20.0351 110.281 25.1456 105.17 31.4497 105.17C37.7539 105.17 42.8644 110.281 42.8644 116.585ZM37.7908 116.585C37.7908 120.087 34.9517 122.926 31.4494 122.926C27.947 122.926 25.1079 120.087 25.1079 116.585C25.1079 113.083 27.947 110.243 31.4494 110.243C34.9517 110.243 37.7908 113.083 37.7908 116.585ZM31.4513 120.391C33.5527 120.391 35.2562 118.687 35.2562 116.586C35.2562 114.484 33.5527 112.781 31.4513 112.781C29.3499 112.781 27.6464 114.484 27.6464 116.586C27.6464 118.687 29.3499 120.391 31.4513 120.391ZM56.8143 127.999C63.1185 127.999 68.229 122.889 68.229 116.585C68.229 110.281 63.1185 105.17 56.8143 105.17C50.5102 105.17 45.3996 110.281 45.3996 116.585C45.3996 122.889 50.5102 127.999 56.8143 127.999ZM56.8139 122.926C60.3162 122.926 63.1554 120.087 63.1554 116.585C63.1554 113.083 60.3162 110.243 56.8139 110.243C53.3116 110.243 50.4724 113.083 50.4724 116.585C50.4724 120.087 53.3116 122.926 56.8139 122.926ZM60.6211 116.586C60.6211 118.687 58.9176 120.391 56.8162 120.391C54.7148 120.391 53.0113 118.687 53.0113 116.586C53.0113 114.484 54.7148 112.781 56.8162 112.781C58.9176 112.781 60.6211 114.484 60.6211 116.586ZM139.256 116.585C139.256 122.89 134.145 128 127.841 128C121.537 128 116.427 122.89 116.427 116.585C116.427 110.281 121.537 105.171 127.841 105.171C134.145 105.171 139.256 110.281 139.256 116.585ZM134.182 116.585C134.182 120.088 131.343 122.927 127.841 122.927C124.338 122.927 121.499 120.088 121.499 116.585C121.499 113.083 124.338 110.244 127.841 110.244C131.343 110.244 134.182 113.083 134.182 116.585ZM127.842 120.391C129.943 120.391 131.647 118.687 131.647 116.586C131.647 114.484 129.943 112.781 127.842 112.781C125.741 112.781 124.037 114.484 124.037 116.586C124.037 118.687 125.741 120.391 127.842 120.391ZM183.646 128C189.95 128 195.061 122.89 195.061 116.585C195.061 110.281 189.95 105.171 183.646 105.171C177.342 105.171 172.232 110.281 172.232 116.585C172.232 122.89 177.342 128 183.646 128ZM183.646 122.927C187.148 122.927 189.988 120.088 189.988 116.585C189.988 113.083 187.148 110.244 183.646 110.244C180.144 110.244 177.305 113.083 177.305 116.585C177.305 120.088 180.144 122.927 183.646 122.927ZM187.452 116.586C187.452 118.687 185.749 120.391 183.648 120.391C181.546 120.391 179.843 118.687 179.843 116.586C179.843 114.484 181.546 112.781 183.648 112.781C185.749 112.781 187.452 114.484 187.452 116.586Z" fill="#FCFEFF"/>
</svg>
