<svg width="152" height="152" viewBox="0 0 152 152" fill="none" xmlns="http://www.w3.org/2000/svg">
<rect width="152" height="152" fill="#383A3C"/>
<path fill-rule="evenodd" clip-rule="evenodd" d="M99.9991 76.4999C93.7027 76.4999 87.6145 73.7094 82.8492 68.6452C78.2157 63.7055 75.3859 57.1184 74.8868 50.1026C74.3539 42.6187 76.6538 35.7366 81.3609 30.721C86.0679 25.7054 92.6492 23 99.9991 23C107.297 23 113.897 25.754 118.588 30.7575C123.326 35.8096 125.632 42.6795 125.099 50.0995C124.588 57.1244 121.761 63.7086 117.137 68.6421C112.384 73.7094 106.299 76.4999 99.9991 76.4999ZM140.372 130H59.6295C58.3313 130.007 57.0489 129.718 55.8808 129.156C54.7128 128.593 53.6903 127.773 52.892 126.756C52.0452 125.655 51.4605 124.378 51.1815 123.02C50.9026 121.662 50.9366 120.26 51.2811 118.917C53.8598 108.639 60.2481 100.116 69.754 94.2704C78.1912 89.0846 88.9313 86.2272 99.9991 86.2272C111.284 86.2272 121.743 88.963 130.229 94.1458C139.756 99.9609 146.154 108.533 148.72 118.935C149.061 120.279 149.091 121.681 148.809 123.038C148.527 124.395 147.939 125.671 147.091 126.772C146.293 127.783 145.273 128.6 144.109 129.159C142.944 129.719 141.666 130.006 140.372 130Z" fill="#FCFEFF"/>
<path d="M42.1182 77.7158C31.3413 77.7158 21.866 67.7697 20.9871 55.5468C20.5522 49.2849 22.5183 43.4941 26.4995 39.2476C30.4379 35.0436 35.9932 32.7273 42.1182 32.7273C48.2432 32.7273 53.7556 35.0557 57.7154 39.284C61.7273 43.564 63.6873 49.3426 63.2279 55.5529C62.349 67.7728 52.8767 77.7158 42.1182 77.7158Z" fill="#FCFEFF"/>
<path d="M62.2265 87.2759C56.8396 84.6617 49.8479 83.3546 42.1213 83.3546C33.0992 83.3546 24.3374 85.6892 17.4468 89.9266C9.63442 94.7386 4.3792 101.745 2.2569 110.205C1.94632 111.422 1.91694 112.692 2.17097 113.922C2.425 115.152 2.95585 116.309 3.72383 117.306C4.45254 118.234 5.3861 118.985 6.45271 119.499C7.51932 120.013 8.69056 120.278 9.87636 120.273H43.8699C44.4437 120.273 44.9992 120.073 45.4397 119.708C45.8801 119.343 46.1775 118.836 46.2801 118.275C46.3138 118.084 46.3567 117.892 46.4057 117.704C49.0027 107.351 55.0878 98.6021 64.0793 92.2247C64.41 91.9881 64.676 91.6733 64.8531 91.3088C65.0303 90.9444 65.1131 90.5418 65.0939 90.1376C65.0748 89.7334 64.9543 89.3404 64.7434 88.9941C64.5325 88.6478 64.238 88.3592 63.8863 88.1544C63.4055 87.8748 62.8543 87.5799 62.2265 87.2759Z" fill="#FCFEFF"/>
</svg>
