<svg width="196" height="105" viewBox="0 0 196 105" fill="none" xmlns="http://www.w3.org/2000/svg">
<path fill-rule="evenodd" clip-rule="evenodd" d="M153.301 0C152.196 0 151.301 0.895432 151.301 2V18.4878C151.301 18.5145 151.301 18.5411 151.302 18.5676V71.7071H133.102V79.3901H151.302V79.3902H190.302V79.3901H195.502V42.9754C195.502 41.8709 194.607 40.9754 193.502 40.9754H190.302V9.68293C190.302 8.57836 189.407 7.68293 188.302 7.68293H156.501V2C156.501 0.895431 155.605 0 154.501 0H153.301ZM169.502 17.9267H182.502V35.8535H169.502V17.9267ZM187.701 14.0852C187.701 16.2068 187.119 17.9267 186.401 17.9267C185.683 17.9267 185.101 16.2068 185.101 14.0852C185.101 11.9636 185.683 10.2437 186.401 10.2437C187.119 10.2437 187.701 11.9636 187.701 14.0852ZM190.301 46.0976H190.901C192.005 46.0976 192.901 46.993 192.901 48.0976V71.7073H190.301V46.0976ZM126.5 11.6829H4.5V75.3902H126.5V11.6829ZM4.5 7.68293H0.5V11.6829V75.3902V79.3902H4.5H126.5H130.5V75.3902V64.0242H141.5C142.605 64.0242 143.5 63.1288 143.5 62.0242V14.8047C143.5 13.7001 142.605 12.8047 141.5 12.8047H130.5V9.68293C130.5 8.57836 129.605 7.68293 128.5 7.68293H4.5ZM134.38 20.4876C133.673 20.4876 133.1 21.0609 133.1 21.7681C133.1 22.4753 133.673 23.0486 134.38 23.0486H139.619C140.326 23.0486 140.9 22.4753 140.9 21.7681C140.9 21.0609 140.326 20.4876 139.619 20.4876H134.38ZM133.1 37.134C133.1 36.4268 133.673 35.8535 134.38 35.8535H139.619C140.326 35.8535 140.9 36.4268 140.9 37.134C140.9 37.8412 140.326 38.4145 139.619 38.4145H134.38C133.673 38.4145 133.1 37.8412 133.1 37.134ZM134.38 51.2193C133.673 51.2193 133.1 51.7926 133.1 52.4998C133.1 53.207 133.673 53.7803 134.38 53.7803H139.619C140.326 53.7803 140.9 53.207 140.9 52.4998C140.9 51.7926 140.326 51.2193 139.619 51.2193H134.38ZM133.1 26.8901C133.1 26.1829 133.673 25.6096 134.38 25.6096H139.619C140.326 25.6096 140.9 26.1829 140.9 26.8901C140.9 27.5973 140.326 28.1706 139.619 28.1706H134.38C133.673 28.1706 133.1 27.5973 133.1 26.8901ZM134.38 40.9754C133.673 40.9754 133.1 41.5487 133.1 42.2559C133.1 42.9631 133.673 43.5364 134.38 43.5364H139.619C140.326 43.5364 140.9 42.9631 140.9 42.2559C140.9 41.5487 140.326 40.9754 139.619 40.9754H134.38ZM133.1 57.6218C133.1 56.9146 133.673 56.3413 134.38 56.3413H139.619C140.326 56.3413 140.9 56.9146 140.9 57.6218C140.9 58.329 140.326 58.9023 139.619 58.9023H134.38C133.673 58.9023 133.1 58.329 133.1 57.6218ZM134.38 30.7315C133.673 30.7315 133.1 31.3048 133.1 32.012C133.1 32.7192 133.673 33.2925 134.38 33.2925H139.619C140.326 33.2925 140.9 32.7192 140.9 32.012C140.9 31.3048 140.326 30.7315 139.619 30.7315H134.38ZM133.1 47.3779C133.1 46.6707 133.673 46.0974 134.38 46.0974H139.619C140.326 46.0974 140.9 46.6707 140.9 47.3779C140.9 48.0851 140.326 48.6584 139.619 48.6584H134.38C133.673 48.6584 133.1 48.0851 133.1 47.3779ZM134.38 15.3657C133.673 15.3657 133.1 15.939 133.1 16.6462C133.1 17.3534 133.673 17.9267 134.38 17.9267H139.619C140.326 17.9267 140.9 17.3534 140.9 16.6462C140.9 15.939 140.326 15.3657 139.619 15.3657H134.38ZM84.2379 54.4706L81.1301 52.7023C81.6925 52.1317 82.3375 51.6463 83.0441 51.2617C83.5061 51.0052 83.8465 50.5793 83.9912 50.0767C84.1359 49.5741 84.0731 49.0356 83.8166 48.5783C83.5601 48.1211 83.1306 47.7822 82.6216 47.6354C82.1126 47.4886 81.5654 47.5458 81.099 47.7945C79.7497 48.5301 78.5541 49.5108 77.5753 50.6846L69.5215 46.0974L77.5735 41.5182C78.552 42.6923 79.7477 43.673 81.0972 44.4083C81.3285 44.5368 81.5833 44.6188 81.847 44.6498C82.1106 44.6807 82.3779 44.6599 82.6334 44.5885C82.8888 44.5172 83.1274 44.3967 83.3353 44.2341C83.5433 44.0714 83.7164 43.8698 83.8449 43.6409C83.9733 43.412 84.0544 43.1603 84.0836 42.9003C84.1127 42.6404 84.0893 42.3773 84.0147 42.1263C83.9401 41.8753 83.8157 41.6413 83.6488 41.4379C83.4819 41.2345 83.2758 41.0657 83.0423 40.9411C82.3358 40.5563 81.6908 40.0709 81.1283 39.5006L84.2361 37.7323C84.4738 37.6071 84.6835 37.4361 84.8528 37.2295C85.0221 37.0229 85.1475 36.7848 85.2215 36.5295C85.2956 36.2742 85.3167 36.0069 85.2838 35.7433C85.2508 35.4798 85.1644 35.2255 85.0297 34.9955C84.8949 34.7656 84.7146 34.5646 84.4995 34.4046C84.2844 34.2447 84.0388 34.1289 83.7773 34.0643C83.5158 33.9997 83.2439 33.9875 82.9775 34.0285C82.7112 34.0695 82.4559 34.1628 82.227 34.3029L79.1191 36.0703C78.8978 35.3049 78.7924 34.5115 78.8065 33.7159C78.8123 33.4553 78.7659 33.1961 78.6698 32.9533C78.5738 32.7104 78.43 32.4886 78.2468 32.3006C78.0635 32.1126 77.8444 31.962 77.602 31.8576C77.3595 31.7531 77.0985 31.6968 76.834 31.6919H76.7965C76.2696 31.6918 75.7637 31.8954 75.3876 32.2589C75.0116 32.6225 74.7954 33.1168 74.7856 33.6357C74.7572 35.1536 75.0209 36.663 75.5625 38.0843L67.5105 42.6662V33.5088C69.0319 33.2611 70.4918 32.7317 71.813 31.9485C72.2699 31.6774 72.5987 31.2386 72.7271 30.7286C72.8555 30.2187 72.7729 29.6794 72.4977 29.2295C72.2224 28.7795 71.7769 28.4556 71.2592 28.3291C70.7415 28.2027 70.1941 28.284 69.7372 28.5551C69.0447 28.9651 68.2943 29.2718 67.5105 29.4653V26.4699C67.5105 25.9446 67.2987 25.4408 66.9216 25.0693C66.5444 24.6978 66.0329 24.4891 65.4996 24.4891C64.9663 24.4891 64.4548 24.6978 64.0777 25.0693C63.7005 25.4408 63.4887 25.9446 63.4887 26.4699V29.4653C62.7049 29.2718 61.9546 28.9651 61.262 28.5551C60.8052 28.284 60.2577 28.2027 59.74 28.3291C59.2223 28.4556 58.7768 28.7795 58.5015 29.2295C58.2263 29.6794 58.1438 30.2187 58.2722 30.7286C58.4005 31.2386 58.7293 31.6774 59.1862 31.9485C60.5074 32.7317 61.9673 33.2611 63.4887 33.5088V42.6662L55.4367 38.0843C55.9792 36.6626 56.2434 35.1525 56.2155 33.6339C56.2057 33.115 55.9895 32.6206 55.6134 32.2571C55.2373 31.8936 54.7314 31.69 54.2045 31.6901H54.1652C53.9011 31.6949 53.6406 31.7509 53.3985 31.8549C53.1564 31.9589 52.9374 32.1089 52.7542 32.2962C52.5709 32.4836 52.4269 32.7047 52.3304 32.9469C52.2339 33.1891 52.1868 33.4476 52.1918 33.7078C52.2065 34.5046 52.1015 35.2992 51.8801 36.0658L48.7723 34.3029C48.5434 34.1684 48.2897 34.0801 48.0259 34.0431C47.7621 34.006 47.4934 34.021 47.2355 34.0871C46.9776 34.1532 46.7357 34.2692 46.5237 34.4282C46.3117 34.5872 46.1339 34.7862 46.0006 35.0135C45.8674 35.2408 45.7813 35.4919 45.7474 35.7523C45.7136 36.0127 45.7326 36.277 45.8034 36.5301C45.8742 36.7831 45.9953 37.0198 46.1597 37.2264C46.3242 37.4329 46.5287 37.6052 46.7613 37.7332L49.8691 39.5015C49.3066 40.0718 48.6616 40.5572 47.9551 40.942C47.7216 41.0666 47.5155 41.2354 47.3486 41.4388C47.1817 41.6422 47.0573 41.8762 46.9827 42.1272C46.9081 42.3782 46.8847 42.6413 46.9138 42.9012C46.943 43.1612 47.0241 43.4129 47.1525 43.6418C47.2809 43.8707 47.4541 44.0723 47.6621 44.235C47.87 44.3976 48.1086 44.5181 48.364 44.5894C48.6195 44.6608 48.8868 44.6816 49.1504 44.6507C49.4141 44.6197 49.6689 44.5377 49.9002 44.4092C51.2495 43.6736 52.4451 42.693 53.4239 41.5191L61.4777 46.0974L53.4258 50.6765C52.447 49.5027 51.2513 48.522 49.902 47.7864C49.6707 47.658 49.4159 47.5759 49.1523 47.545C48.8886 47.5141 48.6213 47.5349 48.3659 47.6062C48.1104 47.6776 47.8718 47.798 47.6639 47.9607C47.4559 48.1233 47.2828 48.3249 47.1543 48.5538C47.0259 48.7828 46.9448 49.0345 46.9156 49.2944C46.8865 49.5544 46.9099 49.8175 46.9845 50.0685C47.0591 50.3195 47.1835 50.5534 47.3504 50.7568C47.5173 50.9603 47.7234 51.1291 47.9569 51.2536C48.6634 51.6384 49.3084 52.1239 49.871 52.6942L46.7613 54.4706C46.5287 54.5986 46.3242 54.7709 46.1597 54.9774C45.9953 55.1839 45.8742 55.4206 45.8034 55.6737C45.7326 55.9267 45.7136 56.1911 45.7474 56.4515C45.7813 56.7118 45.8674 56.963 46.0006 57.1903C46.1339 57.4176 46.3117 57.6165 46.5237 57.7756C46.7357 57.9346 46.9776 58.0505 47.2355 58.1167C47.4934 58.1828 47.7621 58.1978 48.0259 58.1607C48.2897 58.1237 48.5434 58.0353 48.7723 57.9009L51.8801 56.1335C52.1014 56.8989 52.2068 57.6922 52.1927 58.4879C52.1834 59.0126 52.3859 59.5196 52.7557 59.8974C53.1256 60.2752 53.6325 60.4929 54.1652 60.5029H54.2027C54.7296 60.503 55.2355 60.2993 55.6116 59.9358C55.9876 59.5723 56.2038 59.0779 56.2136 58.559C56.242 57.0412 55.9783 55.5317 55.4367 54.1104L63.4887 49.5286V58.686C61.9673 58.9336 60.5074 59.4631 59.1862 60.2463C58.7293 60.5174 58.4005 60.9562 58.2722 61.4661C58.1438 61.976 58.2263 62.5153 58.5015 62.9653C58.7768 63.4153 59.2223 63.7392 59.74 63.8656C60.2577 63.9921 60.8052 63.9108 61.262 63.6397C61.9546 63.2297 62.7049 62.9229 63.4887 62.7294V65.7249C63.4887 66.2502 63.7005 66.754 64.0777 67.1255C64.4548 67.4969 64.9663 67.7056 65.4996 67.7056C66.0329 67.7056 66.5444 67.4969 66.9216 67.1255C67.2987 66.754 67.5105 66.2502 67.5105 65.7249V62.7294C68.2943 62.9229 69.0447 63.2297 69.7372 63.6397C70.1941 63.9108 70.7415 63.9921 71.2592 63.8656C71.7769 63.7391 72.2224 63.4153 72.4977 62.9653C72.7729 62.5153 72.8555 61.976 72.7271 61.4661C72.5987 60.9562 72.2699 60.5174 71.813 60.2463C70.4918 59.4631 69.0319 58.9336 67.5105 58.686V49.5286L75.5625 54.1104C75.02 55.5322 74.7558 57.0422 74.7837 58.5608C74.7936 59.0797 75.0098 59.5741 75.3858 59.9376C75.7619 60.3012 76.2678 60.5048 76.7947 60.5047H76.834C77.0981 60.4999 77.3586 60.4439 77.6007 60.3399C77.8429 60.2359 78.0618 60.0859 78.2451 59.8985C78.4283 59.7112 78.5723 59.4901 78.6688 59.2479C78.7653 59.0057 78.8124 58.7471 78.8074 58.487C78.7927 57.6902 78.8977 56.8956 79.1191 56.129L82.227 57.8964C82.4558 58.0411 82.7121 58.1386 82.9803 58.183C83.2485 58.2274 83.523 58.2177 83.7874 58.1546C84.0517 58.0915 84.3002 57.9762 84.518 57.8158C84.7358 57.6553 84.9182 57.453 85.0544 57.2211C85.1905 56.9892 85.2775 56.7325 85.31 56.4665C85.3425 56.2006 85.3199 55.9309 85.2436 55.6738C85.1673 55.4166 85.0388 55.1774 84.8659 54.9706C84.6931 54.7638 84.4794 54.5937 84.2379 54.4706ZM14.8016 105C21.2633 105 26.5016 99.8402 26.5016 93.4754C26.5016 87.1107 21.2633 81.951 14.8016 81.951C8.33983 81.951 3.10156 87.1107 3.10156 93.4754C3.10156 99.8402 8.33983 105 14.8016 105ZM14.8018 99.8779C18.3916 99.8779 21.3018 97.0115 21.3018 93.4755C21.3018 89.9395 18.3916 87.073 14.8018 87.073C11.2119 87.073 8.30176 89.9395 8.30176 93.4755C8.30176 97.0115 11.2119 99.8779 14.8018 99.8779ZM18.7004 93.4755C18.7004 95.5971 16.9543 97.3169 14.8004 97.3169C12.6465 97.3169 10.9004 95.5971 10.9004 93.4755C10.9004 91.3539 12.6465 89.634 14.8004 89.634C16.9543 89.634 18.7004 91.3539 18.7004 93.4755ZM52.5016 93.4754C52.5016 99.8402 47.2633 105 40.8016 105C34.3398 105 29.1016 99.8402 29.1016 93.4754C29.1016 87.1107 34.3398 81.951 40.8016 81.951C47.2633 81.951 52.5016 87.1107 52.5016 93.4754ZM47.3018 93.4755C47.3018 97.0115 44.3916 99.8779 40.8018 99.8779C37.2119 99.8779 34.3018 97.0115 34.3018 93.4755C34.3018 89.9395 37.2119 87.073 40.8018 87.073C44.3916 87.073 47.3018 89.9395 47.3018 93.4755ZM40.8004 97.3169C42.9543 97.3169 44.7004 95.5971 44.7004 93.4755C44.7004 91.3539 42.9543 89.634 40.8004 89.634C38.6465 89.634 36.9004 91.3539 36.9004 93.4755C36.9004 95.5971 38.6465 97.3169 40.8004 97.3169ZM113.598 105C120.06 105 125.298 99.8402 125.298 93.4754C125.298 87.1107 120.06 81.951 113.598 81.951C107.137 81.951 101.898 87.1107 101.898 93.4754C101.898 99.8402 107.137 105 113.598 105ZM113.599 99.8779C117.188 99.8779 120.099 97.0115 120.099 93.4755C120.099 89.9395 117.188 87.073 113.599 87.073C110.009 87.073 107.099 89.9395 107.099 93.4755C107.099 97.0115 110.009 99.8779 113.599 99.8779ZM117.499 93.4755C117.499 95.5971 115.753 97.3169 113.599 97.3169C111.445 97.3169 109.699 95.5971 109.699 93.4755C109.699 91.3539 111.445 89.634 113.599 89.634C115.753 89.634 117.499 91.3539 117.499 93.4755ZM182.502 93.4754C182.502 99.8402 177.263 105 170.802 105C164.34 105 159.102 99.8402 159.102 93.4754C159.102 87.1107 164.34 81.951 170.802 81.951C177.263 81.951 182.502 87.1107 182.502 93.4754ZM177.302 93.4755C177.302 97.0115 174.392 99.8779 170.802 99.8779C167.212 99.8779 164.302 97.0115 164.302 93.4755C164.302 89.9395 167.212 87.073 170.802 87.073C174.392 87.073 177.302 89.9395 177.302 93.4755ZM170.8 97.3169C172.954 97.3169 174.7 95.5971 174.7 93.4755C174.7 91.3539 172.954 89.634 170.8 89.634C168.646 89.634 166.9 91.3539 166.9 93.4755C166.9 95.5971 168.646 97.3169 170.8 97.3169Z" fill="#FCFEFF"/>
</svg>
