<svg width="152" height="152" viewBox="0 0 152 152" fill="none" xmlns="http://www.w3.org/2000/svg">
<rect width="152" height="152" fill="#383A3C"/>
<path fill-rule="evenodd" clip-rule="evenodd" d="M75.5 21C44.8492 21 20 45.8492 20 76.5C20 107.151 44.8492 132 75.5 132C106.151 132 131 107.151 131 76.5C131 45.8492 106.151 21 75.5 21ZM59.6429 27.9375C38.8304 32.396 24.1353 55.0659 24.1353 76.5C24.1353 103.066 48.934 127.865 75.5 127.865C102.066 127.865 125.994 103.066 125.994 76.5C125.994 72.8 126.045 66.5893 123.382 63.254L119.029 70.4059C118.585 71.0719 118.159 73.17 115.547 74.317H114.128C113.499 74.317 112.981 73.799 112.981 73.17V71.172C112.981 66.732 110.021 59.517 105.581 59.517H99.846C97.885 59.517 97.145 61.959 98.292 62.958L99.143 63.661C100.771 65.03 100.438 67.583 98.551 68.545L94.296 70.691H93.001C91.669 70.691 90.559 69.581 90.559 68.249V65.104C90.559 64.105 89.745 63.254 88.709 63.254H88.6868C87.6138 63.254 83.381 63.254 83.381 68.434V70.284C83.381 74.021 89.819 77.018 93.482 77.61C94.074 77.684 94.555 78.202 94.555 78.794V80.126C94.555 80.94 94.37 81.754 94 82.494L86.933 93.039H85.675C84.454 93.039 83.455 94.001 83.418 95.222L83.196 104.176L76.906 110.466C76.166 111.243 75.167 111.65 74.094 111.65H72.281C70.061 111.65 68.285 109.837 68.285 107.654V99.329C68.285 97.257 67.212 96.739 66.435 96.739H65.14C63.808 96.739 62.698 95.629 62.698 94.297V87.933C62.698 84.492 59.923 81.717 56.482 81.717H45.9C42.607 81.717 38.5 75.464 38.5 72.171V69.544C38.5 67.879 39.129 66.288 40.239 65.104L44.198 60.923C45.086 59.998 46.344 59.48 47.639 59.517H51.561C52.708 59.517 53.781 59.073 54.595 58.259L55.779 57.075C56.593 56.261 57.703 55.817 58.85 55.817H62.698C63.549 55.817 64.511 56.261 64.474 57.26V58.296C64.363 60.442 68.544 59.48 68.544 59.48C68.544 59.48 72.096 56.261 73.724 55.891C75.389 55.484 78.719 56.409 80.68 57.593C81.753 58.222 83.085 57.482 83.085 56.261C83.085 53.93 81.161 52.043 78.83 52.043H77.461C76.9802 52.043 76.519 51.852 76.179 51.512C75.839 51.172 75.648 50.7108 75.648 50.23V47.566C75.648 47.2814 75.535 47.0085 75.3337 46.8073C75.1325 46.606 74.8596 46.493 74.575 46.493H73.206C72.429 46.493 71.689 46.863 71.245 47.529L68.951 50.933C68.507 51.636 67.73 52.043 66.879 52.043H66.361C65.177 52.043 64.067 51.599 63.216 50.748L61.588 49.49C60.256 48.38 58.554 48.343 58.221 48.343H54.632C53.892 48.343 53.337 48.935 53.337 49.638L53.189 50.748C53.189 52.08 52.264 53.893 50.932 53.893H48.786C47.454 53.893 46.381 52.82 46.381 51.525V47.085C46.381 45.716 47.491 44.643 48.823 44.643C49.563 44.643 50.118 44.051 50.118 43.348V42.201C50.118 39.278 52.227 38.834 53.781 39.204C54.4433 39.3779 55.1315 39.6702 55.8271 39.9699C56.926 40.4398 58.0471 40.9208 59.109 40.943H64.955C67.138 40.943 68.581 39.463 68.581 37.317C68.581 36.7805 68.6069 36.2218 68.6328 35.6705C68.7475 33.2174 68.8548 30.9086 66.62 31.36L65.584 32.396C64.918 33.099 64.511 34.024 64.511 35.023V35.541C64.511 36.466 63.771 37.28 62.846 37.354C61.958 37.391 60.811 37.243 60.811 36.096C60.811 35.134 60.7814 34.579 60.7555 34.0721C60.7185 33.2951 60.6815 32.655 60.774 30.879C60.8665 29.103 59.6059 25.7138 59.6429 27.9375ZM83.7695 29.1067C81.8882 28.7809 79.9892 28.5672 78.0826 28.4666L79.385 29.769H83.122L83.7658 29.1067H83.7695Z" fill="#FCFEFF"/>
</svg>
