<svg width="179" height="143" viewBox="0 0 179 143" fill="none" xmlns="http://www.w3.org/2000/svg">
<path fill-rule="evenodd" clip-rule="evenodd" d="M96.2385 5.4641L17.005 51.2096C4.56941 58.3893 0.308646 74.2906 7.48835 86.7262L20.017 108.426L107.911 57.681C115.563 53.2628 118.185 43.4773 113.767 35.8246L96.2385 5.4641ZM15.005 47.7455C0.656241 56.0297 -4.26003 74.3774 4.02424 88.7262L16.5529 110.426L18.5529 113.891L20.6576 112.675V115.495C20.6576 116.047 21.1053 116.495 21.6576 116.495H141.98L141.98 116.495L141.98 116.495H171.736L171.736 116.495L171.736 116.495H177.603C178.155 116.495 178.603 116.047 178.603 115.495V100.37C178.603 99.2652 177.708 98.3698 176.603 98.3698C176.444 98.3698 176.315 98.2408 176.315 98.0816V84.8335C176.315 83.729 175.419 82.8335 174.315 82.8335H172.738C172.186 82.8335 171.738 82.3858 171.738 81.8335V50.994C171.738 47.128 168.604 43.994 164.738 43.994H142.976C142.424 43.994 141.976 43.5462 141.976 42.994V38.226C141.976 37.1214 141.081 36.226 139.976 36.226H139.398C138.293 36.226 137.398 37.1214 137.398 38.226V54.9404C137.398 54.9827 137.399 55.0246 137.402 55.0662V110.316C137.402 110.869 136.954 111.316 136.402 111.316H23.0118L109.911 61.1451C119.477 55.6223 122.754 43.3905 117.231 33.8246L99.7026 3.4641L97.7026 0L94.2385 2L15.005 47.7455ZM43.9567 130.736C43.9567 137.171 38.74 142.388 32.3048 142.388C25.8697 142.388 20.6529 137.171 20.6529 130.736C20.6529 124.301 25.8697 119.084 32.3048 119.084C38.74 119.084 43.9567 124.301 43.9567 130.736ZM38.7777 130.736C38.7777 134.311 35.8795 137.209 32.3044 137.209C28.7293 137.209 25.8312 134.311 25.8312 130.736C25.8312 127.161 28.7293 124.262 32.3044 124.262C35.8795 124.262 38.7777 127.161 38.7777 130.736ZM32.3043 134.62C34.4494 134.62 36.1883 132.881 36.1883 130.736C36.1883 128.59 34.4494 126.852 32.3043 126.852C30.1592 126.852 28.4203 128.59 28.4203 130.736C28.4203 132.881 30.1592 134.62 32.3043 134.62ZM58.1977 142.388C64.6329 142.388 69.8496 137.171 69.8496 130.736C69.8496 124.301 64.6329 119.084 58.1977 119.084C51.7625 119.084 46.5458 124.301 46.5458 130.736C46.5458 137.171 51.7625 142.388 58.1977 142.388ZM58.1974 137.209C61.7725 137.209 64.6707 134.311 64.6707 130.736C64.6707 127.16 61.7725 124.262 58.1974 124.262C54.6224 124.262 51.7242 127.16 51.7242 130.736C51.7242 134.311 54.6224 137.209 58.1974 137.209ZM62.0809 130.736C62.0809 132.881 60.342 134.62 58.197 134.62C56.0519 134.62 54.313 132.881 54.313 130.736C54.313 128.59 56.0519 126.852 58.197 126.852C60.342 126.852 62.0809 128.59 62.0809 130.736ZM165.656 130.736C165.656 137.171 160.439 142.388 154.004 142.388C147.569 142.388 142.352 137.171 142.352 130.736C142.352 124.301 147.569 119.084 154.004 119.084C160.439 119.084 165.656 124.301 165.656 130.736ZM160.477 130.736C160.477 134.311 157.579 137.209 154.004 137.209C150.429 137.209 147.531 134.311 147.531 130.736C147.531 127.16 150.429 124.262 154.004 124.262C157.579 124.262 160.477 127.16 160.477 130.736ZM154.002 134.62C156.147 134.62 157.886 132.881 157.886 130.736C157.886 128.59 156.147 126.852 154.002 126.852C151.857 126.852 150.118 128.59 150.118 130.736C150.118 132.881 151.857 134.62 154.002 134.62ZM154.425 54.3513C153.872 54.3513 153.425 54.799 153.425 55.3513V71.4765C153.425 72.0288 153.872 72.4765 154.425 72.4765H163.87C164.422 72.4765 164.87 72.0288 164.87 71.4765V55.3513C164.87 54.799 164.422 54.3513 163.87 54.3513H154.425Z" fill="#383A3C"/>
</svg>
