<svg width="150" height="104" viewBox="0 0 150 104" fill="none" xmlns="http://www.w3.org/2000/svg">
<path fill-rule="evenodd" clip-rule="evenodd" d="M103.727 1.99951C103.727 0.894943 104.623 -0.000488281 105.727 -0.000488281H106.792C107.897 -0.000488281 108.792 0.894942 108.792 1.99951V6.68296C108.792 7.23524 109.24 7.68296 109.792 7.68296H134.714C138.58 7.68296 141.714 10.817 141.714 14.683V45.0977C141.714 45.65 142.162 46.0977 142.714 46.0977H144.778C145.883 46.0977 146.778 46.9931 146.778 48.0977V60.9304C146.778 61.2248 147.017 61.4635 147.312 61.4635C148.416 61.4635 149.312 62.3589 149.312 63.4635V78.3902C149.312 78.9425 148.864 79.3902 148.312 79.3902L146.778 79.3902H139.181L139.181 79.3901L139.181 79.39H103.727L103.727 79.39L103.727 79.3899H87C86.4477 79.3899 86 78.9422 86 78.3899V75.268C86 74.7157 86.4477 74.268 87 74.268H102.727C103.28 74.268 103.727 73.8203 103.727 73.268V18.4872V7.68296V1.99951ZM122.454 17.9268C121.901 17.9268 121.454 18.3745 121.454 18.9268V34.8536C121.454 35.4059 121.901 35.8536 122.454 35.8536H133.116C133.668 35.8536 134.116 35.4059 134.116 34.8536V18.9268C134.116 18.3745 133.668 17.9268 133.116 17.9268H122.454ZM80.2561 14.3901H4.5V75.3657H80.2561V14.3901ZM4.5 10.3901H0.5V14.3901V75.3657V79.3657H4.5H80.2561H84.2561V75.3657V14.3901V10.3901H80.2561H4.5ZM29.1328 92.9151C29.1328 99.0374 24.1697 104.001 18.0474 104.001C11.9251 104.001 6.96206 99.0374 6.96206 92.9151C6.96206 86.7929 11.9251 81.8298 18.0474 81.8298C24.1697 81.8298 29.1328 86.7929 29.1328 92.9151ZM24.206 92.9151C24.206 96.3164 21.4487 99.0737 18.0474 99.0737C14.6462 99.0737 11.8889 96.3164 11.8889 92.9151C11.8889 89.5139 14.6462 86.7566 18.0474 86.7566C21.4487 86.7566 24.206 89.5139 24.206 92.9151ZM18.0483 96.6099C20.0891 96.6099 21.7435 94.9556 21.7435 92.9148C21.7435 90.874 20.0891 89.2197 18.0483 89.2197C16.0076 89.2197 14.3532 90.874 14.3532 92.9148C14.3532 94.9556 16.0076 96.6099 18.0483 96.6099ZM42.6829 104C48.8052 104 53.7683 99.0369 53.7683 92.9146C53.7683 86.7924 48.8052 81.8293 42.6829 81.8293C36.5606 81.8293 31.5976 86.7924 31.5976 92.9146C31.5976 99.0369 36.5606 104 42.6829 104ZM42.6828 99.0733C46.0841 99.0733 48.8414 96.3161 48.8414 92.9148C48.8414 89.5135 46.0841 86.7563 42.6828 86.7563C39.2816 86.7563 36.5243 89.5135 36.5243 92.9148C36.5243 96.3161 39.2816 99.0733 42.6828 99.0733ZM46.378 92.9148C46.378 94.9556 44.7236 96.6099 42.6828 96.6099C40.6421 96.6099 38.9877 94.9556 38.9877 92.9148C38.9877 90.874 40.6421 89.2197 42.6828 89.2197C44.7236 89.2197 46.378 90.874 46.378 92.9148ZM137.524 92.9146C137.524 99.0369 132.561 104 126.439 104C120.317 104 115.354 99.0369 115.354 92.9146C115.354 86.7924 120.317 81.8293 126.439 81.8293C132.561 81.8293 137.524 86.7924 137.524 92.9146ZM132.598 92.9148C132.598 96.3161 129.84 99.0733 126.439 99.0733C123.038 99.0733 120.281 96.3161 120.281 92.9148C120.281 89.5135 123.038 86.7563 126.439 86.7563C129.84 86.7563 132.598 89.5135 132.598 92.9148ZM126.439 96.6099C128.48 96.6099 130.134 94.9556 130.134 92.9148C130.134 90.874 128.48 89.2197 126.439 89.2197C124.398 89.2197 122.744 90.874 122.744 92.9148C122.744 94.9556 124.398 96.6099 126.439 96.6099Z" fill="#383A3C"/>
</svg>
