<svg width="195" height="108" viewBox="0 0 195 108" fill="none" xmlns="http://www.w3.org/2000/svg">
<path fill-rule="evenodd" clip-rule="evenodd" d="M43 2C42.4477 2 42 1.55228 42 1C42 0.447715 42.4477 0 43 0H51C51.5523 0 52 0.447715 52 1C52 1.55228 51.5523 2 51 2H49V10.6831H105.266C125.067 10.6831 141.119 26.7352 141.119 46.5365C141.119 66.3378 125.067 82.3899 105.266 82.3899H35.8534C16.0521 82.3899 0 66.3378 0 46.5365C0 26.7352 16.0521 10.6831 35.8534 10.6831H45V2H43ZM148.816 5C148.816 3.89543 149.711 3 150.816 3H151.947C153.052 3 153.947 3.89543 153.947 5V9.68355C153.947 10.2358 154.395 10.6835 154.947 10.6835H180.302C184.168 10.6835 187.302 13.8176 187.302 17.6835V48.0968C187.302 48.6491 187.75 49.0968 188.302 49.0968H190.435C191.539 49.0968 192.435 49.9923 192.435 51.0968V63.8975C192.435 64.2098 192.688 64.463 193 64.463C194.105 64.463 195 65.3584 195 66.463V81.3897C195 81.9419 194.553 82.3897 194 82.3897H187.303L187.303 82.3895L187.303 82.3893H187.302L187.302 82.3894L187.302 82.3898C187.302 82.3901 187.302 82.3904 187.301 82.3904H148.815L148.815 82.3903L148.815 82.3901H131.854C131.301 82.3901 130.854 81.9424 130.854 81.3901V78.2682C130.854 77.7159 131.301 77.2682 131.854 77.2682H147.815C148.367 77.2682 148.815 76.8205 148.815 76.2682V10.684L148.815 10.6836L148.815 10.6835C148.816 10.6835 148.816 10.6833 148.816 10.6831V5ZM167.776 20.9269C167.223 20.9269 166.776 21.3746 166.776 21.9269V37.8536C166.776 38.4059 167.223 38.8536 167.776 38.8536H178.605C179.157 38.8536 179.605 38.4059 179.605 37.8536V21.9269C179.605 21.3746 179.157 20.9269 178.605 20.9269H167.776ZM35.8534 14.6831H105.266C122.858 14.6831 137.119 28.9443 137.119 46.5365C137.119 64.1286 122.858 78.3899 105.266 78.3899H35.8534C18.2613 78.3899 4 64.1286 4 46.5365C4 28.9443 18.2613 14.6831 35.8534 14.6831ZM16.6731 107.999C23.0498 107.999 28.2192 102.839 28.2192 96.4746C28.2192 90.1099 23.0498 84.9503 16.6731 84.9503C10.2963 84.9503 5.12695 90.1099 5.12695 96.4746C5.12695 102.839 10.2963 107.999 16.6731 107.999ZM16.6743 102.877C20.2169 102.877 23.0888 100.011 23.0888 96.4746C23.0888 92.9386 20.2169 90.0722 16.6743 90.0722C13.1316 90.0722 10.2598 92.9386 10.2598 96.4746C10.2598 100.011 13.1316 102.877 16.6743 102.877ZM20.5246 96.4745C20.5246 98.596 18.8014 100.316 16.6759 100.316C14.5503 100.316 12.8271 98.596 12.8271 96.4745C12.8271 94.3529 14.5503 92.633 16.6759 92.633C18.8014 92.633 20.5246 94.3529 20.5246 96.4745ZM53.8842 96.4741C53.8842 102.839 48.7149 107.998 42.3381 107.998C35.9614 107.998 30.792 102.839 30.792 96.4741C30.792 90.1094 35.9614 84.9498 42.3381 84.9498C48.7149 84.9498 53.8842 90.1094 53.8842 96.4741ZM48.7548 96.4741C48.7548 100.01 45.8829 102.876 42.3403 102.876C38.7977 102.876 35.9258 100.01 35.9258 96.4741C35.9258 92.9381 38.7977 90.0717 42.3403 90.0717C45.8829 90.0717 48.7548 92.9381 48.7548 96.4741ZM42.338 100.315C44.4635 100.315 46.1867 98.5955 46.1867 96.474C46.1867 94.3524 44.4635 92.6325 42.338 92.6325C40.2124 92.6325 38.4893 94.3524 38.4893 96.474C38.4893 98.5955 40.2124 100.315 42.338 100.315ZM111.613 108C117.99 108 123.16 102.84 123.16 96.4756C123.16 90.1109 117.99 84.9513 111.613 84.9513C105.237 84.9513 100.067 90.1109 100.067 96.4756C100.067 102.84 105.237 108 111.613 108ZM111.613 102.878C115.155 102.878 118.027 100.011 118.027 96.4755C118.027 92.9396 115.155 90.0731 111.613 90.0731C108.07 90.0731 105.198 92.9396 105.198 96.4755C105.198 100.011 108.07 102.878 111.613 102.878ZM115.461 96.4749C115.461 98.5965 113.738 100.316 111.612 100.316C109.487 100.316 107.764 98.5965 107.764 96.4749C107.764 94.3534 109.487 92.6335 111.612 92.6335C113.738 92.6335 115.461 94.3534 115.461 96.4749ZM179.604 96.4746C179.604 102.839 174.435 107.999 168.058 107.999C161.681 107.999 156.512 102.839 156.512 96.4746C156.512 90.1099 161.681 84.9503 168.058 84.9503C174.435 84.9503 179.604 90.1099 179.604 96.4746ZM174.474 96.4751C174.474 100.011 171.602 102.877 168.059 102.877C164.516 102.877 161.645 100.011 161.645 96.4751C161.645 92.9391 164.516 90.0727 168.059 90.0727C171.602 90.0727 174.474 92.9391 174.474 96.4751ZM168.059 100.316C170.184 100.316 171.907 98.596 171.907 96.4745C171.907 94.3529 170.184 92.633 168.059 92.633C165.933 92.633 164.21 94.3529 164.21 96.4745C164.21 98.596 165.933 100.316 168.059 100.316ZM92.3684 28.6096C89.5204 28.6096 87.2368 30.8888 87.2368 33.7315V51.0436C85.5947 52.5033 84.671 54.6033 84.671 56.7801C84.671 61.0313 88.1092 64.463 92.3684 64.463C96.6277 64.463 100.066 61.0313 100.066 56.7801C100.066 54.6033 99.1421 52.5033 97.5 51.0692V33.7315C97.5 30.8888 95.2165 28.6096 92.3684 28.6096ZM92.3684 31.1705C93.7796 31.1705 94.9342 32.323 94.9342 33.7315V36.2924H89.8026V33.7315C89.8026 32.323 90.9572 31.1705 92.3684 31.1705ZM64.1446 67.0239C55.6518 67.0239 48.7498 60.135 48.7498 51.6582C48.7498 41.4144 64.1446 24.1279 64.1446 24.1279C64.1446 24.1279 79.5394 41.4144 79.5394 51.6582C79.5394 60.135 72.6374 67.0239 64.1446 67.0239Z" fill="#383A3C"/>
</svg>
