<svg width="196" height="104" viewBox="0 0 196 104" fill="none" xmlns="http://www.w3.org/2000/svg">
<path fill-rule="evenodd" clip-rule="evenodd" d="M151.659 0C150.554 0 149.659 0.895428 149.659 2V7.60848C149.659 7.6091 149.658 7.60961 149.658 7.60961C149.657 7.60961 149.657 7.61011 149.657 7.61073V72.5613C149.657 73.1136 149.209 73.5613 148.657 73.5613H132.9C132.348 73.5613 131.9 74.0091 131.9 74.5613V77.6345C131.9 78.1868 132.348 78.6345 132.9 78.6345H154.729L154.73 78.6344L154.73 78.6343H187.705L187.706 78.6342L187.706 78.634H192.779L192.779 78.6339H194.316C194.868 78.6339 195.316 78.1862 195.316 77.6339V62.8777C195.316 61.7732 194.421 60.8777 193.316 60.8777C193.02 60.8777 192.779 60.6374 192.779 60.3408V47.6583C192.779 46.5537 191.884 45.6583 190.779 45.6583H188.706C188.153 45.6583 187.706 45.2106 187.706 44.6583V14.6096C187.706 10.7436 184.572 7.60961 180.706 7.60961H155.732C155.18 7.60961 154.732 7.16189 154.732 6.60961V2C154.732 0.895431 153.837 0 152.732 0H151.659ZM167.413 18.7557C167.413 18.2035 167.861 17.7557 168.413 17.7557H179.096C179.648 17.7557 180.096 18.2035 180.096 18.7557V34.5119C180.096 35.0642 179.648 35.5119 179.096 35.5119H168.413C167.861 35.5119 167.413 35.0642 167.413 34.5119V18.7557ZM10.1465 11.6099H4V74.6345H10.1465V11.6099ZM14.1465 11.6099V74.6345H20.292V11.6099H14.1465ZM30.4385 78.6345H24.292V78.6831H20.292V78.6345H14.1465V78.6831H10.1465V78.6345H4H0V74.6345V11.6099V7.60986H4H122.83H126.83V11.6099V74.6345V78.6345H122.83H115.61V78.6831H111.61V78.6345H105.464V78.6831H101.464V78.6345H95.3184V78.6831H91.3184V78.6345H85.1709V78.6831H81.1709V78.6345H75.0244V78.6831H71.0244V78.6345H64.8779V78.6831H60.8779V78.6345H54.7324V78.6831H50.7324V78.6345H44.5859V78.6831H40.5859V78.6345H34.4385V78.6831H30.4385V78.6345ZM115.61 74.6345H122.83V11.6099H115.61V74.6345ZM111.61 11.6099V74.6345H105.464V11.6099H111.61ZM95.3184 11.6099H101.464V74.6345H95.3184V11.6099ZM91.3184 11.6099V74.6345H85.1709V11.6099H91.3184ZM75.0244 11.6099H81.1709V74.6345H75.0244V11.6099ZM71.0244 11.6099V74.6345H64.8779V11.6099H71.0244ZM54.7324 11.6099H60.8779V74.6345H54.7324V11.6099ZM50.7324 11.6099V74.6345H44.5859V11.6099H50.7324ZM34.4385 11.6099H40.5859V74.6345H34.4385V11.6099ZM30.4385 11.6099V74.6345H24.292V11.6099H30.4385ZM25.3644 92.5847C25.3644 98.8889 20.2539 103.999 13.9497 103.999C7.64559 103.999 2.53506 98.8889 2.53506 92.5847C2.53506 86.2805 7.64559 81.17 13.9497 81.17C20.2539 81.17 25.3644 86.2805 25.3644 92.5847ZM20.2908 92.5848C20.2908 96.0872 17.4517 98.9263 13.9494 98.9263C10.447 98.9263 7.60786 96.0872 7.60786 92.5848C7.60786 89.0825 10.447 86.2434 13.9494 86.2434C17.4517 86.2434 20.2908 89.0825 20.2908 92.5848ZM13.9513 96.3905C16.0527 96.3905 17.7562 94.687 17.7562 92.5856C17.7562 90.4842 16.0527 88.7807 13.9513 88.7807C11.8499 88.7807 10.1464 90.4842 10.1464 92.5856C10.1464 94.687 11.8499 96.3905 13.9513 96.3905ZM39.3143 103.999C45.6185 103.999 50.729 98.8889 50.729 92.5847C50.729 86.2805 45.6185 81.17 39.3143 81.17C33.0102 81.17 27.8996 86.2805 27.8996 92.5847C27.8996 98.8889 33.0102 103.999 39.3143 103.999ZM39.3139 98.9263C42.8162 98.9263 45.6554 96.0872 45.6554 92.5848C45.6554 89.0825 42.8162 86.2434 39.3139 86.2434C35.8116 86.2434 32.9724 89.0825 32.9724 92.5848C32.9724 96.0872 35.8116 98.9263 39.3139 98.9263ZM43.1211 92.5856C43.1211 94.687 41.4176 96.3905 39.3162 96.3905C37.2148 96.3905 35.5113 94.687 35.5113 92.5856C35.5113 90.4842 37.2148 88.7807 39.3162 88.7807C41.4176 88.7807 43.1211 90.4842 43.1211 92.5856ZM121.756 92.5854C121.756 98.8895 116.645 104 110.341 104C104.037 104 98.9266 98.8895 98.9266 92.5854C98.9266 86.2812 104.037 81.1707 110.341 81.1707C116.645 81.1707 121.756 86.2812 121.756 92.5854ZM116.682 92.5853C116.682 96.0876 113.843 98.9268 110.341 98.9268C106.838 98.9268 103.999 96.0876 103.999 92.5853C103.999 89.083 106.838 86.2438 110.341 86.2438C113.843 86.2438 116.682 89.083 116.682 92.5853ZM110.342 96.3905C112.443 96.3905 114.147 94.687 114.147 92.5856C114.147 90.4842 112.443 88.7807 110.342 88.7807C108.241 88.7807 106.537 90.4842 106.537 92.5856C106.537 94.687 108.241 96.3905 110.342 96.3905ZM166.146 104C172.45 104 177.561 98.8895 177.561 92.5854C177.561 86.2812 172.45 81.1707 166.146 81.1707C159.842 81.1707 154.732 86.2812 154.732 92.5854C154.732 98.8895 159.842 104 166.146 104ZM166.146 98.9268C169.648 98.9268 172.488 96.0876 172.488 92.5853C172.488 89.083 169.648 86.2438 166.146 86.2438C162.644 86.2438 159.805 89.083 159.805 92.5853C159.805 96.0876 162.644 98.9268 166.146 98.9268ZM169.952 92.5856C169.952 94.687 168.249 96.3905 166.148 96.3905C164.046 96.3905 162.343 94.687 162.343 92.5856C162.343 90.4842 164.046 88.7807 166.148 88.7807C168.249 88.7807 169.952 90.4842 169.952 92.5856Z" fill="#383A3C"/>
</svg>
