<svg width="152" height="152" viewBox="0 0 152 152" fill="none" xmlns="http://www.w3.org/2000/svg">
<g clip-path="url(#clip0_1829_11583)">
<path fill-rule="evenodd" clip-rule="evenodd" d="M142.238 76.2374C142.238 112.688 112.689 142.237 76.238 142.237C39.7873 142.237 10.2381 112.688 10.2381 76.2373C10.2381 39.7866 39.7872 10.2374 76.238 10.2374C112.689 10.2374 142.238 39.7866 142.238 76.2374ZM149.238 76.2373C149.238 116.554 116.555 149.237 76.238 149.237C35.9213 149.237 3.23806 116.554 3.23805 76.2373C3.23805 35.9206 35.9213 3.23736 76.238 3.23736C116.555 3.23737 149.238 35.9206 149.238 76.2373ZM104.833 51.9621C106.869 49.9258 110.17 49.9258 112.207 51.9621C114.243 53.9984 114.243 57.2999 112.207 59.3362L71.6491 99.8939C71.3306 100.212 70.981 100.481 70.6103 100.7C70.5095 100.792 70.4035 100.878 70.2927 100.958L69.7303 101.365C67.1413 103.239 63.5743 102.956 61.3142 100.696L43.4281 82.8094C41.3918 80.7731 41.3918 77.4716 43.4281 75.4353C45.4644 73.399 48.7659 73.399 50.8022 75.4353L66.0808 90.7139L104.833 51.9621Z" fill="#383A3C"/>
</g>
<defs>
<clipPath id="clip0_1829_11583">
<rect width="152" height="152" fill="white"/>
</clipPath>
</defs>
</svg>
