<svg width="152" height="152" viewBox="0 0 152 152" fill="none" xmlns="http://www.w3.org/2000/svg">
<path fill-rule="evenodd" clip-rule="evenodd" d="M134 76.5C134 108.809 107.809 135 75.5 135C59.7346 135 45.4258 128.764 34.9059 118.623L55.6168 97.4C56.1369 96.867 55.9131 95.9717 55.2047 95.7419C54.2384 95.4285 53.0637 95.0403 52.4451 94.8094C51.967 94.6309 51.6023 94.4552 51.2162 94.2691L51.2161 94.269C50.9209 94.1268 50.6132 93.9784 50.2326 93.8183C49.8742 93.6674 49.4625 93.7577 49.1854 94.0306L29.8453 113.081C21.8081 103.063 17 90.3428 17 76.5C17 44.1913 43.1913 18 75.5 18C89.2305 18 101.856 22.7303 111.836 30.6502L88.6335 54.5614C88.1622 55.0471 88.3001 55.8493 88.9115 56.1396C89.8214 56.5717 91.0196 57.1198 91.7203 57.3568C92.229 57.5289 92.554 57.7111 92.8982 57.904C93.1692 58.056 93.452 58.2145 93.8457 58.38C94.1932 58.5261 94.5904 58.4303 94.8594 58.1663L117.588 35.8689C127.749 46.3922 134 60.7161 134 76.5ZM140 76.5C140 112.122 111.122 141 75.5 141C39.8776 141 11 112.122 11 76.5C11 40.8776 39.8776 12 75.5 12C111.122 12 140 40.8776 140 76.5ZM86.443 54.8096C87.1222 55.0507 87.3031 55.9142 86.7936 56.4238L70.4202 72.7971C70.4027 72.8147 70.3788 72.8243 70.354 72.8243C68.8002 72.8243 67.5406 74.0839 67.5406 75.6377C67.5406 75.6625 67.531 75.6864 67.5134 75.7039L50.1784 93.039C49.8523 93.365 49.3472 93.4287 48.9588 93.1801C44.2613 90.1728 37.2711 84.0736 37.2706 74.599C37.2699 62.7975 50.9421 52.0923 70.6232 52.0923C76.3483 52.0923 81.7132 53.1309 86.443 54.8096ZM58.6348 96.5407C57.8378 96.4247 57.5335 95.4571 58.103 94.8876L75.3623 77.6283C75.898 77.0926 76.8801 77.3378 77.4668 77.8172C77.9516 78.2134 78.5709 78.451 79.2458 78.451C80.7996 78.451 82.0592 77.1914 82.0592 75.6377C82.0592 74.9628 81.8215 74.3434 81.4254 73.8586C80.946 73.272 80.7008 72.2898 81.2365 71.7541L93.8719 59.1187C94.1972 58.7934 94.7031 58.7309 95.092 58.9764C101.683 63.1362 105.729 68.4436 105.729 72.7235C105.729 79.9826 101.883 84.0566 100.258 85.7781L100.258 85.7782L100.258 85.7783C100.188 85.8529 100.122 85.923 100.06 85.9887C99.8257 86.2392 99.7627 86.5946 99.8845 86.9151C100.445 88.389 102.183 92.665 104.299 94.9316C105.8 96.5397 104.925 100.209 102.733 100.025C101.259 99.9008 99.8182 99.742 98.5402 99.5387C93.5684 98.7479 86.2946 96.5243 84.9189 96.0968C84.7668 96.0495 84.6075 96.0394 84.4504 96.0658C74.4948 97.7385 64.9746 97.4634 58.6348 96.5407ZM51.6003 78.451C53.154 78.451 54.4136 77.1914 54.4136 75.6377C54.4136 74.0839 53.154 72.8243 51.6003 72.8243C50.0465 72.8243 48.7869 74.0839 48.7869 75.6377C48.7869 77.1914 50.0465 78.451 51.6003 78.451ZM63.7905 75.6377C63.7905 77.1914 62.5309 78.451 60.9771 78.451C59.4234 78.451 58.1638 77.1914 58.1638 75.6377C58.1638 74.0839 59.4234 72.8243 60.9771 72.8243C62.5309 72.8243 63.7905 74.0839 63.7905 75.6377ZM88.4589 78.451C90.0127 78.451 91.2723 77.1914 91.2723 75.6377C91.2723 74.0839 90.0127 72.8243 88.4589 72.8243C86.9051 72.8243 85.6456 74.0839 85.6456 75.6377C85.6456 77.1914 86.9051 78.451 88.4589 78.451Z" fill="#383A3C"/>
</svg>
