<svg width="196" height="105" viewBox="0 0 196 105" fill="none" xmlns="http://www.w3.org/2000/svg">
<path fill-rule="evenodd" clip-rule="evenodd" d="M152.801 0C151.696 0 150.801 0.895432 150.801 2V18.4878C150.801 18.5145 150.801 18.5411 150.802 18.5676V71.7071H132.602V79.3901H150.802V79.3902H189.802V79.3901H195.002V42.9754C195.002 41.8709 194.107 40.9754 193.002 40.9754H189.802V9.68293C189.802 8.57836 188.907 7.68293 187.802 7.68293H156.001V2C156.001 0.895431 155.105 0 154.001 0H152.801ZM169.002 17.9267H182.002V35.8535H169.002V17.9267ZM187.201 14.0852C187.201 16.2068 186.619 17.9267 185.901 17.9267C185.183 17.9267 184.601 16.2068 184.601 14.0852C184.601 11.9636 185.183 10.2437 185.901 10.2437C186.619 10.2437 187.201 11.9636 187.201 14.0852ZM189.801 46.0976H190.401C191.505 46.0976 192.401 46.993 192.401 48.0976V71.7073H189.801V46.0976ZM126 11.6829H4V75.3902H126V11.6829ZM4 7.68293H0V11.6829V75.3902V79.3902H4H126H130V75.3902V64.0242H141C142.105 64.0242 143 63.1288 143 62.0242V14.8047C143 13.7001 142.105 12.8047 141 12.8047H130V9.68293C130 8.57836 129.105 7.68293 128 7.68293H4ZM133.88 20.4876C133.173 20.4876 132.6 21.0609 132.6 21.7681C132.6 22.4753 133.173 23.0486 133.88 23.0486H139.119C139.826 23.0486 140.4 22.4753 140.4 21.7681C140.4 21.0609 139.826 20.4876 139.119 20.4876H133.88ZM132.6 37.134C132.6 36.4268 133.173 35.8535 133.88 35.8535H139.119C139.826 35.8535 140.4 36.4268 140.4 37.134C140.4 37.8412 139.826 38.4145 139.119 38.4145H133.88C133.173 38.4145 132.6 37.8412 132.6 37.134ZM133.88 51.2193C133.173 51.2193 132.6 51.7926 132.6 52.4998C132.6 53.207 133.173 53.7803 133.88 53.7803H139.119C139.826 53.7803 140.4 53.207 140.4 52.4998C140.4 51.7926 139.826 51.2193 139.119 51.2193H133.88ZM132.6 26.8901C132.6 26.1829 133.173 25.6096 133.88 25.6096H139.119C139.826 25.6096 140.4 26.1829 140.4 26.8901C140.4 27.5973 139.826 28.1706 139.119 28.1706H133.88C133.173 28.1706 132.6 27.5973 132.6 26.8901ZM133.88 40.9754C133.173 40.9754 132.6 41.5487 132.6 42.2559C132.6 42.9631 133.173 43.5364 133.88 43.5364H139.119C139.826 43.5364 140.4 42.9631 140.4 42.2559C140.4 41.5487 139.826 40.9754 139.119 40.9754H133.88ZM132.6 57.6218C132.6 56.9146 133.173 56.3413 133.88 56.3413H139.119C139.826 56.3413 140.4 56.9146 140.4 57.6218C140.4 58.329 139.826 58.9023 139.119 58.9023H133.88C133.173 58.9023 132.6 58.329 132.6 57.6218ZM133.88 30.7315C133.173 30.7315 132.6 31.3048 132.6 32.012C132.6 32.7192 133.173 33.2925 133.88 33.2925H139.119C139.826 33.2925 140.4 32.7192 140.4 32.012C140.4 31.3048 139.826 30.7315 139.119 30.7315H133.88ZM132.6 47.3779C132.6 46.6707 133.173 46.0974 133.88 46.0974H139.119C139.826 46.0974 140.4 46.6707 140.4 47.3779C140.4 48.0851 139.826 48.6584 139.119 48.6584H133.88C133.173 48.6584 132.6 48.0851 132.6 47.3779ZM133.88 15.3657C133.173 15.3657 132.6 15.939 132.6 16.6462C132.6 17.3534 133.173 17.9267 133.88 17.9267H139.119C139.826 17.9267 140.4 17.3534 140.4 16.6462C140.4 15.939 139.826 15.3657 139.119 15.3657H133.88ZM83.7379 54.4706L80.6301 52.7023C81.1925 52.1317 81.8375 51.6463 82.5441 51.2617C83.0061 51.0052 83.3465 50.5793 83.4912 50.0767C83.6359 49.5741 83.5731 49.0356 83.3166 48.5783C83.0601 48.1211 82.6306 47.7822 82.1216 47.6354C81.6126 47.4886 81.0654 47.5458 80.599 47.7945C79.2497 48.5301 78.0541 49.5108 77.0753 50.6846L69.0215 46.0974L77.0735 41.5182C78.052 42.6923 79.2477 43.673 80.5972 44.4083C80.8285 44.5368 81.0833 44.6188 81.347 44.6498C81.6106 44.6807 81.8779 44.6599 82.1334 44.5885C82.3888 44.5172 82.6274 44.3967 82.8353 44.2341C83.0433 44.0714 83.2164 43.8698 83.3449 43.6409C83.4733 43.412 83.5544 43.1603 83.5836 42.9003C83.6127 42.6404 83.5893 42.3773 83.5147 42.1263C83.4401 41.8753 83.3157 41.6413 83.1488 41.4379C82.9819 41.2345 82.7758 41.0657 82.5423 40.9411C81.8358 40.5563 81.1908 40.0709 80.6283 39.5006L83.7361 37.7323C83.9738 37.6071 84.1835 37.4361 84.3528 37.2295C84.5221 37.0229 84.6475 36.7848 84.7215 36.5295C84.7956 36.2742 84.8167 36.0069 84.7838 35.7433C84.7508 35.4798 84.6644 35.2255 84.5297 34.9955C84.3949 34.7656 84.2146 34.5646 83.9995 34.4046C83.7844 34.2447 83.5388 34.1289 83.2773 34.0643C83.0158 33.9997 82.7439 33.9875 82.4775 34.0285C82.2112 34.0695 81.9559 34.1628 81.727 34.3029L78.6191 36.0703C78.3978 35.3049 78.2924 34.5115 78.3065 33.7159C78.3123 33.4553 78.2659 33.1961 78.1698 32.9533C78.0738 32.7104 77.93 32.4886 77.7468 32.3006C77.5635 32.1126 77.3444 31.962 77.102 31.8576C76.8595 31.7531 76.5985 31.6968 76.334 31.6919H76.2965C75.7696 31.6918 75.2637 31.8954 74.8876 32.2589C74.5116 32.6225 74.2954 33.1168 74.2856 33.6357C74.2572 35.1536 74.5209 36.663 75.0625 38.0843L67.0105 42.6662V33.5088C68.5319 33.2611 69.9918 32.7317 71.313 31.9485C71.7699 31.6774 72.0987 31.2386 72.2271 30.7286C72.3555 30.2187 72.2729 29.6794 71.9977 29.2295C71.7224 28.7795 71.2769 28.4556 70.7592 28.3291C70.2415 28.2027 69.6941 28.284 69.2372 28.5551C68.5447 28.9651 67.7943 29.2718 67.0105 29.4653V26.4699C67.0105 25.9446 66.7987 25.4408 66.4216 25.0693C66.0444 24.6978 65.5329 24.4891 64.9996 24.4891C64.4663 24.4891 63.9548 24.6978 63.5777 25.0693C63.2005 25.4408 62.9887 25.9446 62.9887 26.4699V29.4653C62.2049 29.2718 61.4546 28.9651 60.762 28.5551C60.3052 28.284 59.7577 28.2027 59.24 28.3291C58.7223 28.4556 58.2768 28.7795 58.0015 29.2295C57.7263 29.6794 57.6438 30.2187 57.7722 30.7286C57.9005 31.2386 58.2293 31.6774 58.6862 31.9485C60.0074 32.7317 61.4673 33.2611 62.9887 33.5088V42.6662L54.9367 38.0843C55.4792 36.6626 55.7434 35.1525 55.7155 33.6339C55.7057 33.115 55.4895 32.6206 55.1134 32.2571C54.7373 31.8936 54.2314 31.69 53.7045 31.6901H53.6652C53.4011 31.6949 53.1406 31.7509 52.8985 31.8549C52.6564 31.9589 52.4374 32.1089 52.2542 32.2962C52.0709 32.4836 51.9269 32.7047 51.8304 32.9469C51.7339 33.1891 51.6868 33.4476 51.6918 33.7078C51.7065 34.5046 51.6015 35.2992 51.3801 36.0658L48.2723 34.3029C48.0434 34.1684 47.7897 34.0801 47.5259 34.0431C47.2621 34.006 46.9934 34.021 46.7355 34.0871C46.4776 34.1532 46.2357 34.2692 46.0237 34.4282C45.8117 34.5872 45.6339 34.7862 45.5006 35.0135C45.3674 35.2408 45.2813 35.4919 45.2474 35.7523C45.2136 36.0127 45.2326 36.277 45.3034 36.5301C45.3742 36.7831 45.4953 37.0198 45.6597 37.2264C45.8242 37.4329 46.0287 37.6052 46.2613 37.7332L49.3691 39.5015C48.8066 40.0718 48.1616 40.5572 47.4551 40.942C47.2216 41.0666 47.0155 41.2354 46.8486 41.4388C46.6817 41.6422 46.5573 41.8762 46.4827 42.1272C46.4081 42.3782 46.3847 42.6413 46.4138 42.9012C46.443 43.1612 46.5241 43.4129 46.6525 43.6418C46.7809 43.8707 46.9541 44.0723 47.1621 44.235C47.37 44.3976 47.6086 44.5181 47.864 44.5894C48.1195 44.6608 48.3868 44.6816 48.6504 44.6507C48.9141 44.6197 49.1689 44.5377 49.4002 44.4092C50.7495 43.6736 51.9451 42.693 52.9239 41.5191L60.9777 46.0974L52.9258 50.6765C51.947 49.5027 50.7513 48.522 49.402 47.7864C49.1707 47.658 48.9159 47.5759 48.6523 47.545C48.3886 47.5141 48.1213 47.5349 47.8659 47.6062C47.6104 47.6776 47.3718 47.798 47.1639 47.9607C46.9559 48.1233 46.7828 48.3249 46.6543 48.5538C46.5259 48.7828 46.4448 49.0345 46.4156 49.2944C46.3865 49.5544 46.4099 49.8175 46.4845 50.0685C46.5591 50.3195 46.6835 50.5534 46.8504 50.7568C47.0173 50.9603 47.2234 51.1291 47.4569 51.2536C48.1634 51.6384 48.8084 52.1239 49.371 52.6942L46.2613 54.4706C46.0287 54.5986 45.8242 54.7709 45.6597 54.9774C45.4953 55.1839 45.3742 55.4206 45.3034 55.6737C45.2326 55.9267 45.2136 56.1911 45.2474 56.4515C45.2813 56.7118 45.3674 56.963 45.5006 57.1903C45.6339 57.4176 45.8117 57.6165 46.0237 57.7756C46.2357 57.9346 46.4776 58.0505 46.7355 58.1167C46.9934 58.1828 47.2621 58.1978 47.5259 58.1607C47.7897 58.1237 48.0434 58.0353 48.2723 57.9009L51.3801 56.1335C51.6014 56.8989 51.7068 57.6922 51.6927 58.4879C51.6834 59.0126 51.8859 59.5196 52.2557 59.8974C52.6256 60.2752 53.1325 60.4929 53.6652 60.5029H53.7027C54.2296 60.503 54.7355 60.2993 55.1116 59.9358C55.4876 59.5723 55.7038 59.0779 55.7136 58.559C55.742 57.0412 55.4783 55.5317 54.9367 54.1104L62.9887 49.5286V58.686C61.4673 58.9336 60.0074 59.4631 58.6862 60.2463C58.2293 60.5174 57.9005 60.9562 57.7722 61.4661C57.6438 61.976 57.7263 62.5153 58.0015 62.9653C58.2768 63.4153 58.7223 63.7392 59.24 63.8656C59.7577 63.9921 60.3052 63.9108 60.762 63.6397C61.4546 63.2297 62.2049 62.9229 62.9887 62.7294V65.7249C62.9887 66.2502 63.2005 66.754 63.5777 67.1255C63.9548 67.4969 64.4663 67.7056 64.9996 67.7056C65.5329 67.7056 66.0444 67.4969 66.4216 67.1255C66.7987 66.754 67.0105 66.2502 67.0105 65.7249V62.7294C67.7943 62.9229 68.5447 63.2297 69.2372 63.6397C69.6941 63.9108 70.2415 63.9921 70.7592 63.8656C71.2769 63.7391 71.7224 63.4153 71.9977 62.9653C72.2729 62.5153 72.3555 61.976 72.2271 61.4661C72.0987 60.9562 71.7699 60.5174 71.313 60.2463C69.9918 59.4631 68.5319 58.9336 67.0105 58.686V49.5286L75.0625 54.1104C74.52 55.5322 74.2558 57.0422 74.2837 58.5608C74.2936 59.0797 74.5098 59.5741 74.8858 59.9376C75.2619 60.3012 75.7678 60.5048 76.2947 60.5047H76.334C76.5981 60.4999 76.8586 60.4439 77.1007 60.3399C77.3429 60.2359 77.5618 60.0859 77.7451 59.8985C77.9283 59.7112 78.0723 59.4901 78.1688 59.2479C78.2653 59.0057 78.3124 58.7471 78.3074 58.487C78.2927 57.6902 78.3977 56.8956 78.6191 56.129L81.727 57.8964C81.9558 58.0411 82.2121 58.1386 82.4803 58.183C82.7485 58.2274 83.023 58.2177 83.2874 58.1546C83.5517 58.0915 83.8002 57.9762 84.018 57.8158C84.2358 57.6553 84.4182 57.453 84.5544 57.2211C84.6905 56.9892 84.7775 56.7325 84.81 56.4665C84.8425 56.2006 84.8199 55.9309 84.7436 55.6738C84.6673 55.4166 84.5388 55.1774 84.3659 54.9706C84.1931 54.7638 83.9794 54.5937 83.7379 54.4706ZM14.3016 105C20.7633 105 26.0016 99.8402 26.0016 93.4754C26.0016 87.1107 20.7633 81.951 14.3016 81.951C7.83983 81.951 2.60156 87.1107 2.60156 93.4754C2.60156 99.8402 7.83983 105 14.3016 105ZM14.3018 99.8779C17.8916 99.8779 20.8018 97.0115 20.8018 93.4755C20.8018 89.9395 17.8916 87.073 14.3018 87.073C10.7119 87.073 7.80176 89.9395 7.80176 93.4755C7.80176 97.0115 10.7119 99.8779 14.3018 99.8779ZM18.2004 93.4755C18.2004 95.5971 16.4543 97.3169 14.3004 97.3169C12.1465 97.3169 10.4004 95.5971 10.4004 93.4755C10.4004 91.3539 12.1465 89.634 14.3004 89.634C16.4543 89.634 18.2004 91.3539 18.2004 93.4755ZM52.0016 93.4754C52.0016 99.8402 46.7633 105 40.3016 105C33.8398 105 28.6016 99.8402 28.6016 93.4754C28.6016 87.1107 33.8398 81.951 40.3016 81.951C46.7633 81.951 52.0016 87.1107 52.0016 93.4754ZM46.8018 93.4755C46.8018 97.0115 43.8916 99.8779 40.3018 99.8779C36.7119 99.8779 33.8018 97.0115 33.8018 93.4755C33.8018 89.9395 36.7119 87.073 40.3018 87.073C43.8916 87.073 46.8018 89.9395 46.8018 93.4755ZM40.3004 97.3169C42.4543 97.3169 44.2004 95.5971 44.2004 93.4755C44.2004 91.3539 42.4543 89.634 40.3004 89.634C38.1465 89.634 36.4004 91.3539 36.4004 93.4755C36.4004 95.5971 38.1465 97.3169 40.3004 97.3169ZM113.098 105C119.56 105 124.798 99.8402 124.798 93.4754C124.798 87.1107 119.56 81.951 113.098 81.951C106.637 81.951 101.398 87.1107 101.398 93.4754C101.398 99.8402 106.637 105 113.098 105ZM113.099 99.8779C116.688 99.8779 119.599 97.0115 119.599 93.4755C119.599 89.9395 116.688 87.073 113.099 87.073C109.509 87.073 106.599 89.9395 106.599 93.4755C106.599 97.0115 109.509 99.8779 113.099 99.8779ZM116.999 93.4755C116.999 95.5971 115.253 97.3169 113.099 97.3169C110.945 97.3169 109.199 95.5971 109.199 93.4755C109.199 91.3539 110.945 89.634 113.099 89.634C115.253 89.634 116.999 91.3539 116.999 93.4755ZM182.002 93.4754C182.002 99.8402 176.763 105 170.302 105C163.84 105 158.602 99.8402 158.602 93.4754C158.602 87.1107 163.84 81.951 170.302 81.951C176.763 81.951 182.002 87.1107 182.002 93.4754ZM176.802 93.4755C176.802 97.0115 173.892 99.8779 170.302 99.8779C166.712 99.8779 163.802 97.0115 163.802 93.4755C163.802 89.9395 166.712 87.073 170.302 87.073C173.892 87.073 176.802 89.9395 176.802 93.4755ZM170.3 97.3169C172.454 97.3169 174.2 95.5971 174.2 93.4755C174.2 91.3539 172.454 89.634 170.3 89.634C168.146 89.634 166.4 91.3539 166.4 93.4755C166.4 95.5971 168.146 97.3169 170.3 97.3169Z" fill="#383A3C"/>
</svg>
