<svg width="152" height="152" viewBox="0 0 152 152" fill="none" xmlns="http://www.w3.org/2000/svg">
<path fill-rule="evenodd" clip-rule="evenodd" d="M54.7928 46.2288L54.7929 46.2288C57.5375 45.926 59.6704 43.6043 59.6704 40.7803C59.6704 37.7528 57.2162 35.2985 54.1887 35.2985C53.8188 35.2985 53.4544 35.3356 53.1002 35.4072C50.5945 35.9136 48.707 38.1231 48.707 40.7803C48.707 43.8078 51.1612 46.262 54.1887 46.262C54.3919 46.262 54.5935 46.2508 54.7928 46.2288ZM32.0669 63.155C29.8354 62.0393 25.4872 59.5188 21.7344 55.5649C18.0028 51.6333 15.0004 46.4453 15 39.8719C14.9997 33.5318 18.677 27.1379 25.6553 22.2093C32.6165 17.2929 42.6856 14 54.7854 14C66.8005 14 77.4942 17.7524 85.1329 22.7268C88.9532 25.2147 91.9377 27.9613 93.9377 30.6141C95.967 33.3058 96.8193 35.6751 96.8193 37.4661C96.8193 45.5756 92.5856 50.0713 90.6202 52.1535C89.3494 53.4998 89.0045 55.4212 89.6595 57.1053C90.0977 58.2318 90.8804 60.1311 91.9008 62.1265C92.8992 64.079 94.224 66.322 95.7924 68.0022C95.7919 68.0017 95.792 68.0018 95.7925 68.0025C95.799 68.0109 95.8766 68.1122 95.9203 68.3739C95.967 68.6535 95.9496 68.9844 95.8675 69.2791C95.8473 69.3514 95.826 69.4123 95.8055 69.463C94.1118 69.3136 92.493 69.129 91.069 68.9025C85.3141 67.9871 76.9053 65.4743 74.4036 64.7052C73.4983 64.4269 72.5481 64.3667 71.6261 64.5179C62.392 66.0322 53.4667 66.2116 46.2877 65.7233C42.6997 65.4792 39.5788 65.0704 37.0993 64.5895C34.5551 64.0959 32.883 63.5631 32.0669 63.155ZM36.8181 46.262C39.8456 46.262 42.2999 43.8077 42.2999 40.7803C42.2999 37.7528 39.8456 35.2985 36.8181 35.2985C33.7906 35.2985 31.3364 37.7528 31.3364 40.7803C31.3364 43.8078 33.7906 46.262 36.8181 46.262ZM71.5641 46.262C74.5916 46.262 77.0459 43.8077 77.0459 40.7803C77.0459 37.7528 74.5916 35.2985 71.5641 35.2985C68.5367 35.2985 66.0824 37.7528 66.0824 40.7803C66.0824 43.8078 68.5367 46.262 71.5641 46.262ZM30.7253 65.8383C25.9133 63.4323 12.0008 55.0113 12 39.8721C11.9992 24.7329 29.5381 11 54.7854 11C80.0326 11 99.8193 26.7457 99.8193 37.4661C99.8193 46.7783 94.8862 52.0045 92.8018 54.2128C92.3413 54.7007 92.2123 55.3925 92.4555 56.0178C93.2895 58.1621 95.4217 63.2086 97.9854 65.9551C99.9111 68.018 98.7882 72.7255 95.9761 72.4888C94.0862 72.3297 92.2372 72.126 90.5978 71.8652C84.6032 70.9117 75.9998 68.3344 73.522 67.5727C73.0652 67.4323 72.5832 67.401 72.1116 67.4784C53.1348 70.5904 35.4773 68.2143 30.7253 65.8383ZM36.8181 43.262C38.1887 43.262 39.2999 42.1509 39.2999 40.7803C39.2999 39.4096 38.1887 38.2985 36.8181 38.2985C35.4475 38.2985 34.3364 39.4096 34.3364 40.7803C34.3364 42.1509 35.4475 43.262 36.8181 43.262ZM56.6704 40.7803C56.6704 42.0579 55.705 43.11 54.4639 43.2469C54.3735 43.2569 54.2817 43.262 54.1887 43.262C52.8181 43.262 51.707 42.1509 51.707 40.7803C51.707 39.5789 52.5606 38.5769 53.6944 38.3477C53.8542 38.3155 54.0195 38.2985 54.1887 38.2985C55.5593 38.2985 56.6704 39.4096 56.6704 40.7803ZM71.5641 43.262C72.9348 43.262 74.0459 42.1509 74.0459 40.7803C74.0459 39.4096 72.9348 38.2985 71.5641 38.2985C70.1935 38.2985 69.0824 39.4096 69.0824 40.7803C69.0824 42.1509 70.1935 43.262 71.5641 43.262ZM118.933 132.643C121.165 131.528 125.513 129.007 129.266 125.053C132.997 121.122 136 115.934 136 109.36C136 103.02 132.323 96.6262 125.345 91.6976C118.383 86.7811 108.314 83.4883 96.2146 83.4883C84.1995 83.4883 73.5058 87.2407 65.8671 92.2151C62.0468 94.7029 59.0623 97.4496 57.0623 100.102C55.033 102.794 54.1807 105.163 54.1807 106.954C54.1807 115.064 58.4144 119.56 60.3798 121.642C61.6506 122.988 61.9955 124.909 61.3405 126.594C60.9023 127.72 60.1196 129.619 59.0992 131.615C58.1008 133.567 56.776 135.81 55.2076 137.49C55.2081 137.49 55.208 137.49 55.2075 137.491C55.201 137.499 55.1234 137.6 55.0797 137.862C55.033 138.142 55.0504 138.473 55.1325 138.767C55.1527 138.84 55.174 138.901 55.1945 138.951C56.8882 138.802 58.507 138.617 59.931 138.391C65.6859 137.475 74.0947 134.963 76.5964 134.193C77.5017 133.915 78.4519 133.855 79.3739 134.006C88.608 135.52 97.5333 135.7 104.712 135.212C108.3 134.967 111.421 134.559 113.901 134.078C116.445 133.584 118.117 133.051 118.933 132.643ZM114.182 115.752C111.154 115.752 108.7 113.297 108.7 110.27C108.7 107.242 111.154 104.788 114.182 104.788C117.209 104.788 119.664 107.242 119.664 110.27C119.664 113.297 117.209 115.752 114.182 115.752ZM96.2081 115.719C93.463 115.416 91.3296 113.094 91.3296 110.27C91.3296 107.242 93.7838 104.788 96.8113 104.788C97.1808 104.788 97.5446 104.825 97.8984 104.897C100.405 105.402 102.293 107.612 102.293 110.27C102.293 113.297 99.8388 115.752 96.8113 115.752C96.6085 115.752 96.4072 115.74 96.2081 115.719ZM79.4359 115.752C76.4084 115.752 73.9541 113.297 73.9541 110.27C73.9541 107.242 76.4084 104.788 79.4359 104.788C82.4633 104.788 84.9176 107.242 84.9176 110.27C84.9176 113.297 82.4633 115.752 79.4359 115.752ZM120.275 135.327C125.087 132.921 138.999 124.5 139 109.36C139.001 94.2212 121.462 80.4883 96.2146 80.4883C70.9674 80.4883 51.1807 96.234 51.1807 106.954C51.1807 116.267 56.1138 121.493 58.1982 123.701C58.6587 124.189 58.7877 124.881 58.5445 125.506C57.7105 127.65 55.5783 132.697 53.0146 135.443C51.0889 137.506 52.2118 142.214 55.0239 141.977C56.9138 141.818 58.7628 141.614 60.4022 141.354C66.3968 140.4 75.0002 137.823 77.478 137.061C77.9348 136.921 78.4168 136.889 78.8884 136.967C97.8652 140.079 115.523 137.703 120.275 135.327ZM114.182 112.752C112.811 112.752 111.7 111.64 111.7 110.27C111.7 108.899 112.811 107.788 114.182 107.788C115.553 107.788 116.664 108.899 116.664 110.27C116.664 111.64 115.553 112.752 114.182 112.752ZM94.3296 110.27C94.3296 111.548 95.2952 112.6 96.5366 112.737C96.6268 112.747 96.7184 112.752 96.8113 112.752C98.1819 112.752 99.293 111.64 99.293 110.27C99.293 109.068 98.4391 108.066 97.3049 107.837C97.1454 107.805 96.9803 107.788 96.8113 107.788C95.4407 107.788 94.3296 108.899 94.3296 110.27ZM79.4359 112.752C78.0652 112.752 76.9541 111.64 76.9541 110.27C76.9541 108.899 78.0652 107.788 79.4359 107.788C80.8065 107.788 81.9176 108.899 81.9176 110.27C81.9176 111.64 80.8065 112.752 79.4359 112.752Z" fill="#383A3C"/>
</svg>
