<svg width="152" height="152" viewBox="0 0 152 152" fill="none" xmlns="http://www.w3.org/2000/svg">
<g clip-path="url(#clip0_1119_1397)">
<rect width="152" height="152" fill="#383A3C"/>
<path fill-rule="evenodd" clip-rule="evenodd" d="M142.238 76.2374C142.238 112.688 112.689 142.237 76.2383 142.237C39.7875 142.237 10.2383 112.688 10.2383 76.2373C10.2383 39.7866 39.7875 10.2374 76.2383 10.2374C112.689 10.2374 142.238 39.7866 142.238 76.2374ZM149.238 76.2374C149.238 116.554 116.555 149.237 76.2383 149.237C35.9215 149.237 3.2383 116.554 3.2383 76.2373C3.23829 35.9206 35.9215 3.23736 76.2383 3.23736C116.555 3.23736 149.238 35.9206 149.238 76.2374ZM104.833 51.9621C106.869 49.9258 110.171 49.9258 112.207 51.9621C114.243 53.9984 114.243 57.2999 112.207 59.3362L71.6493 99.8939C71.3308 100.212 70.9813 100.481 70.6105 100.7C70.5098 100.792 70.4038 100.878 70.2929 100.958L69.7305 101.365C67.1415 103.239 63.5745 102.956 61.3145 100.696L43.4284 82.8094C41.3921 80.7731 41.3921 77.4716 43.4284 75.4353C45.4647 73.399 48.7662 73.399 50.8025 75.4353L66.0811 90.7139L104.833 51.9621Z" fill="#FCFEFF"/>
</g>
<defs>
<clipPath id="clip0_1119_1397">
<rect width="152" height="152" fill="white"/>
</clipPath>
</defs>
</svg>
