<svg width="152" height="152" viewBox="0 0 152 152" fill="none" xmlns="http://www.w3.org/2000/svg">
<rect width="152" height="152" fill="#383A3C"/>
<rect x="51.0771" y="46.8867" width="9.59541" height="9.52941" rx="1" transform="rotate(90 51.0771 46.8867)" fill="#FCFEFF"/>
<rect x="62.8057" y="46.8867" width="9.59541" height="9.52941" rx="1" transform="rotate(90 62.8057 46.8867)" fill="#FCFEFF"/>
<rect x="74.5342" y="46.8867" width="9.59541" height="9.52941" rx="1" transform="rotate(90 74.5342 46.8867)" fill="#FCFEFF"/>
<rect x="86.2627" y="46.8867" width="9.59541" height="9.52941" rx="1" transform="rotate(90 86.2627 46.8867)" fill="#FCFEFF"/>
<rect x="97.9912" y="46.8867" width="9.59541" height="9.52941" rx="1" transform="rotate(90 97.9912 46.8867)" fill="#FCFEFF"/>
<rect x="109.719" y="46.8867" width="9.59541" height="9.52941" rx="1" transform="rotate(90 109.719 46.8867)" fill="#FCFEFF"/>
<rect x="51.0771" y="59.9709" width="9.59541" height="9.52941" rx="1" transform="rotate(90 51.0771 59.9709)" fill="#FCFEFF"/>
<rect x="62.8057" y="59.9709" width="9.59541" height="9.52941" rx="1" transform="rotate(90 62.8057 59.9709)" fill="#FCFEFF"/>
<rect x="74.5342" y="59.9709" width="9.59541" height="9.52941" rx="1" transform="rotate(90 74.5342 59.9709)" fill="#FCFEFF"/>
<rect x="86.2627" y="59.9709" width="9.59541" height="9.52941" rx="1" transform="rotate(90 86.2627 59.9709)" fill="#FCFEFF"/>
<rect x="97.9912" y="59.9709" width="9.59541" height="9.52941" rx="1" transform="rotate(90 97.9912 59.9709)" fill="#FCFEFF"/>
<rect x="109.719" y="59.9709" width="9.59541" height="9.52941" rx="1" transform="rotate(90 109.719 59.9709)" fill="#FCFEFF"/>
<rect x="51.0771" y="73.0552" width="9.59541" height="9.52941" rx="1" transform="rotate(90 51.0771 73.0552)" fill="#FCFEFF"/>
<rect x="62.8057" y="73.0552" width="9.59541" height="9.52941" rx="1" transform="rotate(90 62.8057 73.0552)" fill="#FCFEFF"/>
<rect x="74.5342" y="73.0552" width="9.59541" height="9.52941" rx="1" transform="rotate(90 74.5342 73.0552)" fill="#FCFEFF"/>
<rect x="86.2627" y="73.0552" width="9.59541" height="9.52941" rx="1" transform="rotate(90 86.2627 73.0552)" fill="#FCFEFF"/>
<rect x="97.9912" y="73.0552" width="9.59541" height="9.52941" rx="1" transform="rotate(90 97.9912 73.0552)" fill="#FCFEFF"/>
<rect x="109.719" y="73.0552" width="9.59541" height="9.52941" rx="1" transform="rotate(90 109.719 73.0552)" fill="#FCFEFF"/>
<rect x="51.0771" y="86.1396" width="9.59541" height="9.52941" rx="1" transform="rotate(90 51.0771 86.1396)" fill="#FCFEFF"/>
<rect x="62.8057" y="86.1396" width="9.59541" height="9.52941" rx="1" transform="rotate(90 62.8057 86.1396)" fill="#FCFEFF"/>
<rect x="74.5342" y="86.1396" width="9.59541" height="9.52941" rx="1" transform="rotate(90 74.5342 86.1396)" fill="#FCFEFF"/>
<rect x="86.2627" y="86.1396" width="9.59541" height="9.52941" rx="1" transform="rotate(90 86.2627 86.1396)" fill="#FCFEFF"/>
<rect x="97.9912" y="86.1396" width="9.59541" height="9.52941" rx="1" transform="rotate(90 97.9912 86.1396)" fill="#FCFEFF"/>
<rect x="109.719" y="86.1396" width="9.59541" height="9.52941" rx="1" transform="rotate(90 109.719 86.1396)" fill="#FCFEFF"/>
<rect x="22" y="145.021" width="108" height="6.97847" rx="3.48923" fill="#FCFEFF"/>
<rect x="22" y="32.0581" width="108" height="6.97848" rx="3.48924" fill="#FCFEFF"/>
<rect x="40.0815" y="110.782" width="70.8597" height="6.97848" rx="3.48924" fill="#FCFEFF"/>
<rect width="27.2597" height="27.3665" transform="translate(73.0679 117.761) rotate(90)" fill="#FCFEFF"/>
<rect x="103" y="17.8823" width="20.1177" height="54" rx="2" transform="rotate(90 103 17.8823)" fill="#FCFEFF"/>
<g clip-path="url(#clip0_1130_1455)">
<rect x="91.75" y="4.4707" width="17.8824" height="31.5" rx="2" transform="rotate(90 91.75 4.4707)" fill="#FCFEFF"/>
<path fill-rule="evenodd" clip-rule="evenodd" d="M79.9569 6.70605L82.75 6.70605L82.75 19.6554L79.9569 19.6554L79.9569 14.7994L72.0433 14.7994L72.0433 19.6554L69.2502 19.6554L69.2502 6.70605L72.0433 6.70605L72.0433 12.0245L79.9569 12.0245L79.9569 6.70605Z" fill="#383A3C"/>
</g>
<rect width="27.2597" height="27.8552" transform="translate(105.81 117.761) rotate(90)" fill="#FCFEFF"/>
<rect x="125.113" y="35.5464" width="112.964" height="7.81899" rx="3.9095" transform="rotate(90 125.113 35.5464)" fill="#FCFEFF"/>
<rect x="34.2173" y="35.5464" width="112.964" height="7.819" rx="3.9095" transform="rotate(90 34.2173 35.5464)" fill="#FCFEFF"/>
<defs>
<clipPath id="clip0_1130_1455">
<rect x="91.75" y="4.4707" width="17.8824" height="31.5" rx="2" transform="rotate(90 91.75 4.4707)" fill="white"/>
</clipPath>
</defs>
</svg>
