<svg width="152" height="152" viewBox="0 0 152 152" fill="none" xmlns="http://www.w3.org/2000/svg">
<rect width="152" height="152" fill="#383A3C"/>
<g clip-path="url(#clip0_1131_1540)">
<path d="M76 0L152 32.5714V43.4286H141.867C141.867 44.8988 141.326 46.1711 140.244 47.2455C139.162 48.3199 137.882 48.8571 136.404 48.8571H15.5958C14.1181 48.8571 12.8382 48.3199 11.7562 47.2455C10.6743 46.1711 10.1333 44.8988 10.1333 43.4286H0V32.5714L76 0ZM20.2667 54.2857H40.5333V119.429H50.6667V54.2857H70.9333V119.429H81.0667V54.2857H101.333V119.429H111.467V54.2857H131.733V119.429H136.404C137.882 119.429 139.162 119.966 140.244 121.04C141.326 122.115 141.867 123.387 141.867 124.857V130.286H10.1333V124.857C10.1333 123.387 10.6743 122.115 11.7562 121.04C12.8382 119.966 14.1181 119.429 15.5958 119.429H20.2667V54.2857ZM146.537 135.714C148.015 135.714 149.295 136.251 150.377 137.326C151.459 138.4 152 139.673 152 141.143V152H0V141.143C0 139.673 0.540972 138.4 1.62292 137.326C2.70486 136.251 3.98472 135.714 5.4625 135.714H146.537Z" fill="#FCFEFF"/>
</g>
<defs>
<clipPath id="clip0_1131_1540">
<rect width="152" height="152" fill="white"/>
</clipPath>
</defs>
</svg>
