<svg width="156" height="152" viewBox="0 0 156 152" fill="none" xmlns="http://www.w3.org/2000/svg">
<path fill-rule="evenodd" clip-rule="evenodd" d="M88.2722 75.9999C81.38 75.9999 74.7157 72.9225 69.4995 67.3377C64.4275 61.8902 61.33 54.6259 60.7836 46.8888C60.2003 38.6355 62.7179 31.046 67.8703 25.5148C73.0228 19.9835 80.2268 17 88.2722 17C96.2607 17 103.485 20.0372 108.621 25.555C113.806 31.1265 116.331 38.7026 115.747 46.8855C115.188 54.6326 112.093 61.8936 107.032 67.3343C101.829 72.9225 95.1679 75.9999 88.2722 75.9999ZM132.465 135H44.0826C42.6616 135.007 41.2578 134.689 39.9793 134.069C38.7007 133.449 37.5814 132.544 36.7076 131.423C35.7807 130.208 35.1406 128.799 34.8353 127.302C34.5299 125.805 34.5672 124.258 34.9443 122.777C37.7669 111.443 44.7598 102.044 55.1652 95.5973C64.4007 89.8783 76.1571 86.7272 88.2722 86.7272C100.625 86.7272 112.073 89.7442 121.362 95.4598C131.791 101.873 138.794 111.326 141.603 122.798C141.976 124.279 142.009 125.826 141.7 127.323C141.392 128.819 140.749 130.226 139.82 131.44C138.947 132.555 137.83 133.456 136.556 134.073C135.281 134.69 133.882 135.007 132.465 135Z" fill="#383A3C"/>
<mask id="path-2-inside-1_1829_12063" fill="white">
<path fill-rule="evenodd" clip-rule="evenodd" d="M12.7935 61.5494C9.50584 63.1933 0.000562624 68.9467 3.46826e-06 79.2901C-0.000552911 89.6335 11.9824 99.0161 29.2319 99.0161C46.4813 99.0161 60 88.2583 60 80.9339C60 74.5717 56.6296 71.001 55.2055 69.4922C54.8908 69.1589 54.8027 68.6863 54.9689 68.259C55.5387 66.794 56.9955 63.3461 58.7471 61.4697C60.0627 60.0602 59.2955 56.844 57.3743 57.0057C56.083 57.1144 54.8198 57.2536 53.6996 57.4317C49.7669 58.0573 44.1907 59.7057 42.2546 60.2966C41.7975 60.4361 41.3139 60.4679 40.8421 60.392C27.9633 58.3217 16.0212 59.9356 12.7935 61.5494ZM16.9564 76.9732C17.8928 76.9732 18.6519 77.7323 18.6519 78.6687C18.6519 79.6052 17.8928 80.3643 16.9564 80.3643C16.0199 80.3643 15.2608 79.6052 15.2608 78.6687C15.2608 77.7323 16.0199 76.9732 16.9564 76.9732ZM30.5192 78.6687C30.5192 77.796 29.8598 77.0772 29.0121 76.9835C28.9502 76.9767 28.8873 76.9732 28.8237 76.9732C27.8872 76.9732 27.1281 77.7323 27.1281 78.6687C27.1281 79.49 27.7119 80.1748 28.4871 80.3309C28.5959 80.3528 28.7084 80.3643 28.8237 80.3643C29.7601 80.3643 30.5192 79.6052 30.5192 78.6687ZM40.6959 76.9732C41.6323 76.9732 42.3915 77.7323 42.3915 78.6687C42.3915 79.6052 41.6323 80.3643 40.6959 80.3643C39.7595 80.3643 39.0003 79.6052 39.0003 78.6687C39.0003 77.7323 39.7595 76.9732 40.6959 76.9732Z"/>
</mask>
<path d="M3.46826e-06 79.2901L-3 79.2899L-3 79.2899L3.46826e-06 79.2901ZM12.7935 61.5494L11.4519 58.8662L11.4519 58.8662L12.7935 61.5494ZM53.6996 57.4317L54.1709 60.3945L53.6996 57.4317ZM29.0121 76.9835L28.6824 79.9654L28.6824 79.9654L29.0121 76.9835ZM28.4871 80.3309L27.8949 83.2719L27.8949 83.2719L28.4871 80.3309ZM42.2546 60.2966L41.3789 57.4273L42.2546 60.2966ZM40.8421 60.392L41.3182 57.43L40.8421 60.392ZM57.3743 57.0057L57.1226 54.0163L57.3743 57.0057ZM55.2055 69.4922L53.0239 71.5515L53.0239 71.5515L55.2055 69.4922ZM54.9689 68.259L52.1729 67.1715L54.9689 68.259ZM-3 79.2899C-2.99966 73.122 -0.147344 68.3957 2.98814 65.0922C6.10241 61.811 9.63351 59.7753 11.4519 58.8662L14.1352 64.2327C12.6658 64.9674 9.80046 66.6304 7.34004 69.2227C4.90083 71.7926 3.00023 75.1148 3 79.2903L-3 79.2899ZM29.2319 102.016C20.0832 102.016 12.1477 99.5301 6.4165 95.4823C0.702431 91.4467 -3.00034 85.691 -3 79.2899L3 79.2903C2.99979 83.2325 5.28822 87.3399 9.87786 90.5814C14.4504 93.8108 21.131 96.0161 29.2319 96.0161L29.2319 102.016ZM63 80.9339C63 83.6541 61.7707 86.3247 60.0137 88.6553C58.2272 91.0248 55.7205 93.2827 52.7216 95.2356C46.7219 99.1427 38.465 102.016 29.2319 102.016L29.2319 96.0161C37.2482 96.0161 44.3753 93.5107 49.4474 90.2077C51.9843 88.5557 53.9353 86.7508 55.2227 85.0432C56.5394 83.2967 57 81.8759 57 80.9339L63 80.9339ZM57.3871 67.433C58.9302 69.0678 63 73.369 63 80.9339L57 80.9339C57 75.7743 54.329 72.9342 53.0239 71.5515L57.3871 67.433ZM60.9401 63.5168C60.3508 64.1481 59.6995 65.1844 59.0858 66.3845C58.4941 67.5418 58.0286 68.6685 57.7648 69.3466L52.1729 67.1715C52.479 66.3846 53.0268 65.0548 53.7438 63.6528C54.4388 62.2935 55.3917 60.6677 56.554 59.4226L60.9401 63.5168ZM53.2284 54.469C54.4461 54.2753 55.7879 54.1286 57.1226 54.0163L57.6259 59.9951C56.3781 60.1002 55.1935 60.2318 54.1709 60.3945L53.2284 54.469ZM41.3789 57.4273C43.2952 56.8424 49.0609 55.1319 53.2284 54.469L54.1709 60.3945C50.4729 60.9827 45.0861 62.5691 43.1303 63.166L41.3789 57.4273ZM11.4519 58.8662C12.6292 58.2775 14.3019 57.8128 16.1528 57.452C18.0678 57.0788 20.3901 56.7766 22.9912 56.5963C28.1908 56.236 34.6272 56.3544 41.3182 57.43L40.3659 63.354C34.1782 62.3593 28.2042 62.2495 23.406 62.582C21.0084 62.7481 18.935 63.0227 17.3006 63.3412C15.6022 63.6722 14.5717 64.0144 14.1351 64.2327L11.4519 58.8662ZM15.6519 78.6687C15.6519 79.3892 16.2359 79.9732 16.9564 79.9732L16.9564 73.9732C19.5496 73.9732 21.6519 76.0754 21.6519 78.6687L15.6519 78.6687ZM16.9564 77.3643C16.2359 77.3643 15.6519 77.9483 15.6519 78.6687L21.6519 78.6687C21.6519 81.262 19.5496 83.3643 16.9564 83.3643L16.9564 77.3643ZM18.2608 78.6687C18.2608 77.9483 17.6768 77.3643 16.9564 77.3643L16.9564 83.3643C14.3631 83.3643 12.2608 81.262 12.2608 78.6687L18.2608 78.6687ZM16.9564 79.9732C17.6768 79.9732 18.2608 79.3892 18.2608 78.6687L12.2608 78.6687C12.2608 76.0754 14.3631 73.9732 16.9564 73.9732L16.9564 79.9732ZM29.3417 74.0017C31.6926 74.2616 33.5192 76.2498 33.5192 78.6687L27.5192 78.6687C27.5192 79.3422 28.027 79.8929 28.6824 79.9654L29.3417 74.0017ZM28.8237 73.9732C28.9977 73.9732 29.1706 73.9828 29.3417 74.0017L28.6824 79.9654C28.7298 79.9706 28.777 79.9732 28.8237 79.9732L28.8237 73.9732ZM24.1281 78.6687C24.1281 76.0754 26.2304 73.9732 28.8237 73.9732L28.8237 79.9732C29.5441 79.9732 30.1281 79.3892 30.1281 78.6687L24.1281 78.6687ZM27.8949 83.2719C25.7468 82.8393 24.1281 80.9464 24.1281 78.6687L30.1281 78.6687C30.1281 78.0335 29.677 77.5103 29.0793 77.39L27.8949 83.2719ZM28.8237 83.3643C28.5084 83.3643 28.1976 83.3328 27.8949 83.2719L29.0793 77.39C28.9942 77.3728 28.9084 77.3643 28.8237 77.3643L28.8237 83.3643ZM33.5192 78.6687C33.5192 81.262 31.4169 83.3643 28.8237 83.3643L28.8237 77.3643C28.1032 77.3643 27.5192 77.9483 27.5192 78.6687L33.5192 78.6687ZM39.3915 78.6687C39.3915 79.3892 39.9755 79.9732 40.6959 79.9732L40.6959 73.9732C43.2892 73.9732 45.3915 76.0754 45.3915 78.6687L39.3915 78.6687ZM40.6959 77.3643C39.9755 77.3643 39.3915 77.9483 39.3915 78.6687L45.3915 78.6687C45.3915 81.262 43.2892 83.3643 40.6959 83.3643L40.6959 77.3643ZM42.0003 78.6687C42.0003 77.9483 41.4163 77.3643 40.6959 77.3643L40.6959 83.3643C38.1026 83.3643 36.0003 81.262 36.0003 78.6687L42.0003 78.6687ZM40.6959 79.9732C41.4163 79.9732 42.0003 79.3892 42.0003 78.6687L36.0003 78.6687C36.0003 76.0754 38.1026 73.9732 40.6959 73.9732L40.6959 79.9732ZM43.1303 63.166C42.2297 63.4408 41.2835 63.5015 40.3659 63.354L41.3182 57.43C41.3443 57.4342 41.3652 57.4314 41.3789 57.4273L43.1303 63.166ZM56.554 59.4226C56.3955 59.5924 56.3901 59.7126 56.3988 59.6604C56.407 59.6114 56.4047 59.5258 56.3846 59.4537C56.3605 59.3671 56.362 59.4659 56.5348 59.6276C56.631 59.7175 56.7826 59.8268 56.9932 59.9052C57.2102 59.9858 57.4314 60.0115 57.6259 59.9951L57.1226 54.0163C60.1993 53.7573 61.7285 56.2788 62.1644 57.8433C62.6154 59.4619 62.5277 61.8159 60.9401 63.5168L56.554 59.4226ZM53.0239 71.5515C51.8989 70.3597 51.5949 68.6576 52.1729 67.1715L57.7648 69.3466C58.0105 68.7149 57.8827 67.9581 57.3871 67.433L53.0239 71.5515Z" fill="#383A3C" mask="url(#path-2-inside-1_1829_12063)"/>
</svg>
