<svg width="152" height="152" viewBox="0 0 152 152" fill="none" xmlns="http://www.w3.org/2000/svg">
<path fill-rule="evenodd" clip-rule="evenodd" d="M70.0135 2.17828C73.5653 -0.457659 78.4268 -0.447114 81.9672 2.2042L141.448 46.7484C146.587 50.5969 143.865 58.7719 137.445 58.7719C136.009 58.7719 134.611 58.309 133.459 57.4518L81.9559 19.1355C78.4193 16.5044 73.5769 16.4994 70.0348 19.1231L19.0484 56.8899C17.8806 57.755 16.4656 58.222 15.0122 58.222C8.4782 58.222 5.7241 49.8896 10.9711 45.9956L70.0135 2.17828ZM46.2217 93.4651C46.2217 91.5331 46.9416 89.6802 48.2228 88.3141C49.5041 86.9479 51.2419 86.1804 53.0539 86.1804C54.8659 86.1804 56.6037 86.9479 57.885 88.3141C59.1662 89.6802 59.886 91.5331 59.886 93.4651C59.886 95.3972 59.1662 97.2501 57.885 98.6162C56.6037 99.9824 54.8659 100.75 53.0539 100.75C51.2419 100.75 49.5041 99.9824 48.2228 98.6162C46.9416 97.2501 46.2217 95.3972 46.2217 93.4651ZM53.0539 89.0943C51.9667 89.0943 50.924 89.5548 50.1553 90.3745C49.3865 91.1942 48.9546 92.3059 48.9546 93.4651C48.9546 94.6244 49.3865 95.7361 50.1553 96.5558C50.924 97.3755 51.9667 97.836 53.0539 97.836C54.1411 97.836 55.1838 97.3755 55.9525 96.5558C56.7213 95.7361 57.1532 94.6244 57.1532 93.4651C57.1532 92.3059 56.7213 91.1942 55.9525 90.3745C55.1838 89.5548 54.1411 89.0943 53.0539 89.0943ZM47.1303 108.704L46.8953 110.413C46.6698 112.053 46.2353 114.209 45.7133 116.512L45.287 118.396L43.7087 117.437C43.3419 117.216 43.0057 116.942 42.7099 116.621C41.8559 115.69 41.4227 114.435 41.4336 113.148C41.4384 111.842 41.9185 110.588 42.7727 109.651C43.2278 109.158 43.8303 108.973 44.2211 108.885C44.6584 108.788 45.1203 108.755 45.5097 108.745L47.1303 108.704ZM46.8694 102.206C43.6418 102.206 40.8653 103.417 38.8867 105.557L38.8853 105.556C37.0348 107.57 35.9902 110.272 35.9721 113.091C35.9488 115.791 36.8575 118.575 38.8101 120.701C39.5588 121.514 40.4246 122.194 41.3749 122.716C40.5223 126.03 39.6929 129.056 39.205 130.809C39.0939 131.206 39.0639 131.624 39.1169 132.035C39.1699 132.446 39.3048 132.839 39.5124 133.19C39.72 133.54 39.9956 133.839 40.3207 134.067C40.6457 134.294 41.0126 134.445 41.3968 134.508C49.7156 135.892 55.0379 135.846 63.3403 134.5C63.7238 134.438 64.0906 134.29 64.4161 134.065C64.7416 133.84 65.0182 133.543 65.2276 133.195C65.4369 132.847 65.574 132.455 65.6299 132.046C65.6857 131.637 65.6588 131.22 65.5512 130.822C64.5031 126.95 61.9042 117.161 60.852 111.607C62.4576 112.188 63.3007 113.034 63.7653 113.661C64.125 114.145 64.4003 114.695 64.5783 115.283L64.6685 115.586L64.6985 115.683C64.9103 116.41 65.215 117.45 65.8149 118.258C66.0266 118.546 66.276 118.801 66.5555 119.014C66.2235 119.645 66.0349 120.372 66.0349 121.147V121.646C66.0349 122.033 66.1789 122.403 66.4351 122.677C66.6914 122.95 67.0389 123.103 67.4013 123.103C67.7637 123.103 68.1113 122.95 68.3675 122.677C68.6238 122.403 68.7678 122.033 68.7678 121.646V121.147C68.7678 120.76 68.9117 120.39 69.168 120.117C69.4242 119.843 69.7718 119.69 70.1342 119.69C70.4966 119.69 70.8441 119.843 71.1004 120.117C71.3567 120.39 71.5006 120.76 71.5006 121.147V143.001C71.5006 143.387 71.6446 143.758 71.9008 144.031C72.1571 144.304 72.5047 144.458 72.8671 144.458C73.2295 144.458 73.577 144.304 73.8333 144.031C74.0895 143.758 74.2335 143.387 74.2335 143.001V121.147C74.2337 120.413 74.0604 119.69 73.7296 119.047C73.3989 118.403 72.9213 117.858 72.341 117.464C72.7236 116.739 72.9162 115.894 72.8561 115.006V115.001L72.852 114.958V114.949L72.8507 114.946V114.931L72.8479 114.905V114.894C72.6143 112.423 71.5512 110.07 70.1902 108.235C67.6992 104.877 63.3799 102.206 56.4849 102.206H46.8694ZM70.126 115.246L70.1233 115.144L70.1246 115.143C69.947 113.355 69.149 111.529 68.0476 110.043C66.1374 107.467 62.6502 105.12 56.4849 105.12H46.8694C44.3032 105.12 42.2494 106.072 40.8325 107.602C39.4797 109.077 38.7174 111.055 38.7063 113.119C38.6885 115.115 39.3608 117.134 40.7641 118.661C41.5307 119.489 42.4591 120.127 43.4833 120.529L44.6462 120.995L44.3223 122.274C43.359 126.074 42.3793 129.654 41.8286 131.629C49.8495 132.965 54.8889 132.923 62.9235 131.621C61.7498 127.282 58.4457 114.847 57.7953 109.889L57.5425 107.96L59.3503 108.247C62.9317 108.815 64.8557 110.431 65.9106 111.853C66.4742 112.613 66.9051 113.474 67.1827 114.397L67.2784 114.714C67.5325 115.583 67.706 116.112 67.9575 116.451C68.0324 116.561 68.1333 116.648 68.2499 116.703C68.3537 116.75 68.5423 116.801 68.8839 116.772C69.2148 116.741 69.524 116.584 69.7539 116.328C69.9837 116.073 70.1184 115.737 70.1328 115.383C70.1296 115.354 70.1273 115.324 70.126 115.294V115.246ZM46.633 144.274C46.1413 144.204 45.6903 143.945 45.3636 143.547C45.037 143.149 44.8568 142.638 44.8566 142.109V137.193C46.7205 137.489 48.4504 137.679 50.1406 137.766L48.8835 142.683C48.7529 143.194 48.4526 143.637 48.0387 143.93C47.6248 144.222 47.1252 144.345 46.633 144.274ZM55.8591 142.683L54.5979 137.756C56.3683 137.651 58.133 137.456 59.886 137.173V142.109C59.8868 142.639 59.7069 143.152 59.3798 143.551C59.0527 143.95 58.6007 144.209 58.1079 144.279C57.6151 144.349 57.1152 144.226 56.7013 143.932C56.2873 143.639 55.9889 143.195 55.8591 142.683ZM110.319 121.049C109.55 121.869 109.118 122.981 109.118 124.14V124.64C109.118 125.026 109.262 125.397 109.519 125.67C109.775 125.943 110.122 126.097 110.485 126.097C110.847 126.097 111.195 125.943 111.451 125.67C111.707 125.397 111.851 125.026 111.851 124.64V124.14C111.851 123.754 111.995 123.383 112.251 123.11C112.508 122.837 112.855 122.683 113.218 122.683C113.58 122.683 113.928 122.837 114.184 123.11C114.44 123.383 114.584 123.754 114.584 124.14V143.002C114.584 143.388 114.728 143.758 114.984 144.032C115.241 144.305 115.588 144.458 115.951 144.458C116.313 144.458 116.66 144.305 116.917 144.032C117.173 143.758 117.317 143.388 117.317 143.002V124.14C117.317 122.981 116.885 121.869 116.116 121.049C115.348 120.23 114.305 119.769 113.218 119.769C112.13 119.769 111.088 120.23 110.319 121.049ZM90.3366 105.121C87.6366 105.121 85.4804 106.082 83.9991 107.622C83.3086 108.338 82.7578 109.192 82.3785 110.136C81.9993 111.08 81.7991 112.094 81.7896 113.121C81.7773 114.147 81.9604 115.166 82.3277 116.115C82.695 117.064 83.239 117.924 83.9267 118.643C85.3519 120.133 87.4207 121.073 90.0224 121.143L91.3546 121.179V140.476C91.3546 140.865 91.7454 141.505 92.6514 141.543C93.5614 141.581 94.0424 140.964 94.0834 140.552L95.4198 126.975H100.954L102.29 140.554C102.331 140.964 102.812 141.581 103.722 141.543C104.628 141.505 105.019 140.865 105.019 140.476V108.396L106.951 109.333C108.458 110.063 109.438 110.994 110.086 111.831C110.796 112.754 111.471 114.015 111.647 115.402L111.65 115.431L111.653 115.455C111.724 116.201 112.391 116.845 113.246 116.77C114.066 116.7 114.65 115.946 114.589 115.198C114.529 114.628 114.408 114.067 114.229 113.526C113.833 112.264 113.222 111.091 112.428 110.066C110.435 107.484 106.788 105.121 100.34 105.121H90.3366ZM82.0916 105.536C84.1413 103.406 87.0108 102.207 90.3366 102.207H100.339C107.479 102.207 111.951 104.861 114.539 108.214C115.547 109.517 116.321 111.006 116.824 112.608C117.042 113.313 117.239 114.1 117.31 114.936V114.942C117.519 117.458 115.647 119.488 113.465 119.676C111.229 119.866 109.18 118.182 108.937 115.777C108.846 115.101 108.48 114.339 107.975 113.683C107.903 113.591 107.829 113.501 107.752 113.414V140.476C107.752 142.786 105.844 144.369 103.83 144.454C101.821 144.538 99.7964 143.134 99.5723 140.855L98.4929 129.889H97.8807L96.8012 140.857C96.5771 143.134 94.5521 144.538 92.5434 144.455C90.5293 144.371 88.6218 142.786 88.6218 140.476V123.955C85.9914 123.619 83.7163 122.505 82.0124 120.72C81.0626 119.727 80.3111 118.54 79.8031 117.229C79.2952 115.918 79.0413 114.511 79.0568 113.093C79.0698 111.683 79.3445 110.289 79.8651 108.992C80.3858 107.695 81.142 106.521 82.0902 105.537L82.0916 105.536ZM91.3546 107.972V118.291L89.9281 118.224C88.1162 118.137 86.8714 117.481 86.0679 116.641C85.6363 116.184 85.2959 115.64 85.0672 115.039C84.8384 114.439 84.7261 113.795 84.737 113.147C84.7409 112.492 84.8663 111.843 85.1059 111.24C85.3456 110.636 85.6948 110.089 86.1335 109.63C86.9493 108.783 88.1818 108.134 89.9226 108.045L91.3546 107.972ZM88.6218 111.295C88.2795 111.456 87.9885 111.719 87.784 112.053C87.5795 112.387 87.4704 112.777 87.4699 113.176C87.4644 113.736 87.6571 114.222 87.9823 114.56C88.1107 114.696 88.313 114.862 88.6218 115.003V111.295ZM98.1868 89.0943C97.0996 89.0943 96.0569 89.5548 95.2882 90.3745C94.5194 91.1942 94.0875 92.3059 94.0875 93.4651C94.0875 94.6244 94.5194 95.7361 95.2882 96.5558C96.0569 97.3755 97.0996 97.836 98.1868 97.836C99.274 97.836 100.317 97.3755 101.085 96.5558C101.854 95.7361 102.286 94.6244 102.286 93.4651C102.286 92.3059 101.854 91.1942 101.085 90.3745C100.317 89.5548 99.274 89.0943 98.1868 89.0943ZM91.3546 93.4651C91.3546 91.5331 92.0744 89.6802 93.3557 88.3141C94.637 86.9479 96.3748 86.1804 98.1868 86.1804C99.9988 86.1804 101.737 86.9479 103.018 88.3141C104.299 89.6802 105.019 91.5331 105.019 93.4651C105.019 95.3972 104.299 97.2501 103.018 98.6162C101.737 99.9824 99.9988 100.75 98.1868 100.75C96.3748 100.75 94.637 99.9824 93.3557 98.6162C92.0744 97.2501 91.3546 95.3972 91.3546 93.4651ZM80.8266 32.7021H71.1735C70.9165 32.7045 70.671 32.8156 70.4909 33.011C70.3108 33.2063 70.2107 33.4699 70.2128 33.7439V39.4825C70.2119 39.675 70.261 39.8641 70.3547 40.0287C70.4483 40.1933 70.5828 40.3271 70.7433 40.4153L75.3538 43.336C75.5538 43.4448 75.7751 43.5014 75.9995 43.5014C76.224 43.5014 76.4453 43.4448 76.6453 43.336L81.2558 40.4153C81.4163 40.3273 81.5509 40.1937 81.6447 40.0293C81.7385 39.8649 81.7878 39.676 81.7873 39.4835V33.7449C81.7888 33.6091 81.7651 33.4742 81.7176 33.3482C81.6701 33.2221 81.5996 33.1074 81.5104 33.0104C81.4211 32.9135 81.3147 32.8364 81.1973 32.7835C81.08 32.7305 80.954 32.7029 80.8266 32.7021ZM78.8936 38.3584H76.9646V40.4153H75.0355V38.3584H73.1064V36.3016H75.0355V34.2447H76.9646V36.3016H78.8936V38.3584ZM20.539 60.4697C18.9409 60.4697 17.6454 61.7652 17.6454 63.3633V145.829H11.0853C9.38133 145.829 8 147.211 8 148.915C8 150.619 9.38132 152 11.0853 152H140.915C142.619 152 144 150.619 144 148.915C144 147.211 142.619 145.829 140.915 145.829H134.355V63.3633C134.355 61.7652 133.059 60.4697 131.461 60.4697C129.863 60.4697 128.567 61.7652 128.567 63.3633V145.829H23.4326V63.3633C23.4326 61.7652 22.1371 60.4697 20.539 60.4697ZM35.0071 62.4697C35.0071 61.3651 35.9025 60.4697 37.0071 60.4697H48.4397C49.5443 60.4697 50.4397 61.3651 50.4397 62.4697V74.9246C50.4397 76.0291 49.5443 76.9246 48.4397 76.9246H37.0071C35.9025 76.9246 35.0071 76.0291 35.0071 74.9246V62.4697ZM59.1915 60.4697C58.0869 60.4697 57.1915 61.3651 57.1915 62.4697V74.9246C57.1915 76.0291 58.0869 76.9246 59.1915 76.9246H70.6241C71.7287 76.9246 72.6241 76.0291 72.6241 74.9246V62.4697C72.6241 61.3651 71.7287 60.4697 70.6241 60.4697H59.1915ZM79.3759 62.4697C79.3759 61.3651 80.2713 60.4697 81.3759 60.4697H92.8085C93.9131 60.4697 94.8085 61.3651 94.8085 62.4697V74.9246C94.8085 76.0291 93.9131 76.9246 92.8085 76.9246H81.3759C80.2713 76.9246 79.3759 76.0291 79.3759 74.9246V62.4697ZM103.56 60.4697C102.456 60.4697 101.56 61.3651 101.56 62.4697V74.9246C101.56 76.0291 102.456 76.9246 103.56 76.9246H114.993C116.097 76.9246 116.993 76.0291 116.993 74.9246V62.4697C116.993 61.3651 116.097 60.4697 114.993 60.4697H103.56Z" fill="#383A3C"/>
</svg>
