<svg width="152" height="152" viewBox="0 0 152 152" fill="none" xmlns="http://www.w3.org/2000/svg">
<path fill-rule="evenodd" clip-rule="evenodd" d="M142 76C142 112.451 112.451 142 76 142C39.5492 142 10 112.451 10 76C10 39.5492 39.5492 10 76 10C112.451 10 142 39.5492 142 76ZM149 76C149 116.317 116.317 149 76 149C35.6832 149 3 116.317 3 76C3 35.6832 35.6832 3 76 3C116.317 3 149 35.6832 149 76ZM93.5949 53.0373C95.6312 51.001 98.9327 51.001 100.969 53.0373C103.005 55.0736 103.005 58.3751 100.969 60.4114L84.3773 77.0032L100.969 93.5949C103.005 95.6312 103.005 98.9327 100.969 100.969C98.9327 103.005 95.6312 103.005 93.5949 100.969L77.0031 84.3773L60.4114 100.969C58.3751 103.005 55.0736 103.005 53.0373 100.969C51.001 98.9327 51.001 95.6312 53.0373 93.5949L69.629 77.0032L53.0373 60.4114C51.001 58.3751 51.001 55.0736 53.0373 53.0373C55.0736 51.001 58.3751 51.001 60.4114 53.0373L77.0031 69.6291L93.5949 53.0373Z" fill="#383A3C"/>
</svg>
