<svg width="30" height="36" viewBox="0 0 30 36" fill="none" xmlns="http://www.w3.org/2000/svg">
<path id="Vector" d="M15 24.5625C6.7125 24.5625 0 27.9187 0 32.0625V35.8125H30V32.0625C30 27.9187 23.2875 24.5625 15 24.5625ZM7.5 13.3125C7.5 15.3016 8.29018 17.2093 9.6967 18.6158C11.1032 20.0223 13.0109 20.8125 15 20.8125C16.9891 20.8125 18.8968 20.0223 20.3033 18.6158C21.7098 17.2093 22.5 15.3016 22.5 13.3125M14.0625 0.1875C13.5 0.1875 13.125 0.58125 13.125 1.125V6.75H11.25V2.0625C11.25 2.0625 7.03125 3.675 7.03125 9.09375C7.03125 9.09375 5.625 9.35625 5.625 11.4375H24.375C24.2812 9.35625 22.9688 9.09375 22.9688 9.09375C22.9688 3.675 18.75 2.0625 18.75 2.0625V6.75H16.875V1.125C16.875 0.58125 16.5188 0.1875 15.9375 0.1875H14.0625Z" fill="#FCFEFF"/>
</svg>
