<svg width="170" height="162" viewBox="0 0 170 162" fill="none" xmlns="http://www.w3.org/2000/svg">
<rect width="153" height="162" transform="translate(17)" fill="#383A3C"/>
<path fill-rule="evenodd" clip-rule="evenodd" d="M107.272 75.9999C100.38 75.9999 93.7157 72.9225 88.4995 67.3377C83.4275 61.8902 80.33 54.6259 79.7836 46.8888C79.2003 38.6355 81.7179 31.046 86.8703 25.5148C92.0228 19.9835 99.2268 17 107.272 17C115.261 17 122.485 20.0372 127.621 25.555C132.806 31.1265 135.331 38.7026 134.747 46.8855C134.188 54.6326 131.093 61.8936 126.032 67.3343C120.829 72.9225 114.168 75.9999 107.272 75.9999ZM151.465 135H63.0826C61.6616 135.007 60.2578 134.689 58.9793 134.069C57.7007 133.449 56.5814 132.544 55.7076 131.423C54.7807 130.208 54.1406 128.799 53.8353 127.302C53.5299 125.805 53.5672 124.258 53.9443 122.777C56.7669 111.443 63.7598 102.044 74.1652 95.5973C83.4007 89.8783 95.1571 86.7272 107.272 86.7272C119.625 86.7272 131.073 89.7442 140.362 95.4598C150.791 101.873 157.794 111.326 160.603 122.798C160.976 124.279 161.009 125.826 160.7 127.323C160.392 128.819 159.749 130.226 158.82 131.44C157.947 132.555 156.83 133.456 155.556 134.073C154.281 134.69 152.882 135.007 151.465 135Z" fill="#FCFEFF"/>
<mask id="path-2-inside-1_1122_1461" fill="white">
<path fill-rule="evenodd" clip-rule="evenodd" d="M32.7935 59.5494C29.5058 61.1933 20.0006 66.9467 20 77.2901C19.9994 87.6335 31.9824 97.0161 49.2319 97.0161C66.4813 97.0161 80 86.2583 80 78.9339C80 72.5717 76.6296 69.001 75.2055 67.4922V67.4922C74.8908 67.1589 74.8027 66.6863 74.9689 66.259C75.5387 64.794 76.9955 61.3461 78.7471 59.4697V59.4697C80.0627 58.0602 79.2955 54.844 77.3743 55.0057C76.083 55.1144 74.8198 55.2536 73.6996 55.4317C69.7669 56.0573 64.1907 57.7057 62.2546 58.2966C61.7975 58.4361 61.3139 58.4679 60.8421 58.392C47.9633 56.3217 36.0212 57.9356 32.7935 59.5494ZM36.9564 74.9732C37.8928 74.9732 38.6519 75.7323 38.6519 76.6687C38.6519 77.6052 37.8928 78.3643 36.9564 78.3643C36.0199 78.3643 35.2608 77.6052 35.2608 76.6687C35.2608 75.7323 36.0199 74.9732 36.9564 74.9732ZM50.5192 76.6687C50.5192 75.796 49.8598 75.0772 49.0121 74.9835C48.9502 74.9767 48.8873 74.9732 48.8237 74.9732C47.8872 74.9732 47.1281 75.7323 47.1281 76.6687C47.1281 77.49 47.7119 78.1748 48.4871 78.3309C48.5959 78.3528 48.7084 78.3643 48.8237 78.3643C49.7601 78.3643 50.5192 77.6052 50.5192 76.6687ZM60.6959 74.9732C61.6323 74.9732 62.3915 75.7323 62.3915 76.6687C62.3915 77.6052 61.6323 78.3643 60.6959 78.3643C59.7595 78.3643 59.0003 77.6052 59.0003 76.6687C59.0003 75.7323 59.7595 74.9732 60.6959 74.9732Z"/>
</mask>
<path d="M20 77.2901L17 77.2899L17 77.2899L20 77.2901ZM32.7935 59.5494L31.4519 56.8662L31.4519 56.8662L32.7935 59.5494ZM73.6996 55.4317L74.1709 58.3945L73.6996 55.4317ZM49.0121 74.9835L48.6824 77.9654L48.6824 77.9654L49.0121 74.9835ZM48.4871 78.3309L47.8949 81.2719L47.8949 81.2719L48.4871 78.3309ZM62.2546 58.2966L61.3789 55.4273L62.2546 58.2966ZM60.8421 58.392L60.3659 61.354L60.8421 58.392ZM77.3743 55.0057L77.1226 52.0163L77.3743 55.0057ZM75.2055 67.4922L73.0239 69.5515L73.0239 69.5515L75.2055 67.4922ZM74.9689 66.259L72.1729 65.1715L74.9689 66.259ZM17 77.2899C17.0003 71.122 19.8527 66.3957 22.9881 63.0922C26.1024 59.811 29.6335 57.7753 31.4519 56.8662L34.1352 62.2327C32.6658 62.9674 29.8005 64.6304 27.34 67.2227C24.9008 69.7926 23.0002 73.1148 23 77.2903L17 77.2899ZM49.2319 100.016C40.0832 100.016 32.1477 97.5301 26.4165 93.4823C20.7024 89.4467 16.9997 83.691 17 77.2899L23 77.2903C22.9998 81.2325 25.2882 85.3399 29.8779 88.5814C34.4504 91.8108 41.131 94.0161 49.2319 94.0161L49.2319 100.016ZM83 78.9339C83 81.6541 81.7707 84.3247 80.0137 86.6553C78.2272 89.0248 75.7205 91.2827 72.7216 93.2356C66.7219 97.1427 58.465 100.016 49.2319 100.016L49.2319 94.0161C57.2481 94.0161 64.3753 91.5107 69.4474 88.2077C71.9843 86.5557 73.9353 84.7508 75.2227 83.0432C76.5394 81.2967 77 79.8759 77 78.9339L83 78.9339ZM77.3871 65.433C78.9302 67.0678 83 71.369 83 78.9339L77 78.9339C77 73.7743 74.329 70.9342 73.0239 69.5515L77.3871 65.433ZM80.9401 61.5168C80.3508 62.1481 79.6995 63.1844 79.0858 64.3845C78.4941 65.5418 78.0286 66.6685 77.7648 67.3466L72.1729 65.1715C72.479 64.3846 73.0268 63.0548 73.7438 61.6528C74.4388 60.2935 75.3917 58.6677 76.554 57.4226L80.9401 61.5168ZM73.2284 52.469C74.4461 52.2753 75.7879 52.1286 77.1226 52.0163L77.6259 57.9951C76.3781 58.1002 75.1935 58.2318 74.1709 58.3945L73.2284 52.469ZM61.3789 55.4273C63.2952 54.8424 69.0609 53.1319 73.2284 52.469L74.1709 58.3945C70.4729 58.9827 65.0861 60.5691 63.1303 61.166L61.3789 55.4273ZM31.4519 56.8662C32.6292 56.2775 34.3019 55.8128 36.1528 55.452C38.0679 55.0788 40.3901 54.7766 42.9912 54.5963C48.1908 54.236 54.6272 54.3544 61.3182 55.43L60.3659 61.354C54.1782 60.3593 48.2042 60.2495 43.406 60.582C41.0084 60.7481 38.935 61.0227 37.3006 61.3412C35.6022 61.6722 34.5717 62.0144 34.1351 62.2327L31.4519 56.8662ZM35.6519 76.6687C35.6519 77.3892 36.2359 77.9732 36.9564 77.9732L36.9564 71.9732C39.5496 71.9732 41.6519 74.0754 41.6519 76.6687L35.6519 76.6687ZM36.9564 75.3643C36.2359 75.3643 35.6519 75.9483 35.6519 76.6687L41.6519 76.6687C41.6519 79.262 39.5496 81.3643 36.9564 81.3643L36.9564 75.3643ZM38.2608 76.6687C38.2608 75.9483 37.6768 75.3643 36.9564 75.3643L36.9564 81.3643C34.3631 81.3643 32.2608 79.262 32.2608 76.6687L38.2608 76.6687ZM36.9564 77.9732C37.6768 77.9732 38.2608 77.3892 38.2608 76.6687L32.2608 76.6687C32.2608 74.0754 34.3631 71.9732 36.9564 71.9732L36.9564 77.9732ZM49.3417 72.0017C51.6926 72.2616 53.5192 74.2498 53.5192 76.6687L47.5192 76.6687C47.5192 77.3422 48.027 77.8929 48.6824 77.9654L49.3417 72.0017ZM48.8237 71.9732C48.9977 71.9732 49.1706 71.9828 49.3418 72.0017L48.6824 77.9654C48.7298 77.9706 48.777 77.9732 48.8237 77.9732L48.8237 71.9732ZM44.1281 76.6687C44.1281 74.0754 46.2304 71.9732 48.8237 71.9732L48.8237 77.9732C49.5441 77.9732 50.1281 77.3892 50.1281 76.6687L44.1281 76.6687ZM47.8949 81.2719C45.7468 80.8393 44.1281 78.9464 44.1281 76.6687L50.1281 76.6687C50.1281 76.0335 49.677 75.5103 49.0793 75.39L47.8949 81.2719ZM48.8237 81.3643C48.5084 81.3643 48.1976 81.3328 47.8949 81.2719L49.0793 75.39C48.9942 75.3728 48.9084 75.3643 48.8237 75.3643L48.8237 81.3643ZM53.5192 76.6687C53.5192 79.262 51.4169 81.3643 48.8237 81.3643L48.8237 75.3643C48.1032 75.3643 47.5192 75.9483 47.5192 76.6687L53.5192 76.6687ZM59.3915 76.6687C59.3915 77.3892 59.9755 77.9732 60.6959 77.9732L60.6959 71.9732C63.2892 71.9732 65.3915 74.0754 65.3915 76.6687L59.3915 76.6687ZM60.6959 75.3643C59.9755 75.3643 59.3915 75.9483 59.3915 76.6687L65.3915 76.6687C65.3915 79.262 63.2892 81.3643 60.6959 81.3643L60.6959 75.3643ZM62.0003 76.6687C62.0003 75.9483 61.4163 75.3643 60.6959 75.3643L60.6959 81.3643C58.1026 81.3643 56.0003 79.262 56.0003 76.6687L62.0003 76.6687ZM60.6959 77.9732C61.4163 77.9732 62.0003 77.3892 62.0003 76.6687L56.0003 76.6687C56.0003 74.0754 58.1026 71.9732 60.6959 71.9732L60.6959 77.9732ZM63.1303 61.166C62.2297 61.4408 61.2835 61.5015 60.3659 61.354L61.3182 55.43C61.3443 55.4342 61.3652 55.4314 61.3789 55.4273L63.1303 61.166ZM76.554 57.4226C76.3955 57.5924 76.3901 57.7126 76.3988 57.6604C76.407 57.6114 76.4047 57.5258 76.3846 57.4537C76.3605 57.3671 76.362 57.4659 76.5348 57.6276C76.631 57.7175 76.7826 57.8268 76.9932 57.9052C77.2102 57.9858 77.4314 58.0115 77.6259 57.9951L77.1226 52.0163C80.1993 51.7573 81.7285 54.2788 82.1644 55.8433C82.6154 57.4619 82.5277 59.8159 80.9401 61.5168L76.554 57.4226ZM73.0239 69.5515C71.8989 68.3597 71.5949 66.6576 72.1729 65.1715L77.7648 67.3466C78.0105 66.7149 77.8827 65.9581 77.3871 65.433L73.0239 69.5515Z" fill="#FCFEFF" mask="url(#path-2-inside-1_1122_1461)"/>
</svg>
