<svg width="670" height="788" viewBox="0 0 670 788" fill="none" xmlns="http://www.w3.org/2000/svg">
<path fill-rule="evenodd" clip-rule="evenodd" d="M16.8314 97.8002L76.7898 84.7843C77.3293 84.6671 77.7965 84.3322 78.0805 83.8588L95.7311 54.4411C96.4335 53.2705 98.0762 53.132 98.9646 54.1685L134.115 95.1773C135.079 96.3019 136.888 96.025 137.471 94.6636L155.111 53.5048C155.474 52.6576 156.369 52.1683 157.278 52.3198L193.319 58.3272C194.185 58.4716 195.044 58.0342 195.437 57.2489L207.421 33.2798C207.658 32.8054 208.074 32.4446 208.578 32.2769L227.007 26.1337C227.211 26.0657 227.425 26.0311 227.64 26.0311H252.11C252.868 26.0311 253.56 25.6031 253.899 24.9255L265.809 1.10545C266.148 0.427864 266.84 -0.000147685 267.598 -0.00012207L298.656 0.000928804C298.819 0.000931517 298.982 0.0209854 299.141 0.0606395L324.041 6.28564C324.607 6.42725 325.083 6.80928 325.344 7.33147L337.537 31.7162C337.798 32.2383 338.275 32.6204 338.841 32.762L388.946 45.2893C389.609 45.4551 390.142 45.9484 390.358 46.5971L396.519 65.079L403.027 84.6007L408.913 108.149C409.229 109.411 408.274 110.634 406.973 110.634L370.812 110.634C370.597 110.634 370.384 110.668 370.18 110.736L350.964 117.141L331.576 123.604C331.486 123.634 331.398 123.671 331.314 123.713L307.436 135.652C306.36 136.19 305.999 137.549 306.666 138.55L318.235 155.903C318.361 156.092 318.518 156.258 318.699 156.394L342.612 174.328C343.585 175.058 343.686 176.482 342.826 177.342L325.519 194.649C325.144 195.024 324.933 195.533 324.933 196.064V226.745C324.933 227.391 325.245 227.997 325.77 228.372L370.488 260.313L389.753 273.157C389.924 273.271 390.076 273.411 390.205 273.571L415.604 305.32C415.888 305.675 416.042 306.115 416.042 306.569V350.594C416.042 351.125 416.253 351.633 416.628 352.008L441.973 377.353C442.04 377.42 442.112 377.482 442.187 377.539L493.374 415.929C493.856 416.291 494.475 416.416 495.059 416.27L543.713 404.106C544.976 403.791 546.198 404.745 546.198 406.047V454.387C546.198 455.104 546.583 455.767 547.206 456.123L591.442 481.401C591.648 481.518 591.872 481.599 592.106 481.637L668.176 494.316C669.14 494.476 669.847 495.311 669.847 496.288V527.133V562.019C669.847 563.696 667.907 564.628 666.597 563.581L637.621 540.4C637.414 540.234 637.176 540.111 636.921 540.039L592.022 527.21C591.844 527.159 591.659 527.133 591.473 527.133H561.214C560.109 527.133 559.214 528.029 559.214 529.133V565.048C559.214 565.75 559.583 566.401 560.185 566.763L590.782 585.121C591.384 585.482 591.753 586.133 591.753 586.836V610.602C591.753 611.305 591.384 611.956 590.782 612.317L560.185 630.676C559.583 631.037 559.214 631.688 559.214 632.391V663.325C559.214 663.635 559.142 663.942 559.003 664.219L546.751 688.723C546.412 689.4 545.72 689.828 544.962 689.828H507.624C507.313 689.828 507.007 689.901 506.729 690.039L494.426 696.191C494.234 696.287 494.058 696.414 493.906 696.566L488.214 702.258C487.839 702.633 487.628 703.142 487.628 703.672V715.387C487.628 715.698 487.556 716.004 487.417 716.282L481.491 728.134C481.254 728.609 481.215 729.158 481.382 729.661L487.628 748.399L493.745 766.749C493.985 767.468 493.798 768.26 493.262 768.796L481.454 780.604C481.235 780.823 480.967 780.989 480.672 781.087L462.591 787.114C461.968 787.322 461.284 787.211 460.759 786.817L435.566 767.922L416.265 755.055C416.117 754.956 415.957 754.878 415.788 754.822L396.654 748.444C396.603 748.427 396.553 748.408 396.504 748.387C396.466 748.371 396.429 748.354 396.392 748.335L370.963 735.621C370.651 735.465 370.386 735.231 370.193 734.941L357.853 716.431C357.606 716.06 357.243 715.783 356.821 715.643L338.396 709.501C338.102 709.403 337.834 709.238 337.615 709.018L326.092 697.496C325.418 696.821 325.314 695.765 325.842 694.972L337.355 677.703C337.726 677.147 338.35 676.813 339.019 676.813L357.274 676.813C357.406 676.813 357.537 676.826 357.666 676.852L389.817 683.282C389.946 683.308 390.077 683.321 390.209 683.321H415.437C415.832 683.321 416.218 683.204 416.546 682.985L435.062 670.641C435.39 670.422 435.776 670.305 436.171 670.305H461.272C461.487 670.305 461.701 670.27 461.905 670.202L480.985 663.842C481.075 663.812 481.163 663.776 481.247 663.734L507.152 650.782L525.011 638.875C525.93 638.263 526.178 637.021 525.566 636.102L514.243 619.118C513.878 618.57 513.805 617.877 514.05 617.266L526.341 586.537C526.554 586.007 526.529 585.411 526.273 584.9L513.897 560.147C513.741 559.836 513.507 559.571 513.217 559.378L494.465 546.876C494.248 546.731 494.004 546.63 493.748 546.579L463.205 540.47C462.27 540.284 461.597 539.463 461.597 538.509V514.946C461.597 514.416 461.386 513.907 461.011 513.532L442.073 494.594L422.55 475.071L390.559 449.478C390.204 449.194 389.764 449.04 389.309 449.04L364.553 449.04C364.179 449.04 363.811 448.934 363.493 448.736L312.395 416.799C312.082 416.604 311.83 416.326 311.666 415.997L299.047 390.76C298.951 390.567 298.824 390.392 298.672 390.24L273.204 364.772C272.985 364.552 272.717 364.387 272.423 364.289L253.907 358.117C253.542 357.995 253.219 357.77 252.978 357.469L227.515 325.64C227.383 325.475 227.278 325.291 227.204 325.093L207.792 273.329L195.084 241.559C194.887 241.066 194.503 240.672 194.015 240.463L149.222 221.266L118.106 208.82C117.267 208.484 116.306 208.753 115.764 209.477L97.3545 234.022C97.2255 234.194 97.1251 234.386 97.0571 234.59L90.9139 253.019C90.7462 253.523 90.3854 253.939 89.911 254.176L65.91 266.176C65.1401 266.561 64.2101 266.41 63.6014 265.802L51.9968 254.197C51.7405 253.941 51.5587 253.62 51.4707 253.268L45.2695 228.463C45.1581 228.017 44.8967 227.624 44.5292 227.348L20.4014 209.252C19.6282 208.672 19.3803 207.622 19.8126 206.758L31.4372 183.51C31.8222 182.74 31.6713 181.81 31.0626 181.201L0.769402 150.908C0.065633 150.204 -0.0135643 149.09 0.583581 148.294L18.2171 124.781C18.7259 124.103 18.7515 123.177 18.2812 122.472L7.21559 105.874C6.58155 104.922 6.87216 103.634 7.85314 103.048L16.2291 98.0382C16.4156 97.9267 16.6191 97.8463 16.8314 97.8002ZM98.8095 449.037H148.162C148.831 449.037 149.455 449.371 149.826 449.927L187.788 506.871C188.101 507.34 188.201 507.919 188.065 508.465L181.771 533.638L175.264 585.701L169.134 610.217C168.912 611.107 168.112 611.732 167.194 611.732H137.045C136.515 611.732 136.006 611.943 135.631 612.318L124.615 623.333C123.834 624.114 122.568 624.114 121.787 623.333L98.1024 599.649C97.5367 599.083 97.3625 598.235 97.6596 597.492L109.978 566.697C110.114 566.357 110.154 565.986 110.093 565.625L103.678 527.13L90.7953 482.042C90.7077 481.736 90.6946 481.413 90.7571 481.1L96.8483 450.644C97.0353 449.71 97.8561 449.037 98.8095 449.037Z" fill="#F2F2F2"/>
</svg>
