<svg width="670" height="786" viewBox="0 0 670 786" fill="none" xmlns="http://www.w3.org/2000/svg">
<path fill-rule="evenodd" clip-rule="evenodd" d="M15.9618 91.2125L71.8058 79.0897C72.3453 78.9726 72.8125 78.6376 73.0965 78.1642L89.433 50.9368C90.1353 49.7662 91.7781 49.6277 92.6665 50.6642L125.188 88.6066C126.152 89.7312 127.962 89.4543 128.545 88.0929L144.87 50.0005C145.233 49.1533 146.128 48.664 147.037 48.8155L180.45 54.3848C181.316 54.5292 182.175 54.0918 182.568 53.3065L193.676 31.0896C193.913 30.6152 194.329 30.2544 194.833 30.0867L211.948 24.3815C212.152 24.3135 212.366 24.2789 212.581 24.2789L235.299 24.2789C236.057 24.2789 236.749 23.8509 237.088 23.1733L248.122 1.10545C248.461 0.427859 249.153 -0.000152405 249.911 -0.00012207L278.778 0.000850963C278.941 0.000853676 279.104 0.0209076 279.263 0.0605676L302.411 5.84752C302.977 5.98912 303.454 6.37115 303.715 6.89335L315.031 29.5259C315.292 30.0481 315.769 30.4301 316.335 30.5717L362.936 42.2229C363.599 42.3888 364.132 42.882 364.348 43.5307L370.071 60.6985L376.14 78.9062L381.589 100.702C381.904 101.964 380.95 103.187 379.649 103.187H346.116C345.901 103.187 345.688 103.221 345.484 103.289L327.582 109.257L309.508 115.281C309.418 115.311 309.331 115.348 309.246 115.39L287.12 126.453C286.044 126.991 285.683 128.35 286.351 129.351L297.043 145.39C297.169 145.579 297.326 145.745 297.508 145.881L319.668 162.501C320.641 163.231 320.743 164.654 319.882 165.515L303.889 181.508C303.514 181.883 303.303 182.392 303.303 182.922V211.413C303.303 212.059 303.615 212.665 304.141 213.041L345.792 242.791L363.742 254.759C363.914 254.873 364.066 255.013 364.195 255.173L387.842 284.732C388.125 285.086 388.28 285.527 388.28 285.981V326.94C388.28 327.47 388.491 327.979 388.866 328.354L412.458 351.947C412.525 352.013 412.597 352.076 412.673 352.132L460.355 387.894C460.837 388.256 461.456 388.381 462.041 388.235L507.19 376.947C508.452 376.632 509.675 377.587 509.675 378.888V423.724C509.675 424.441 510.06 425.104 510.683 425.46L551.853 448.986C552.058 449.103 552.283 449.183 552.516 449.222L623.329 461.024C624.294 461.185 625.001 462.019 625.001 462.997V491.652V523.909C625.001 525.586 623.061 526.518 621.751 525.471L594.966 504.042C594.758 503.876 594.521 503.754 594.266 503.681L552.433 491.729C552.254 491.677 552.069 491.652 551.883 491.652L523.815 491.652C522.71 491.652 521.815 492.547 521.815 493.652V526.938C521.815 527.64 522.183 528.291 522.786 528.653L551.192 545.697C551.795 546.058 552.163 546.709 552.163 547.412V569.426C552.164 570.129 551.795 570.78 551.192 571.141L522.786 588.185C522.183 588.547 521.815 589.198 521.815 589.9V618.644C521.815 618.955 521.742 619.261 521.603 619.539L510.228 642.29C509.889 642.968 509.197 643.396 508.439 643.396H473.729C473.418 643.396 473.112 643.468 472.834 643.607L461.407 649.32C461.215 649.416 461.04 649.543 460.888 649.695L455.633 654.949C455.258 655.324 455.047 655.833 455.047 656.364L455.047 667.203C455.047 667.513 454.975 667.819 454.836 668.097L449.348 679.073C449.111 679.548 449.072 680.097 449.239 680.6L455.047 698.023L460.726 715.06C460.966 715.779 460.779 716.571 460.243 717.107L449.311 728.038C449.092 728.258 448.824 728.423 448.53 728.522L431.762 734.111C431.14 734.318 430.455 734.207 429.93 733.813L406.489 716.233L388.503 704.242C388.428 704.192 388.349 704.147 388.268 704.107C388.19 704.069 388.109 704.036 388.026 704.008L370.205 698.068C370.116 698.038 370.028 698.002 369.943 697.96L346.267 686.121C345.955 685.966 345.69 685.732 345.497 685.442L334.033 668.246C333.786 667.876 333.423 667.598 333.001 667.458L315.891 661.754C315.596 661.656 315.328 661.491 315.109 661.271L304.463 650.625C303.788 649.951 303.684 648.894 304.213 648.101L314.849 632.147C315.22 631.59 315.844 631.256 316.513 631.256H333.454C333.586 631.256 333.717 631.269 333.846 631.295L363.807 637.287C363.936 637.313 364.067 637.326 364.199 637.326H387.674C388.069 637.326 388.455 637.209 388.784 636.99L405.985 625.522C406.314 625.303 406.7 625.186 407.095 625.186L430.444 625.186C430.659 625.186 430.872 625.152 431.076 625.084L448.843 619.161C448.932 619.132 449.02 619.095 449.105 619.053L473.257 606.977L489.802 595.947C490.721 595.334 490.969 594.092 490.356 593.173L479.91 577.504C479.545 576.956 479.472 576.263 479.717 575.651L491.132 547.113C491.344 546.583 491.32 545.987 491.064 545.476L479.564 522.475C479.408 522.164 479.174 521.899 478.884 521.706L461.446 510.08C461.229 509.935 460.985 509.834 460.729 509.783L432.376 504.113C431.441 503.926 430.768 503.105 430.768 502.151V480.34C430.768 479.81 430.557 479.301 430.182 478.926L412.559 461.303L394.35 443.093L364.549 419.253C364.194 418.969 363.753 418.814 363.299 418.814L340.295 418.814C339.921 418.814 339.553 418.709 339.235 418.51L291.641 388.764C291.329 388.569 291.077 388.291 290.912 387.962L279.169 364.477C279.073 364.285 278.947 364.109 278.795 363.957L255.079 340.241C254.859 340.022 254.592 339.856 254.297 339.758L237.096 334.025C236.73 333.903 236.408 333.678 236.167 333.377L212.456 303.738C212.324 303.573 212.219 303.388 212.145 303.191L194.047 254.931L182.216 225.351C182.019 224.859 181.634 224.465 181.147 224.256L139.42 206.373L110.494 194.802C109.654 194.467 108.694 194.736 108.151 195.459L91.0563 218.253C90.9273 218.425 90.8269 218.616 90.7589 218.82L85.0538 235.936C84.886 236.439 84.5253 236.855 84.0508 237.092L61.8021 248.216C61.0321 248.601 60.1022 248.451 59.4934 247.842L48.7649 237.113C48.5086 236.857 48.3268 236.536 48.2389 236.184L42.4757 213.131C42.3643 212.686 42.1029 212.292 41.7354 212.016L19.3598 195.235C18.5865 194.655 18.3386 193.605 18.7709 192.74L29.5194 171.245C29.9045 170.475 29.7536 169.545 29.1448 168.936L1.04186 140.833C0.338093 140.129 0.258896 139.015 0.856042 138.219L17.1755 116.458C17.6842 115.78 17.7099 114.855 17.2395 114.149L7.05003 98.8648C6.41598 97.9137 6.70659 96.6256 7.68757 96.0389L15.3595 91.4505C15.546 91.339 15.7494 91.2586 15.9618 91.2125ZM92.5135 418.812H138.362C139.03 418.812 139.655 419.146 140.026 419.702L175.36 472.703C175.672 473.172 175.773 473.751 175.636 474.298L169.781 497.719L163.711 546.277L158.02 569.041C157.797 569.931 156.997 570.556 156.08 570.556H128.121C127.59 570.556 127.082 570.766 126.707 571.141L116.567 581.281C115.786 582.062 114.52 582.062 113.739 581.281L91.8064 559.349C91.2407 558.783 91.0665 557.935 91.3636 557.192L102.806 528.587C102.941 528.247 102.982 527.876 102.921 527.515L96.9436 491.649L84.9373 449.627C84.8498 449.32 84.8367 448.997 84.8992 448.685L90.5523 420.419C90.7393 419.485 91.5601 418.812 92.5135 418.812Z" fill="#F2F2F2"/>
<path d="M510 279.75C518.944 279.75 527.01 277.552 534.198 273.157C541.385 268.767 547.055 262.979 551.208 255.792C545.618 251.16 539.309 247.604 532.281 245.125C525.253 242.653 517.826 241.417 510 241.417C502.173 241.417 494.746 242.653 487.718 245.125C480.691 247.604 474.382 251.16 468.791 255.792C472.944 262.979 478.614 268.767 485.802 273.157C492.989 277.552 501.055 279.75 510 279.75ZM510 231.833C515.271 231.833 519.784 229.955 523.541 226.198C527.291 222.448 529.166 217.937 529.166 212.667C529.166 207.396 527.291 202.885 523.541 199.135C519.784 195.378 515.271 193.5 510 193.5C504.729 193.5 500.218 195.378 496.468 199.135C492.711 202.885 490.833 207.396 490.833 212.667C490.833 217.937 492.711 222.448 496.468 226.198C500.218 229.955 504.729 231.833 510 231.833ZM510 321.437C529.486 303.549 543.941 287.295 553.364 272.677C562.788 258.066 567.5 245.09 567.5 233.75C567.5 216.34 561.948 202.083 550.844 190.98C539.746 179.882 526.132 174.333 510 174.333C493.868 174.333 480.25 179.882 469.146 190.98C458.048 202.083 452.5 216.34 452.5 233.75C452.5 245.09 457.211 258.066 466.635 272.677C476.059 287.295 490.514 303.549 510 321.437ZM510 346.833C484.284 324.951 465.079 304.625 452.385 285.855C439.684 267.09 433.333 249.722 433.333 233.75C433.333 209.792 441.041 190.705 456.458 176.49C471.868 162.274 489.715 155.167 510 155.167C530.284 155.167 548.132 162.274 563.542 176.49C578.958 190.705 586.666 209.792 586.666 233.75C586.666 249.722 580.319 267.09 567.624 285.855C554.923 304.625 535.715 324.951 510 346.833Z" fill="#F2F2F2"/>
</svg>
