<svg width="152" height="152" viewBox="0 0 152 152" fill="none" xmlns="http://www.w3.org/2000/svg">
<rect width="152" height="152" fill="#383A3C"/>
<path d="M75.905 32.4425H76.19C77.425 32.4425 78.4225 31.445 78.4225 30.21V22.5675C78.4225 21.4629 79.3179 20.5675 80.4225 20.5675H81.32C82.3693 20.5675 83.22 21.4182 83.22 22.4675V22.4675C83.22 24.035 84.5025 25.3175 86.07 25.3175H95.95C96.71 25.3175 97.3275 24.7 97.3275 23.94V17.195C97.3275 16.8297 97.1824 16.4793 96.924 16.221C96.6657 15.9626 96.3153 15.8175 95.95 15.8175H94.625C93.5204 15.8175 92.625 14.9221 92.625 13.8175V12.9675C92.625 11.9225 91.77 11.0675 90.725 11.0675H79.7393C78.8966 11.0675 78.1927 10.4327 77.5137 9.9336V9.9336C77.13 9.65159 76.6662 9.49966 76.19 9.5H75.905C75.3129 9.5 74.7451 9.73521 74.3264 10.1539C73.9077 10.5726 73.6725 11.1404 73.6725 11.7325V30.21C73.6725 31.445 74.67 32.4425 75.905 32.4425ZM73.6274 71.2872C73.6292 71.1485 73.6289 71.0096 73.6257 70.8709C73.6253 70.8548 73.6251 70.8386 73.625 70.8225V64.125C73.625 62.795 74.67 61.75 76 61.75C77.33 61.75 78.375 62.795 78.375 64.125V69.4716C78.375 70.002 78.5857 70.5107 78.9608 70.8858L84.74 76.665C85.69 77.615 85.69 79.0875 84.74 80.0375C84.2175 80.5125 83.6475 80.75 83.03 80.75C82.7185 80.7538 82.4097 80.6924 82.1234 80.5697C81.837 80.4469 81.5796 80.2657 81.3675 80.0375L74.3375 73.0075C74.0838 72.7591 73.8894 72.4567 73.7685 72.1229C73.6713 71.8545 73.6237 71.5714 73.6274 71.2872Z" fill="#FCFEFF"/>
<path d="M114 76.0096C114 75.8751 113.953 75.7344 113.954 75.5999L114 67.1651C114 65.7401 113.43 64.4101 112.433 63.4126L104.637 55.6168C103.377 54.3569 104.269 52.2026 106.051 52.2026H129.39C131.575 52.2026 133.523 53.5326 134.33 55.5751L142.478 75.993C142.48 75.9973 142.484 76.0001 142.489 76.0001V76.0001C142.495 76.0001 142.5 76.0052 142.5 76.0114V140.5C142.5 141.605 141.605 142.5 140.5 142.5H109.321C109.308 142.5 109.298 142.511 109.298 142.524V142.524C109.298 142.537 109.287 142.548 109.274 142.548H90.2738C90.2606 142.548 90.25 142.537 90.25 142.524V142.524C90.25 142.511 90.2606 142.5 90.2738 142.5V142.5C90.2869 142.5 90.2975 142.489 90.2975 142.476V117.325C90.2975 115.473 88.825 114 86.9725 114H64.885C63.0325 114 61.56 115.473 61.56 117.325V142.405C61.56 142.458 61.6025 142.5 61.655 142.5H61.7262C61.7394 142.5 61.75 142.511 61.75 142.524V142.524C61.75 142.537 61.7394 142.548 61.7262 142.548H43.2297C42.991 142.548 42.7975 142.354 42.7975 142.115V142.115V142.115C42.7704 142.335 42.5837 142.5 42.3623 142.5H11.5C10.3954 142.5 9.5 141.605 9.5 140.5V76.0114C9.5 76.0052 9.50507 76.0001 9.51133 76.0001V76.0001C9.51596 76.0001 9.52013 75.9973 9.52184 75.993L17.67 55.5751C18.4775 53.5326 20.425 52.2026 22.61 52.2026H45.9491C47.7309 52.2026 48.6232 54.3569 47.3633 55.6168L39.5675 63.4126C38.57 64.4101 38 65.7876 38 67.1651V75.7864C38 75.7995 38.0106 75.8101 38.0238 75.8101V75.8101C38.0369 75.8101 38.0476 75.8208 38.0467 75.8338C38.044 75.8694 38.0355 75.8975 38.0238 75.9289C38.009 75.9668 38.001 76.007 38 76.0476V78.3751C38 79.005 38.2502 79.6091 38.6956 80.0545C39.141 80.4999 39.7451 80.7501 40.375 80.7501C41.0049 80.7501 41.609 80.4999 42.0544 80.0545C42.4998 79.6091 42.75 79.005 42.75 78.3751V76.0476C42.749 76.007 42.741 75.9668 42.7262 75.9289C42.7184 75.8975 42.7073 75.8694 42.7037 75.8338C42.7024 75.8208 42.7131 75.8101 42.7262 75.8101V75.8101C42.7394 75.8101 42.75 75.7995 42.75 75.7864V70.0626C42.75 69.8251 42.769 69.5924 42.7975 69.3644C42.8639 68.2111 43.3545 67.1232 44.175 66.3101L73.3875 37.5251C73.7362 37.1747 74.1507 36.8966 74.6072 36.7069C75.0637 36.5171 75.5531 36.4194 76.0475 36.4194C76.5419 36.4194 77.0313 36.5171 77.4878 36.7069C77.9443 36.8966 78.3588 37.1747 78.7075 37.5251L107.92 66.3101C108.775 67.1651 109.25 68.3051 109.298 69.4926V78.6491C109.298 78.7828 109.308 78.9169 109.346 79.0452C109.491 79.5424 109.796 79.9803 110.216 80.2897C110.691 80.639 111.278 80.7997 111.864 80.7405C112.45 80.6813 112.993 80.4065 113.388 79.9694C113.782 79.5323 114.001 78.9641 114 78.3751V76.0096V76.0096ZM76 85.5001C79.7806 85.5001 83.4064 83.9983 86.0796 81.325C88.7529 78.6517 90.2547 75.026 90.2547 71.2454C90.2547 67.4648 88.7529 63.839 86.0796 61.1657C83.4064 58.4924 79.7806 56.9906 76 56.9906C72.2194 56.9906 68.5937 58.4924 65.9204 61.1657C63.2471 63.839 61.7452 67.4648 61.7452 71.2454C61.7452 75.026 63.2471 78.6517 65.9204 81.325C68.5937 83.9983 72.2194 85.5001 76 85.5001ZM42.7975 76.3801V76.0676C42.7975 76.0566 42.7885 76.0476 42.7775 76.0476V76.0476C42.7654 76.0476 42.7561 76.0582 42.7577 76.0702L42.7975 76.3801ZM15.58 99.7501H22.42C23.18 99.7501 23.75 99.1801 23.75 98.4201V86.8301C23.75 86.1176 23.1325 85.5001 22.42 85.5001H15.58C14.8675 85.5001 14.25 86.1176 14.25 86.8301V98.4201C14.25 99.1326 14.8675 99.7501 15.58 99.7501ZM36.67 99.7501C37.43 99.7501 38 99.1801 38 98.4201V86.8301C38 86.1176 37.3825 85.5001 36.67 85.5001H29.83C29.1175 85.5001 28.5 86.1176 28.5 86.8301V98.4201C28.5 99.1326 29.1175 99.7501 29.83 99.7501H36.67ZM22.42 118.75C23.18 118.75 23.75 118.18 23.75 117.42V105.83C23.75 105.118 23.1325 104.5 22.42 104.5H15.58C14.8675 104.5 14.25 105.118 14.25 105.83V117.42C14.25 118.133 14.8675 118.75 15.58 118.75H22.42ZM36.67 118.75C37.43 118.75 38 118.18 38 117.42V105.83C38 105.118 37.3825 104.5 36.67 104.5H29.83C29.1175 104.5 28.5 105.118 28.5 105.83V117.42C28.5 118.133 29.1175 118.75 29.83 118.75H36.67ZM114 98.4201C114 99.1326 114.618 99.7501 115.33 99.7501H122.17C122.93 99.7501 123.5 99.1801 123.5 98.4201V86.8301C123.5 86.1176 122.882 85.5001 122.17 85.5001H115.33C114.618 85.5001 114 86.1176 114 86.8301V98.4201ZM137.75 98.4201V86.8301C137.75 86.1176 137.132 85.5001 136.42 85.5001H129.58C128.868 85.5001 128.25 86.1176 128.25 86.8301V98.4201C128.25 99.1326 128.868 99.7501 129.58 99.7501H136.42C137.18 99.7501 137.75 99.1801 137.75 98.4201ZM123.5 117.42V105.83C123.5 105.118 122.882 104.5 122.17 104.5H115.33C114.618 104.5 114 105.118 114 105.83V117.42C114 118.133 114.618 118.75 115.33 118.75H122.17C122.93 118.75 123.5 118.18 123.5 117.42ZM137.75 117.42V105.83C137.75 105.118 137.132 104.5 136.42 104.5H129.58C128.868 104.5 128.25 105.118 128.25 105.83V117.42C128.25 118.133 128.868 118.75 129.58 118.75H136.42C137.18 118.75 137.75 118.18 137.75 117.42Z" fill="#FCFEFF"/>
</svg>
